M48
; DRILL file {KiCad 9.0.0} date 2025-02-27T15:43:42+0100
; FORMAT={-:-/ absolute / metric / decimal}
; #@! TF.CreationDate,2025-02-27T15:43:42+01:00
; #@! TF.GenerationSoftware,Kicad,Pcbnew,9.0.0
; #@! TF.FileFunction,Plated,1,2,PTH
FMAT,2
METRIC
; #@! TA.AperFunction,Plated,PTH,ViaDrill
T1C0.400
; #@! TA.AperFunction,Plated,PTH,ComponentDrill
T2C0.600
; #@! TA.AperFunction,Plated,PTH,ComponentDrill
T3C0.900
; #@! TA.AperFunction,Plated,PTH,ComponentDrill
T4C1.600
%
G90
G05
T1
X129.159Y-86.106
X129.54Y-105.029
X130.048Y-94.615
X131.445Y-84.455
X132.715Y-82.677
X133.223Y-108.712
X134.62Y-96.393
X135.001Y-106.172
X135.636Y-95.826
X135.636Y-103.505
X136.582Y-91.383
X136.779Y-108.712
X136.906Y-87.249
X137.684Y-90.043
X137.997Y-101.731
X138.557Y-106.172
X138.684Y-90.043
X139.319Y-95.377
X139.446Y-83.947
X139.573Y-98.679
X139.731Y-90.043
X139.864Y-102.997
X139.954Y-99.695
X140.335Y-108.712
X140.589Y-89.027
X141.836Y-106.44
X142.494Y-92.837
X143.764Y-105.537
X144.526Y-85.598
X144.526Y-102.489
X144.907Y-105.537
X146.05Y-105.537
X149.225Y-105.283
X153.162Y-108.712
X154.94Y-106.172
X156.718Y-108.712
X158.496Y-106.172
X160.274Y-108.712
X160.909Y-89.662
X160.909Y-91.567
X161.036Y-96.393
X161.798Y-106.172
X162.306Y-105.029
X163.068Y-104.013
X164.465Y-104.521
X165.354Y-93.091
X165.608Y-85.344
X166.116Y-104.521
T3
X132.398Y-115.951
X133.667Y-113.411
X134.938Y-115.951
X136.207Y-113.411
X137.477Y-115.951
X138.748Y-113.411
X140.017Y-115.951
X141.287Y-113.411
X152.082Y-115.951
X153.352Y-113.411
X154.623Y-115.951
X155.892Y-113.411
X157.162Y-115.951
X158.433Y-113.411
X159.702Y-115.951
X160.972Y-113.411
T4
X129.093Y-125.351
X144.593Y-125.351
X148.778Y-125.351
X164.278Y-125.351
T2
G00X126.759Y-91.057
M15
G01X127.559Y-91.057
M16
G05
G00X126.759Y-99.697
M15
G01X127.559Y-99.697
M16
G05
G00X130.779Y-91.057
M15
G01X131.879Y-91.057
M16
G05
G00X130.779Y-99.697
M15
G01X131.879Y-99.697
M16
G05
M30
