%TF.GenerationSoftware,KiCad,Pcbnew,9.0.0*%
%TF.CreationDate,2025-02-27T15:43:30+01:00*%
%TF.ProjectId,upsy-desky,75707379-2d64-4657-936b-792e6b696361,rev?*%
%TF.SameCoordinates,Original*%
%TF.FileFunction,Copper,L2,Bot*%
%TF.FilePolarity,Positive*%
%FSLAX46Y46*%
G04 Gerber Fmt 4.6, Leading zero omitted, Abs format (unit mm)*
G04 Created by KiCad (PCBNEW 9.0.0) date 2025-02-27 15:43:30*
%MOMM*%
%LPD*%
G01*
G04 APERTURE LIST*
%TA.AperFunction,ComponentPad*%
%ADD10R,1.408000X1.408000*%
%TD*%
%TA.AperFunction,ComponentPad*%
%ADD11C,1.408000*%
%TD*%
%TA.AperFunction,ComponentPad*%
%ADD12C,2.400000*%
%TD*%
%TA.AperFunction,ComponentPad*%
%ADD13O,2.000000X0.900000*%
%TD*%
%TA.AperFunction,ComponentPad*%
%ADD14O,1.700000X0.900000*%
%TD*%
%TA.AperFunction,ViaPad*%
%ADD15C,0.800000*%
%TD*%
%TA.AperFunction,Conductor*%
%ADD16C,0.250000*%
%TD*%
%TA.AperFunction,Conductor*%
%ADD17C,0.200000*%
%TD*%
G04 APERTURE END LIST*
D10*
%TO.P,J1,1,1*%
%TO.N,/DESK_1*%
X132397500Y-115951000D03*
D11*
%TO.P,J1,2,2*%
%TO.N,/DESK_2*%
X133667500Y-113411000D03*
%TO.P,J1,3,3*%
%TO.N,GND*%
X134937500Y-115951000D03*
%TO.P,J1,4,4*%
%TO.N,/DESK_4*%
X136207500Y-113411000D03*
%TO.P,J1,5,5*%
%TO.N,+5V*%
X137477500Y-115951000D03*
%TO.P,J1,6,6*%
%TO.N,/DESK_6*%
X138747500Y-113411000D03*
%TO.P,J1,7,7*%
%TO.N,/DESK_7*%
X140017500Y-115951000D03*
%TO.P,J1,8,8*%
%TO.N,/DESK_8*%
X141287500Y-113411000D03*
D12*
%TO.P,J1,S1,SHIELD*%
%TO.N,GND*%
X129092500Y-125351000D03*
%TO.P,J1,S2,SHIELD__1*%
X144592500Y-125351000D03*
%TD*%
D13*
%TO.P,J3,S1,SHIELD*%
%TO.N,GND*%
X131329000Y-91057000D03*
D14*
X127159000Y-91057000D03*
D13*
X131329000Y-99697000D03*
D14*
X127159000Y-99697000D03*
%TD*%
D10*
%TO.P,J2,1,1*%
%TO.N,/DESK_1*%
X152082500Y-115951000D03*
D11*
%TO.P,J2,2,2*%
%TO.N,/DESK_2*%
X153352500Y-113411000D03*
%TO.P,J2,3,3*%
%TO.N,GND*%
X154622500Y-115951000D03*
%TO.P,J2,4,4*%
%TO.N,/DESK_4*%
X155892500Y-113411000D03*
%TO.P,J2,5,5*%
%TO.N,+5V*%
X157162500Y-115951000D03*
%TO.P,J2,6,6*%
%TO.N,/DESK_6*%
X158432500Y-113411000D03*
%TO.P,J2,7,7*%
%TO.N,/DESK_7*%
X159702500Y-115951000D03*
%TO.P,J2,8,8*%
%TO.N,/DESK_8*%
X160972500Y-113411000D03*
D12*
%TO.P,J2,S1,SHIELD*%
%TO.N,GND*%
X148777500Y-125351000D03*
%TO.P,J2,S2,SHIELD__1*%
X164277500Y-125351000D03*
%TD*%
D15*
%TO.N,GND*%
X165608000Y-85344000D03*
X136906000Y-87249000D03*
X144526000Y-85598000D03*
X139319000Y-95377000D03*
X162306000Y-105029000D03*
X139446000Y-83947000D03*
X132715000Y-82677000D03*
X142494000Y-92837000D03*
X139573000Y-98679000D03*
X149225000Y-105283000D03*
%TO.N,+3V3*%
X141835950Y-106440450D03*
X158496000Y-106172000D03*
X138557000Y-106172000D03*
X161798000Y-106172000D03*
X134620000Y-96393000D03*
X135636000Y-103505000D03*
X154940000Y-106172000D03*
X136582047Y-91382953D03*
X135001000Y-106172000D03*
X131445000Y-84455000D03*
%TO.N,/USB_D-*%
X135636000Y-95826500D03*
X130048000Y-94615000D03*
%TO.N,/DTR*%
X137684497Y-90042989D03*
X139864500Y-102997000D03*
%TO.N,/GPIO0*%
X139954000Y-99695000D03*
X163068000Y-104013000D03*
%TO.N,/RTS*%
X140589000Y-89027000D03*
X137996696Y-101730735D03*
%TO.N,/ESP_TX*%
X160909000Y-89662000D03*
X139731278Y-90042989D03*
%TO.N,/ESP_RX*%
X160909000Y-91567000D03*
X138684000Y-90042989D03*
%TO.N,+5V*%
X129540000Y-105029000D03*
X129159000Y-86106000D03*
%TO.N,/GPIO16*%
X146050000Y-105537000D03*
X140335000Y-108712000D03*
%TO.N,/GPIO17*%
X144907000Y-105537000D03*
X136779000Y-108712000D03*
%TO.N,/GPIO18*%
X144526000Y-102489000D03*
X133223000Y-108712000D03*
X161036000Y-96393000D03*
X143764000Y-105537000D03*
%TO.N,/GPIO19*%
X164465000Y-104521000D03*
X153162000Y-108712000D03*
%TO.N,/GPIO22*%
X156718000Y-108712000D03*
X166116000Y-104521000D03*
%TO.N,/GPIO21*%
X160274000Y-108712000D03*
X165354000Y-93091000D03*
%TD*%
D16*
%TO.N,GND*%
X149479000Y-105029000D02*
X149225000Y-105283000D01*
X162306000Y-105029000D02*
X149479000Y-105029000D01*
%TO.N,/DESK_2*%
X152400000Y-114554000D02*
X135001000Y-114554000D01*
X135001000Y-114554000D02*
X133858000Y-113411000D01*
X153543000Y-113411000D02*
X152400000Y-114554000D01*
%TO.N,/DESK_7*%
X141351000Y-117094000D02*
X140208000Y-115951000D01*
X158750000Y-117094000D02*
X141351000Y-117094000D01*
X159893000Y-115951000D02*
X158750000Y-117094000D01*
%TO.N,/DESK_8*%
X160020000Y-112268000D02*
X142621000Y-112268000D01*
X161163000Y-113411000D02*
X160020000Y-112268000D01*
X142621000Y-112268000D02*
X141478000Y-113411000D01*
%TO.N,+3V3*%
X127566480Y-92144856D02*
X127566480Y-98609143D01*
X132677511Y-109436511D02*
X143801489Y-109436511D01*
X158496000Y-106172000D02*
X161798000Y-106172000D01*
X131445000Y-84455000D02*
X129413000Y-84455000D01*
X128333520Y-85534480D02*
X128333520Y-91377816D01*
X129413000Y-106172000D02*
X138557000Y-106172000D01*
X135001000Y-104140000D02*
X135636000Y-103505000D01*
X135858969Y-96736511D02*
X136582047Y-96013433D01*
X135001000Y-106172000D02*
X135001000Y-104140000D01*
X147066000Y-106172000D02*
X154940000Y-106172000D01*
X143801489Y-109436511D02*
X147066000Y-106172000D01*
X134620000Y-96393000D02*
X134963511Y-96736511D01*
X138557000Y-106172000D02*
X141567500Y-106172000D01*
X134963511Y-96736511D02*
X135858969Y-96736511D01*
X141567500Y-106172000D02*
X141835950Y-106440450D01*
X136582047Y-96013433D02*
X136582047Y-91382953D01*
X154940000Y-106172000D02*
X158496000Y-106172000D01*
X129413000Y-84455000D02*
X128333520Y-85534480D01*
X128333520Y-105092520D02*
X129413000Y-106172000D01*
X128333520Y-91377816D02*
X127566480Y-92144856D01*
X128333520Y-99376184D02*
X128333520Y-105092520D01*
X127566480Y-98609143D02*
X128333520Y-99376184D01*
X129413000Y-106172000D02*
X132677511Y-109436511D01*
D17*
%TO.N,/USB_D-*%
X130048000Y-94615000D02*
X130175000Y-94742000D01*
X130175000Y-94742000D02*
X134551500Y-94742000D01*
X134551500Y-94742000D02*
X135636000Y-95826500D01*
D16*
%TO.N,/DTR*%
X138213489Y-99732489D02*
X138213489Y-91096489D01*
X139864500Y-102997000D02*
X138721207Y-101853707D01*
X138721207Y-100240207D02*
X138213489Y-99732489D01*
X137684497Y-90567497D02*
X137684497Y-90042989D01*
X138721207Y-101853707D02*
X138721207Y-100240207D01*
X138213489Y-91096489D02*
X137684497Y-90567497D01*
%TO.N,/GPIO0*%
X140589000Y-100330000D02*
X139954000Y-99695000D01*
X163068000Y-104013000D02*
X141478000Y-104013000D01*
X140589000Y-103124000D02*
X140589000Y-100330000D01*
X141478000Y-104013000D02*
X140589000Y-103124000D01*
%TO.N,/RTS*%
X140297511Y-89318489D02*
X136868511Y-89318489D01*
X136868511Y-89318489D02*
X136689489Y-89497511D01*
X140589000Y-89027000D02*
X140297511Y-89318489D01*
X137414000Y-101148039D02*
X137996696Y-101730735D01*
X136689489Y-89497511D02*
X136689489Y-90465796D01*
X136689489Y-90465796D02*
X137414000Y-91190307D01*
X137414000Y-91190307D02*
X137414000Y-101148039D01*
%TO.N,/ESP_TX*%
X160528011Y-90042989D02*
X160909000Y-89662000D01*
X139731278Y-90042989D02*
X160528011Y-90042989D01*
%TO.N,/ESP_RX*%
X140208011Y-91567000D02*
X160909000Y-91567000D01*
X138684000Y-90042989D02*
X140208011Y-91567000D01*
%TO.N,+5V*%
X129159000Y-91188054D02*
X129159000Y-86106000D01*
X129540000Y-105029000D02*
X128783040Y-104272040D01*
X128016000Y-98422946D02*
X128016000Y-92331054D01*
X128783040Y-99189986D02*
X128016000Y-98422946D01*
X128783040Y-104272040D02*
X128783040Y-99189986D01*
X128016000Y-92331054D02*
X129159000Y-91188054D01*
%TO.N,/GPIO16*%
X143383000Y-108712000D02*
X140335000Y-108712000D01*
X146050000Y-105537000D02*
X146050000Y-106045000D01*
X146050000Y-106045000D02*
X143383000Y-108712000D01*
%TO.N,/GPIO17*%
X143091511Y-107987489D02*
X137503511Y-107987489D01*
X137503511Y-107987489D02*
X136779000Y-108712000D01*
X144907000Y-106172000D02*
X143091511Y-107987489D01*
X144907000Y-105537000D02*
X144907000Y-106172000D01*
%TO.N,/GPIO18*%
X150368000Y-100457000D02*
X148336000Y-102489000D01*
X148336000Y-102489000D02*
X144526000Y-102489000D01*
X134747000Y-107188000D02*
X133223000Y-108712000D01*
X142113000Y-107188000D02*
X134747000Y-107188000D01*
X156972000Y-100457000D02*
X150368000Y-100457000D01*
X143764000Y-105537000D02*
X142113000Y-107188000D01*
X161036000Y-96393000D02*
X156972000Y-100457000D01*
%TO.N,/GPIO19*%
X164465000Y-104775000D02*
X161798000Y-107442000D01*
X161798000Y-107442000D02*
X154432000Y-107442000D01*
X154432000Y-107442000D02*
X153162000Y-108712000D01*
X164465000Y-104521000D02*
X164465000Y-104775000D01*
%TO.N,/GPIO22*%
X157442511Y-109436511D02*
X156718000Y-108712000D01*
X162852206Y-109436511D02*
X157442511Y-109436511D01*
X166116000Y-106172717D02*
X162852206Y-109436511D01*
X166116000Y-104521000D02*
X166116000Y-106172717D01*
%TO.N,/GPIO21*%
X165354000Y-106299000D02*
X162941000Y-108712000D01*
X162941000Y-108712000D02*
X160274000Y-108712000D01*
X165354000Y-93091000D02*
X165354000Y-106299000D01*
%TD*%
%TA.AperFunction,Conductor*%
%TO.N,GND*%
G36*
X134074122Y-114568660D02*
G01*
X134094865Y-114568068D01*
X134109178Y-114576286D01*
X134123220Y-114579341D01*
X134151930Y-114600834D01*
X134292495Y-114741399D01*
X134326521Y-114803711D01*
X134321456Y-114874526D01*
X134278909Y-114931362D01*
X134277854Y-114932139D01*
X134277854Y-114932144D01*
X134853376Y-115507666D01*
X134763806Y-115531667D01*
X134661194Y-115590910D01*
X134577410Y-115674694D01*
X134518167Y-115777306D01*
X134494166Y-115866876D01*
X133918644Y-115291354D01*
X133900907Y-115315768D01*
X133900902Y-115315775D01*
X133848267Y-115419079D01*
X133799519Y-115470694D01*
X133730604Y-115487760D01*
X133663402Y-115464859D01*
X133619250Y-115409262D01*
X133610000Y-115361876D01*
X133610000Y-115198367D01*
X133609999Y-115198350D01*
X133603490Y-115137803D01*
X133603488Y-115137795D01*
X133552389Y-115000797D01*
X133552387Y-115000792D01*
X133464761Y-114883738D01*
X133402346Y-114837015D01*
X133359799Y-114780179D01*
X133354735Y-114709363D01*
X133388760Y-114647051D01*
X133451072Y-114613026D01*
X133497560Y-114611698D01*
X133572074Y-114623500D01*
X133572078Y-114623500D01*
X133762923Y-114623500D01*
X133762926Y-114623500D01*
X133951428Y-114593644D01*
X134023900Y-114570095D01*
X134039356Y-114569654D01*
X134053846Y-114564250D01*
X134074122Y-114568660D01*
G37*
%TD.AperFunction*%
%TA.AperFunction,Conductor*%
G36*
X127413000Y-100655000D02*
G01*
X127574020Y-100655000D01*
X127642141Y-100675002D01*
X127688634Y-100728658D01*
X127700020Y-100781000D01*
X127700020Y-105030126D01*
X127700020Y-105154914D01*
X127724365Y-105277305D01*
X127772120Y-105392595D01*
X127841449Y-105496353D01*
X127841451Y-105496355D01*
X128920929Y-106575833D01*
X132273672Y-109928578D01*
X132273677Y-109928582D01*
X132273678Y-109928583D01*
X132377436Y-109997912D01*
X132458958Y-110031679D01*
X132492726Y-110045666D01*
X132615117Y-110070011D01*
X132615118Y-110070011D01*
X143863882Y-110070011D01*
X143863883Y-110070011D01*
X143986274Y-110045666D01*
X144101564Y-109997911D01*
X144205322Y-109928582D01*
X145119849Y-109014053D01*
X145182158Y-108980031D01*
X145252973Y-108985095D01*
X145309809Y-109027642D01*
X145334620Y-109094162D01*
X145334554Y-109113024D01*
X145334500Y-109113711D01*
X145334500Y-109113713D01*
X145334500Y-109326287D01*
X145367754Y-109536243D01*
X145433443Y-109738412D01*
X145433444Y-109738413D01*
X145529951Y-109927819D01*
X145530506Y-109928583D01*
X145654896Y-110099792D01*
X145654898Y-110099794D01*
X145654900Y-110099797D01*
X145805202Y-110250099D01*
X145805205Y-110250101D01*
X145805208Y-110250104D01*
X145977184Y-110375051D01*
X146166588Y-110471557D01*
X146368757Y-110537246D01*
X146578713Y-110570500D01*
X146578716Y-110570500D01*
X146791284Y-110570500D01*
X146791287Y-110570500D01*
X147001243Y-110537246D01*
X147203412Y-110471557D01*
X147392816Y-110375051D01*
X147564792Y-110250104D01*
X147715104Y-110099792D01*
X147840051Y-109927816D01*
X147936557Y-109738412D01*
X148002246Y-109536243D01*
X148035500Y-109326287D01*
X148035500Y-109113713D01*
X148002246Y-108903757D01*
X147936557Y-108701588D01*
X147840051Y-108512184D01*
X147715104Y-108340208D01*
X147715101Y-108340205D01*
X147715099Y-108340202D01*
X147564797Y-108189900D01*
X147564794Y-108189898D01*
X147564792Y-108189896D01*
X147424322Y-108087839D01*
X147392819Y-108064951D01*
X147392818Y-108064950D01*
X147392816Y-108064949D01*
X147203412Y-107968443D01*
X147001243Y-107902754D01*
X146791287Y-107869500D01*
X146578713Y-107869500D01*
X146578700Y-107869500D01*
X146578026Y-107869553D01*
X146577774Y-107869500D01*
X146573762Y-107869500D01*
X146573762Y-107868656D01*
X146508548Y-107854951D01*
X146457993Y-107805104D01*
X146442413Y-107735838D01*
X146466754Y-107669145D01*
X146479043Y-107654861D01*
X147291502Y-106842402D01*
X147353812Y-106808379D01*
X147380595Y-106805500D01*
X153868406Y-106805500D01*
X153936527Y-106825502D01*
X153983020Y-106879158D01*
X153993124Y-106949432D01*
X153963630Y-107014012D01*
X153957501Y-107020595D01*
X153211501Y-107766595D01*
X153149189Y-107800621D01*
X153122406Y-107803500D01*
X153072518Y-107803500D01*
X152942091Y-107829444D01*
X152897000Y-107838413D01*
X152896999Y-107838413D01*
X152896996Y-107838414D01*
X152815936Y-107871991D01*
X152741669Y-107902754D01*
X152731662Y-107906899D01*
X152582869Y-108006319D01*
X152582862Y-108006324D01*
X152456324Y-108132862D01*
X152456319Y-108132869D01*
X152356899Y-108281662D01*
X152288414Y-108446996D01*
X152253500Y-108622518D01*
X152253500Y-108801481D01*
X152270838Y-108888645D01*
X152288413Y-108977000D01*
X152356898Y-109142336D01*
X152456322Y-109291135D01*
X152582865Y-109417678D01*
X152731664Y-109517102D01*
X152897000Y-109585587D01*
X153072521Y-109620500D01*
X153072522Y-109620500D01*
X153251478Y-109620500D01*
X153251479Y-109620500D01*
X153427000Y-109585587D01*
X153592336Y-109517102D01*
X153741135Y-109417678D01*
X153867678Y-109291135D01*
X153967102Y-109142336D01*
X154035587Y-108977000D01*
X154070500Y-108801479D01*
X154070500Y-108751594D01*
X154090502Y-108683473D01*
X154107405Y-108662499D01*
X154657499Y-108112405D01*
X154719811Y-108078379D01*
X154746594Y-108075500D01*
X155814923Y-108075500D01*
X155883044Y-108095502D01*
X155929537Y-108149158D01*
X155939641Y-108219432D01*
X155919689Y-108271501D01*
X155912898Y-108281663D01*
X155844414Y-108446996D01*
X155809500Y-108622518D01*
X155809500Y-108801481D01*
X155826838Y-108888645D01*
X155844413Y-108977000D01*
X155912898Y-109142336D01*
X156012322Y-109291135D01*
X156138865Y-109417678D01*
X156287664Y-109517102D01*
X156453000Y-109585587D01*
X156628521Y-109620500D01*
X156678406Y-109620500D01*
X156746527Y-109640502D01*
X156767501Y-109657405D01*
X156950440Y-109840344D01*
X157038678Y-109928582D01*
X157142436Y-109997911D01*
X157257726Y-110045666D01*
X157380117Y-110070011D01*
X157380118Y-110070011D01*
X162914599Y-110070011D01*
X162914600Y-110070011D01*
X163036991Y-110045666D01*
X163152281Y-109997911D01*
X163256039Y-109928582D01*
X166608072Y-106576550D01*
X166677401Y-106472792D01*
X166725155Y-106357501D01*
X166725298Y-106356785D01*
X166749500Y-106235111D01*
X166749500Y-105224503D01*
X166755885Y-105202755D01*
X166757564Y-105180151D01*
X166766671Y-105166021D01*
X166769502Y-105156382D01*
X166774836Y-105148721D01*
X166780147Y-105141665D01*
X166821678Y-105100135D01*
X166902713Y-104978856D01*
X166904836Y-104976037D01*
X166930590Y-104956866D01*
X166955211Y-104936290D01*
X166958847Y-104935833D01*
X166961787Y-104933645D01*
X166993807Y-104931441D01*
X167025654Y-104927441D01*
X167028959Y-104929022D01*
X167032616Y-104928771D01*
X167060742Y-104944228D01*
X167089699Y-104958082D01*
X167091625Y-104961200D01*
X167094836Y-104962965D01*
X167110143Y-104991178D01*
X167127010Y-105018484D01*
X167127687Y-105023516D01*
X167128693Y-105025369D01*
X167128424Y-105028985D01*
X167131500Y-105051819D01*
X167131500Y-128905500D01*
X167111498Y-128973621D01*
X167057842Y-129020114D01*
X167005500Y-129031500D01*
X126364500Y-129031500D01*
X126296379Y-129011498D01*
X126249886Y-128957842D01*
X126238500Y-128905500D01*
X126238500Y-125239049D01*
X127384500Y-125239049D01*
X127384500Y-125462950D01*
X127413722Y-125684922D01*
X127471673Y-125901196D01*
X127557352Y-126108046D01*
X127557357Y-126108055D01*
X127669300Y-126301946D01*
X127718379Y-126365907D01*
X127718381Y-126365908D01*
X128374995Y-125709293D01*
X128383549Y-125729942D01*
X128471099Y-125860970D01*
X128582530Y-125972401D01*
X128713558Y-126059951D01*
X128734205Y-126068503D01*
X128077590Y-126725118D01*
X128077590Y-126725119D01*
X128141552Y-126774199D01*
X128335444Y-126886142D01*
X128335453Y-126886147D01*
X128542303Y-126971826D01*
X128758577Y-127029777D01*
X128980549Y-127058999D01*
X128980559Y-127059000D01*
X129204441Y-127059000D01*
X129204450Y-127058999D01*
X129426422Y-127029777D01*
X129642696Y-126971826D01*
X129849546Y-126886147D01*
X129849555Y-126886142D01*
X130043453Y-126774195D01*
X130107408Y-126725118D01*
X129450794Y-126068503D01*
X129471442Y-126059951D01*
X129602470Y-125972401D01*
X129713901Y-125860970D01*
X129801451Y-125729942D01*
X129810003Y-125709293D01*
X130466618Y-126365908D01*
X130515695Y-126301953D01*
X130627642Y-126108055D01*
X130627647Y-126108046D01*
X130713326Y-125901196D01*
X130771277Y-125684922D01*
X130800499Y-125462950D01*
X130800500Y-125462941D01*
X130800500Y-125239059D01*
X130800499Y-125239049D01*
X130771277Y-125017077D01*
X130713326Y-124800803D01*
X130627647Y-124593953D01*
X130627642Y-124593944D01*
X130515699Y-124400052D01*
X130466618Y-124336090D01*
X129810003Y-124992705D01*
X129801451Y-124972058D01*
X129713901Y-124841030D01*
X129602470Y-124729599D01*
X129471442Y-124642049D01*
X129450793Y-124633496D01*
X130107408Y-123976881D01*
X130106236Y-123959000D01*
X130121740Y-123889717D01*
X130172239Y-123839814D01*
X130241702Y-123825136D01*
X130294966Y-123841640D01*
X130351599Y-123874337D01*
X130351603Y-123874338D01*
X130351612Y-123874344D01*
X130563613Y-123962158D01*
X130785262Y-124021548D01*
X130785266Y-124021548D01*
X130785268Y-124021549D01*
X130843898Y-124029267D01*
X131012766Y-124051500D01*
X131012773Y-124051500D01*
X131242227Y-124051500D01*
X131242234Y-124051500D01*
X131447845Y-124024430D01*
X131469731Y-124021549D01*
X131469731Y-124021548D01*
X131469738Y-124021548D01*
X131691387Y-123962158D01*
X131903388Y-123874344D01*
X132102112Y-123759611D01*
X132284161Y-123619919D01*
X132446419Y-123457661D01*
X132586111Y-123275612D01*
X132700844Y-123076888D01*
X132788658Y-122864887D01*
X132848048Y-122643238D01*
X132878000Y-122415734D01*
X132878000Y-122186266D01*
X132878000Y-122186263D01*
X140807000Y-122186263D01*
X140807000Y-122415736D01*
X140836950Y-122643231D01*
X140836952Y-122643238D01*
X140896342Y-122864887D01*
X140984156Y-123076888D01*
X140984157Y-123076889D01*
X140984162Y-123076900D01*
X141098886Y-123275608D01*
X141098891Y-123275615D01*
X141238573Y-123457652D01*
X141238592Y-123457673D01*
X141400826Y-123619907D01*
X141400847Y-123619926D01*
X141582884Y-123759608D01*
X141582891Y-123759613D01*
X141781599Y-123874337D01*
X141781603Y-123874338D01*
X141781612Y-123874344D01*
X141993613Y-123962158D01*
X142215262Y-124021548D01*
X142215266Y-124021548D01*
X142215268Y-124021549D01*
X142273898Y-124029267D01*
X142442766Y-124051500D01*
X142442773Y-124051500D01*
X142672227Y-124051500D01*
X142672234Y-124051500D01*
X142877845Y-124024430D01*
X142899731Y-124021549D01*
X142899731Y-124021548D01*
X142899738Y-124021548D01*
X143121387Y-123962158D01*
X143333388Y-123874344D01*
X143390032Y-123841640D01*
X143459025Y-123824902D01*
X143526118Y-123848121D01*
X143570006Y-123903928D01*
X143578762Y-123958998D01*
X143577590Y-123976880D01*
X144234206Y-124633496D01*
X144213558Y-124642049D01*
X144082530Y-124729599D01*
X143971099Y-124841030D01*
X143883549Y-124972058D01*
X143874996Y-124992706D01*
X143218380Y-124336090D01*
X143169300Y-124400053D01*
X143057357Y-124593944D01*
X143057352Y-124593953D01*
X142971673Y-124800803D01*
X142913722Y-125017077D01*
X142884500Y-125239049D01*
X142884500Y-125462950D01*
X142913722Y-125684922D01*
X142971673Y-125901196D01*
X143057352Y-126108046D01*
X143057357Y-126108055D01*
X143169300Y-126301946D01*
X143218379Y-126365907D01*
X143218381Y-126365908D01*
X143874995Y-125709293D01*
X143883549Y-125729942D01*
X143971099Y-125860970D01*
X144082530Y-125972401D01*
X144213558Y-126059951D01*
X144234205Y-126068503D01*
X143577590Y-126725118D01*
X143577590Y-126725119D01*
X143641552Y-126774199D01*
X143835444Y-126886142D01*
X143835453Y-126886147D01*
X144042303Y-126971826D01*
X144258577Y-127029777D01*
X144480549Y-127058999D01*
X144480559Y-127059000D01*
X144704441Y-127059000D01*
X144704450Y-127058999D01*
X144926422Y-127029777D01*
X145142696Y-126971826D01*
X145349546Y-126886147D01*
X145349555Y-126886142D01*
X145543453Y-126774195D01*
X145607408Y-126725118D01*
X144950794Y-126068503D01*
X144971442Y-126059951D01*
X145102470Y-125972401D01*
X145213901Y-125860970D01*
X145301451Y-125729942D01*
X145310003Y-125709293D01*
X145966618Y-126365908D01*
X146015695Y-126301953D01*
X146127642Y-126108055D01*
X146127647Y-126108046D01*
X146213326Y-125901196D01*
X146271277Y-125684922D01*
X146300499Y-125462950D01*
X146300500Y-125462941D01*
X146300500Y-125239059D01*
X146300499Y-125239049D01*
X147069500Y-125239049D01*
X147069500Y-125462950D01*
X147098722Y-125684922D01*
X147156673Y-125901196D01*
X147242352Y-126108046D01*
X147242357Y-126108055D01*
X147354300Y-126301946D01*
X147403379Y-126365907D01*
X147403381Y-126365908D01*
X148059995Y-125709293D01*
X148068549Y-125729942D01*
X148156099Y-125860970D01*
X148267530Y-125972401D01*
X148398558Y-126059951D01*
X148419205Y-126068503D01*
X147762590Y-126725118D01*
X147762590Y-126725119D01*
X147826552Y-126774199D01*
X148020444Y-126886142D01*
X148020453Y-126886147D01*
X148227303Y-126971826D01*
X148443577Y-127029777D01*
X148665549Y-127058999D01*
X148665559Y-127059000D01*
X148889441Y-127059000D01*
X148889450Y-127058999D01*
X149111422Y-127029777D01*
X149327696Y-126971826D01*
X149534546Y-126886147D01*
X149534555Y-126886142D01*
X149728453Y-126774195D01*
X149792408Y-126725118D01*
X149135794Y-126068503D01*
X149156442Y-126059951D01*
X149287470Y-125972401D01*
X149398901Y-125860970D01*
X149486451Y-125729942D01*
X149495003Y-125709293D01*
X150151618Y-126365908D01*
X150200695Y-126301953D01*
X150312642Y-126108055D01*
X150312647Y-126108046D01*
X150398326Y-125901196D01*
X150456277Y-125684922D01*
X150485499Y-125462950D01*
X150485500Y-125462941D01*
X150485500Y-125239059D01*
X150485499Y-125239049D01*
X150456277Y-125017077D01*
X150398326Y-124800803D01*
X150312647Y-124593953D01*
X150312642Y-124593944D01*
X150200699Y-124400052D01*
X150151618Y-124336090D01*
X149495003Y-124992705D01*
X149486451Y-124972058D01*
X149398901Y-124841030D01*
X149287470Y-124729599D01*
X149156442Y-124642049D01*
X149135793Y-124633496D01*
X149792408Y-123976881D01*
X149791236Y-123959000D01*
X149806740Y-123889717D01*
X149857239Y-123839814D01*
X149926702Y-123825136D01*
X149979966Y-123841640D01*
X150036599Y-123874337D01*
X150036603Y-123874338D01*
X150036612Y-123874344D01*
X150248613Y-123962158D01*
X150470262Y-124021548D01*
X150470266Y-124021548D01*
X150470268Y-124021549D01*
X150528898Y-124029267D01*
X150697766Y-124051500D01*
X150697773Y-124051500D01*
X150927227Y-124051500D01*
X150927234Y-124051500D01*
X151132845Y-124024430D01*
X151154731Y-124021549D01*
X151154731Y-124021548D01*
X151154738Y-124021548D01*
X151376387Y-123962158D01*
X151588388Y-123874344D01*
X151787112Y-123759611D01*
X151969161Y-123619919D01*
X152131419Y-123457661D01*
X152271111Y-123275612D01*
X152385844Y-123076888D01*
X152473658Y-122864887D01*
X152533048Y-122643238D01*
X152563000Y-122415734D01*
X152563000Y-122186266D01*
X152563000Y-122186263D01*
X160492000Y-122186263D01*
X160492000Y-122415736D01*
X160521950Y-122643231D01*
X160521952Y-122643238D01*
X160581342Y-122864887D01*
X160669156Y-123076888D01*
X160669157Y-123076889D01*
X160669162Y-123076900D01*
X160783886Y-123275608D01*
X160783891Y-123275615D01*
X160923573Y-123457652D01*
X160923592Y-123457673D01*
X161085826Y-123619907D01*
X161085847Y-123619926D01*
X161267884Y-123759608D01*
X161267891Y-123759613D01*
X161466599Y-123874337D01*
X161466603Y-123874338D01*
X161466612Y-123874344D01*
X161678613Y-123962158D01*
X161900262Y-124021548D01*
X161900266Y-124021548D01*
X161900268Y-124021549D01*
X161958898Y-124029267D01*
X162127766Y-124051500D01*
X162127773Y-124051500D01*
X162357227Y-124051500D01*
X162357234Y-124051500D01*
X162562845Y-124024430D01*
X162584731Y-124021549D01*
X162584731Y-124021548D01*
X162584738Y-124021548D01*
X162806387Y-123962158D01*
X163018388Y-123874344D01*
X163075032Y-123841640D01*
X163144025Y-123824902D01*
X163211118Y-123848121D01*
X163255006Y-123903928D01*
X163263762Y-123958998D01*
X163262590Y-123976880D01*
X163919206Y-124633496D01*
X163898558Y-124642049D01*
X163767530Y-124729599D01*
X163656099Y-124841030D01*
X163568549Y-124972058D01*
X163559996Y-124992706D01*
X162903380Y-124336090D01*
X162854300Y-124400053D01*
X162742357Y-124593944D01*
X162742352Y-124593953D01*
X162656673Y-124800803D01*
X162598722Y-125017077D01*
X162569500Y-125239049D01*
X162569500Y-125462950D01*
X162598722Y-125684922D01*
X162656673Y-125901196D01*
X162742352Y-126108046D01*
X162742357Y-126108055D01*
X162854300Y-126301946D01*
X162903379Y-126365907D01*
X162903381Y-126365908D01*
X163559995Y-125709293D01*
X163568549Y-125729942D01*
X163656099Y-125860970D01*
X163767530Y-125972401D01*
X163898558Y-126059951D01*
X163919205Y-126068503D01*
X163262590Y-126725118D01*
X163262590Y-126725119D01*
X163326552Y-126774199D01*
X163520444Y-126886142D01*
X163520453Y-126886147D01*
X163727303Y-126971826D01*
X163943577Y-127029777D01*
X164165549Y-127058999D01*
X164165559Y-127059000D01*
X164389441Y-127059000D01*
X164389450Y-127058999D01*
X164611422Y-127029777D01*
X164827696Y-126971826D01*
X165034546Y-126886147D01*
X165034555Y-126886142D01*
X165228453Y-126774195D01*
X165292408Y-126725118D01*
X164635794Y-126068503D01*
X164656442Y-126059951D01*
X164787470Y-125972401D01*
X164898901Y-125860970D01*
X164986451Y-125729942D01*
X164995003Y-125709293D01*
X165651618Y-126365908D01*
X165700695Y-126301953D01*
X165812642Y-126108055D01*
X165812647Y-126108046D01*
X165898326Y-125901196D01*
X165956277Y-125684922D01*
X165985499Y-125462950D01*
X165985500Y-125462941D01*
X165985500Y-125239059D01*
X165985499Y-125239049D01*
X165956277Y-125017077D01*
X165898326Y-124800803D01*
X165812647Y-124593953D01*
X165812642Y-124593944D01*
X165700699Y-124400052D01*
X165651618Y-124336090D01*
X164995003Y-124992705D01*
X164986451Y-124972058D01*
X164898901Y-124841030D01*
X164787470Y-124729599D01*
X164656442Y-124642049D01*
X164635793Y-124633496D01*
X165292408Y-123976881D01*
X165292407Y-123976879D01*
X165228446Y-123927800D01*
X165034555Y-123815857D01*
X165034546Y-123815852D01*
X164827696Y-123730173D01*
X164611422Y-123672222D01*
X164389450Y-123643000D01*
X164165549Y-123643000D01*
X163943577Y-123672222D01*
X163727303Y-123730173D01*
X163564140Y-123797757D01*
X163493550Y-123805346D01*
X163430063Y-123773566D01*
X163393836Y-123712508D01*
X163396370Y-123641557D01*
X163426825Y-123592254D01*
X163561419Y-123457661D01*
X163701111Y-123275612D01*
X163815844Y-123076888D01*
X163903658Y-122864887D01*
X163963048Y-122643238D01*
X163993000Y-122415734D01*
X163993000Y-122186266D01*
X163963048Y-121958762D01*
X163903658Y-121737113D01*
X163815844Y-121525112D01*
X163815838Y-121525103D01*
X163815837Y-121525099D01*
X163701113Y-121326391D01*
X163701108Y-121326384D01*
X163561426Y-121144347D01*
X163561407Y-121144326D01*
X163399173Y-120982092D01*
X163399152Y-120982073D01*
X163217115Y-120842391D01*
X163217108Y-120842386D01*
X163018400Y-120727662D01*
X163018392Y-120727658D01*
X163018388Y-120727656D01*
X162806387Y-120639842D01*
X162584738Y-120580452D01*
X162584731Y-120580450D01*
X162357236Y-120550500D01*
X162357234Y-120550500D01*
X162127766Y-120550500D01*
X162127763Y-120550500D01*
X161900268Y-120580450D01*
X161678613Y-120639842D01*
X161466610Y-120727657D01*
X161466599Y-120727662D01*
X161267891Y-120842386D01*
X161267884Y-120842391D01*
X161085847Y-120982073D01*
X161085826Y-120982092D01*
X160923592Y-121144326D01*
X160923573Y-121144347D01*
X160783891Y-121326384D01*
X160783886Y-121326391D01*
X160669162Y-121525099D01*
X160669157Y-121525110D01*
X160581342Y-121737113D01*
X160521950Y-121958768D01*
X160492000Y-122186263D01*
X152563000Y-122186263D01*
X152533048Y-121958762D01*
X152473658Y-121737113D01*
X152385844Y-121525112D01*
X152385838Y-121525103D01*
X152385837Y-121525099D01*
X152271113Y-121326391D01*
X152271108Y-121326384D01*
X152131426Y-121144347D01*
X152131407Y-121144326D01*
X151969173Y-120982092D01*
X151969152Y-120982073D01*
X151787115Y-120842391D01*
X151787108Y-120842386D01*
X151588400Y-120727662D01*
X151588392Y-120727658D01*
X151588388Y-120727656D01*
X151376387Y-120639842D01*
X151154738Y-120580452D01*
X151154731Y-120580450D01*
X150927236Y-120550500D01*
X150927234Y-120550500D01*
X150697766Y-120550500D01*
X150697763Y-120550500D01*
X150470268Y-120580450D01*
X150248613Y-120639842D01*
X150036610Y-120727657D01*
X150036599Y-120727662D01*
X149837891Y-120842386D01*
X149837884Y-120842391D01*
X149655847Y-120982073D01*
X149655826Y-120982092D01*
X149493592Y-121144326D01*
X149493573Y-121144347D01*
X149353891Y-121326384D01*
X149353886Y-121326391D01*
X149239162Y-121525099D01*
X149239157Y-121525110D01*
X149151342Y-121737113D01*
X149091950Y-121958768D01*
X149062000Y-122186263D01*
X149062000Y-122415736D01*
X149091950Y-122643231D01*
X149091952Y-122643238D01*
X149151342Y-122864887D01*
X149239156Y-123076888D01*
X149239157Y-123076889D01*
X149239162Y-123076900D01*
X149353886Y-123275608D01*
X149353891Y-123275615D01*
X149493573Y-123457652D01*
X149493592Y-123457673D01*
X149628172Y-123592253D01*
X149662198Y-123654565D01*
X149657133Y-123725380D01*
X149614586Y-123782216D01*
X149548066Y-123807027D01*
X149490859Y-123797757D01*
X149327696Y-123730173D01*
X149111422Y-123672222D01*
X148889450Y-123643000D01*
X148665549Y-123643000D01*
X148443577Y-123672222D01*
X148227303Y-123730173D01*
X148020453Y-123815852D01*
X148020444Y-123815857D01*
X147826553Y-123927800D01*
X147762590Y-123976880D01*
X148419206Y-124633496D01*
X148398558Y-124642049D01*
X148267530Y-124729599D01*
X148156099Y-124841030D01*
X148068549Y-124972058D01*
X148059996Y-124992706D01*
X147403380Y-124336090D01*
X147354300Y-124400053D01*
X147242357Y-124593944D01*
X147242352Y-124593953D01*
X147156673Y-124800803D01*
X147098722Y-125017077D01*
X147069500Y-125239049D01*
X146300499Y-125239049D01*
X146271277Y-125017077D01*
X146213326Y-124800803D01*
X146127647Y-124593953D01*
X146127642Y-124593944D01*
X146015699Y-124400052D01*
X145966618Y-124336090D01*
X145310003Y-124992705D01*
X145301451Y-124972058D01*
X145213901Y-124841030D01*
X145102470Y-124729599D01*
X144971442Y-124642049D01*
X144950793Y-124633496D01*
X145607408Y-123976881D01*
X145607407Y-123976879D01*
X145543446Y-123927800D01*
X145349555Y-123815857D01*
X145349546Y-123815852D01*
X145142696Y-123730173D01*
X144926422Y-123672222D01*
X144704450Y-123643000D01*
X144480549Y-123643000D01*
X144258577Y-123672222D01*
X144042303Y-123730173D01*
X143879140Y-123797757D01*
X143808550Y-123805346D01*
X143745063Y-123773566D01*
X143708836Y-123712508D01*
X143711370Y-123641557D01*
X143741825Y-123592254D01*
X143876419Y-123457661D01*
X144016111Y-123275612D01*
X144130844Y-123076888D01*
X144218658Y-122864887D01*
X144278048Y-122643238D01*
X144308000Y-122415734D01*
X144308000Y-122186266D01*
X144278048Y-121958762D01*
X144218658Y-121737113D01*
X144130844Y-121525112D01*
X144130838Y-121525103D01*
X144130837Y-121525099D01*
X144016113Y-121326391D01*
X144016108Y-121326384D01*
X143876426Y-121144347D01*
X143876407Y-121144326D01*
X143714173Y-120982092D01*
X143714152Y-120982073D01*
X143532115Y-120842391D01*
X143532108Y-120842386D01*
X143333400Y-120727662D01*
X143333392Y-120727658D01*
X143333388Y-120727656D01*
X143121387Y-120639842D01*
X142899738Y-120580452D01*
X142899731Y-120580450D01*
X142672236Y-120550500D01*
X142672234Y-120550500D01*
X142442766Y-120550500D01*
X142442763Y-120550500D01*
X142215268Y-120580450D01*
X141993613Y-120639842D01*
X141781610Y-120727657D01*
X141781599Y-120727662D01*
X141582891Y-120842386D01*
X141582884Y-120842391D01*
X141400847Y-120982073D01*
X141400826Y-120982092D01*
X141238592Y-121144326D01*
X141238573Y-121144347D01*
X141098891Y-121326384D01*
X141098886Y-121326391D01*
X140984162Y-121525099D01*
X140984157Y-121525110D01*
X140896342Y-121737113D01*
X140836950Y-121958768D01*
X140807000Y-122186263D01*
X132878000Y-122186263D01*
X132848048Y-121958762D01*
X132788658Y-121737113D01*
X132700844Y-121525112D01*
X132700838Y-121525103D01*
X132700837Y-121525099D01*
X132586113Y-121326391D01*
X132586108Y-121326384D01*
X132446426Y-121144347D01*
X132446407Y-121144326D01*
X132284173Y-120982092D01*
X132284152Y-120982073D01*
X132102115Y-120842391D01*
X132102108Y-120842386D01*
X131903400Y-120727662D01*
X131903392Y-120727658D01*
X131903388Y-120727656D01*
X131691387Y-120639842D01*
X131469738Y-120580452D01*
X131469731Y-120580450D01*
X131242236Y-120550500D01*
X131242234Y-120550500D01*
X131012766Y-120550500D01*
X131012763Y-120550500D01*
X130785268Y-120580450D01*
X130563613Y-120639842D01*
X130351610Y-120727657D01*
X130351599Y-120727662D01*
X130152891Y-120842386D01*
X130152884Y-120842391D01*
X129970847Y-120982073D01*
X129970826Y-120982092D01*
X129808592Y-121144326D01*
X129808573Y-121144347D01*
X129668891Y-121326384D01*
X129668886Y-121326391D01*
X129554162Y-121525099D01*
X129554157Y-121525110D01*
X129466342Y-121737113D01*
X129406950Y-121958768D01*
X129377000Y-122186263D01*
X129377000Y-122415736D01*
X129406950Y-122643231D01*
X129406952Y-122643238D01*
X129466342Y-122864887D01*
X129554156Y-123076888D01*
X129554157Y-123076889D01*
X129554162Y-123076900D01*
X129668886Y-123275608D01*
X129668891Y-123275615D01*
X129808573Y-123457652D01*
X129808592Y-123457673D01*
X129943172Y-123592253D01*
X129977198Y-123654565D01*
X129972133Y-123725380D01*
X129929586Y-123782216D01*
X129863066Y-123807027D01*
X129805859Y-123797757D01*
X129642696Y-123730173D01*
X129426422Y-123672222D01*
X129204450Y-123643000D01*
X128980549Y-123643000D01*
X128758577Y-123672222D01*
X128542303Y-123730173D01*
X128335453Y-123815852D01*
X128335444Y-123815857D01*
X128141553Y-123927800D01*
X128077590Y-123976880D01*
X128734206Y-124633496D01*
X128713558Y-124642049D01*
X128582530Y-124729599D01*
X128471099Y-124841030D01*
X128383549Y-124972058D01*
X128374996Y-124992706D01*
X127718380Y-124336090D01*
X127669300Y-124400053D01*
X127557357Y-124593944D01*
X127557352Y-124593953D01*
X127471673Y-124800803D01*
X127413722Y-125017077D01*
X127384500Y-125239049D01*
X126238500Y-125239049D01*
X126238500Y-115198350D01*
X131185000Y-115198350D01*
X131185000Y-116703649D01*
X131191509Y-116764196D01*
X131191511Y-116764204D01*
X131242610Y-116901202D01*
X131242612Y-116901207D01*
X131330238Y-117018261D01*
X131447292Y-117105887D01*
X131447294Y-117105888D01*
X131447296Y-117105889D01*
X131506375Y-117127924D01*
X131584295Y-117156988D01*
X131584303Y-117156990D01*
X131644850Y-117163499D01*
X131644855Y-117163499D01*
X131644862Y-117163500D01*
X131644868Y-117163500D01*
X133150132Y-117163500D01*
X133150138Y-117163500D01*
X133150145Y-117163499D01*
X133150149Y-117163499D01*
X133210696Y-117156990D01*
X133210699Y-117156989D01*
X133210701Y-117156989D01*
X133347704Y-117105889D01*
X133373958Y-117086236D01*
X133464761Y-117018261D01*
X133552387Y-116901207D01*
X133552387Y-116901206D01*
X133552389Y-116901204D01*
X133603489Y-116764201D01*
X133605995Y-116740896D01*
X133609999Y-116703649D01*
X133610000Y-116703632D01*
X133610000Y-116540122D01*
X133630002Y-116472001D01*
X133683658Y-116425508D01*
X133753932Y-116415404D01*
X133818512Y-116444898D01*
X133848267Y-116482920D01*
X133900904Y-116586227D01*
X133918643Y-116610643D01*
X133918644Y-116610643D01*
X134494166Y-116035121D01*
X134518167Y-116124694D01*
X134577410Y-116227306D01*
X134661194Y-116311090D01*
X134763806Y-116370333D01*
X134853375Y-116394333D01*
X134277855Y-116969853D01*
X134277855Y-116969855D01*
X134302268Y-116987593D01*
X134472251Y-117074203D01*
X134472257Y-117074206D01*
X134653684Y-117133155D01*
X134842116Y-117163000D01*
X135032884Y-117163000D01*
X135221315Y-117133155D01*
X135402742Y-117074206D01*
X135402748Y-117074203D01*
X135572730Y-116987593D01*
X135597143Y-116969855D01*
X135597143Y-116969854D01*
X135021623Y-116394333D01*
X135111194Y-116370333D01*
X135213806Y-116311090D01*
X135297590Y-116227306D01*
X135356833Y-116124694D01*
X135380833Y-116035123D01*
X135956353Y-116610643D01*
X135956355Y-116610643D01*
X135974093Y-116586230D01*
X136060703Y-116416248D01*
X136060706Y-116416242D01*
X136087404Y-116334074D01*
X136127477Y-116275468D01*
X136192874Y-116247831D01*
X136262830Y-116259938D01*
X136315137Y-116307944D01*
X136327070Y-116334073D01*
X136353832Y-116416438D01*
X136440477Y-116586488D01*
X136552657Y-116740891D01*
X136552659Y-116740893D01*
X136552661Y-116740896D01*
X136687603Y-116875838D01*
X136687606Y-116875840D01*
X136687609Y-116875843D01*
X136842012Y-116988023D01*
X137012062Y-117074668D01*
X137193572Y-117133644D01*
X137382074Y-117163500D01*
X137382077Y-117163500D01*
X137572923Y-117163500D01*
X137572926Y-117163500D01*
X137761428Y-117133644D01*
X137942938Y-117074668D01*
X138112988Y-116988023D01*
X138267391Y-116875843D01*
X138402343Y-116740891D01*
X138514523Y-116586488D01*
X138601168Y-116416438D01*
X138627667Y-116334881D01*
X138667741Y-116276276D01*
X138733137Y-116248639D01*
X138803094Y-116260746D01*
X138855400Y-116308752D01*
X138867333Y-116334882D01*
X138889342Y-116402621D01*
X138893832Y-116416438D01*
X138980477Y-116586488D01*
X139092657Y-116740891D01*
X139092659Y-116740893D01*
X139092661Y-116740896D01*
X139227603Y-116875838D01*
X139227606Y-116875840D01*
X139227609Y-116875843D01*
X139382012Y-116988023D01*
X139552062Y-117074668D01*
X139733572Y-117133644D01*
X139922074Y-117163500D01*
X139922077Y-117163500D01*
X140112923Y-117163500D01*
X140112926Y-117163500D01*
X140301428Y-117133644D01*
X140373900Y-117110095D01*
X140444865Y-117108068D01*
X140501930Y-117140834D01*
X140858929Y-117497833D01*
X140947167Y-117586071D01*
X141050925Y-117655400D01*
X141166215Y-117703155D01*
X141288606Y-117727500D01*
X141288607Y-117727500D01*
X158812393Y-117727500D01*
X158812394Y-117727500D01*
X158934785Y-117703155D01*
X159050075Y-117655400D01*
X159153833Y-117586071D01*
X159539498Y-117200404D01*
X159601811Y-117166380D01*
X159628594Y-117163500D01*
X159797923Y-117163500D01*
X159797926Y-117163500D01*
X159986428Y-117133644D01*
X160167938Y-117074668D01*
X160337988Y-116988023D01*
X160492391Y-116875843D01*
X160627343Y-116740891D01*
X160739523Y-116586488D01*
X160826168Y-116416438D01*
X160885144Y-116234928D01*
X160915000Y-116046426D01*
X160915000Y-115855574D01*
X160885144Y-115667072D01*
X160826168Y-115485562D01*
X160739523Y-115315512D01*
X160627343Y-115161109D01*
X160627340Y-115161106D01*
X160627338Y-115161103D01*
X160492396Y-115026161D01*
X160492393Y-115026159D01*
X160492391Y-115026157D01*
X160362993Y-114932144D01*
X160337991Y-114913979D01*
X160337990Y-114913978D01*
X160337988Y-114913977D01*
X160167938Y-114827332D01*
X160167935Y-114827331D01*
X160167933Y-114827330D01*
X159986433Y-114768357D01*
X159986429Y-114768356D01*
X159986428Y-114768356D01*
X159797926Y-114738500D01*
X159607074Y-114738500D01*
X159418572Y-114768356D01*
X159418566Y-114768357D01*
X159237066Y-114827330D01*
X159237060Y-114827333D01*
X159067008Y-114913979D01*
X158912606Y-115026159D01*
X158912603Y-115026161D01*
X158777661Y-115161103D01*
X158777659Y-115161106D01*
X158665479Y-115315508D01*
X158578833Y-115485560D01*
X158578832Y-115485563D01*
X158552333Y-115567118D01*
X158512259Y-115625723D01*
X158446862Y-115653360D01*
X158376906Y-115641253D01*
X158324600Y-115593247D01*
X158312667Y-115567118D01*
X158301148Y-115531667D01*
X158286168Y-115485562D01*
X158199523Y-115315512D01*
X158087343Y-115161109D01*
X158087340Y-115161106D01*
X158087338Y-115161103D01*
X157952396Y-115026161D01*
X157952393Y-115026159D01*
X157952391Y-115026157D01*
X157822993Y-114932144D01*
X157797991Y-114913979D01*
X157797990Y-114913978D01*
X157797988Y-114913977D01*
X157627938Y-114827332D01*
X157627935Y-114827331D01*
X157627933Y-114827330D01*
X157446433Y-114768357D01*
X157446429Y-114768356D01*
X157446428Y-114768356D01*
X157257926Y-114738500D01*
X157067074Y-114738500D01*
X156878572Y-114768356D01*
X156878566Y-114768357D01*
X156697066Y-114827330D01*
X156697060Y-114827333D01*
X156527008Y-114913979D01*
X156372606Y-115026159D01*
X156372603Y-115026161D01*
X156237661Y-115161103D01*
X156237659Y-115161106D01*
X156125479Y-115315508D01*
X156038833Y-115485560D01*
X156038832Y-115485563D01*
X156012070Y-115567926D01*
X155971996Y-115626532D01*
X155906599Y-115654168D01*
X155836642Y-115642061D01*
X155784336Y-115594054D01*
X155772404Y-115567925D01*
X155745706Y-115485757D01*
X155745703Y-115485751D01*
X155659093Y-115315768D01*
X155641355Y-115291355D01*
X155641353Y-115291355D01*
X155065833Y-115866875D01*
X155041833Y-115777306D01*
X154982590Y-115674694D01*
X154898806Y-115590910D01*
X154796194Y-115531667D01*
X154706622Y-115507666D01*
X155282143Y-114932144D01*
X155282143Y-114932143D01*
X155257730Y-114914406D01*
X155087748Y-114827796D01*
X155087742Y-114827793D01*
X154906315Y-114768844D01*
X154717884Y-114739000D01*
X154527116Y-114739000D01*
X154338684Y-114768844D01*
X154157257Y-114827793D01*
X154157245Y-114827798D01*
X153987280Y-114914399D01*
X153987268Y-114914407D01*
X153962854Y-114932144D01*
X154538376Y-115507666D01*
X154448806Y-115531667D01*
X154346194Y-115590910D01*
X154262410Y-115674694D01*
X154203167Y-115777306D01*
X154179166Y-115866876D01*
X153603643Y-115291354D01*
X153585907Y-115315768D01*
X153585902Y-115315775D01*
X153533267Y-115419079D01*
X153484519Y-115470694D01*
X153415604Y-115487760D01*
X153348402Y-115464859D01*
X153304250Y-115409262D01*
X153295000Y-115361876D01*
X153295000Y-115198367D01*
X153294999Y-115198350D01*
X153288490Y-115137803D01*
X153288488Y-115137795D01*
X153251434Y-115038450D01*
X153251432Y-115038447D01*
X153237389Y-115000796D01*
X153149761Y-114883739D01*
X153142522Y-114878320D01*
X153131967Y-114862801D01*
X153124579Y-114839869D01*
X153113032Y-114818723D01*
X153113892Y-114806697D01*
X153110196Y-114795225D01*
X153116378Y-114771941D01*
X153118097Y-114747908D01*
X153126041Y-114735547D01*
X153128415Y-114726606D01*
X153136578Y-114719150D01*
X153147058Y-114702845D01*
X153189498Y-114660405D01*
X153251810Y-114626379D01*
X153278593Y-114623500D01*
X153447923Y-114623500D01*
X153447926Y-114623500D01*
X153636428Y-114593644D01*
X153817938Y-114534668D01*
X153987988Y-114448023D01*
X154142391Y-114335843D01*
X154277343Y-114200891D01*
X154389523Y-114046488D01*
X154476168Y-113876438D01*
X154502667Y-113794881D01*
X154542741Y-113736276D01*
X154608137Y-113708639D01*
X154678094Y-113720746D01*
X154730400Y-113768752D01*
X154742333Y-113794882D01*
X154759215Y-113846842D01*
X154768832Y-113876438D01*
X154855477Y-114046488D01*
X154967657Y-114200891D01*
X154967659Y-114200893D01*
X154967661Y-114200896D01*
X155102603Y-114335838D01*
X155102606Y-114335840D01*
X155102609Y-114335843D01*
X155257012Y-114448023D01*
X155427062Y-114534668D01*
X155608572Y-114593644D01*
X155797074Y-114623500D01*
X155797077Y-114623500D01*
X155987923Y-114623500D01*
X155987926Y-114623500D01*
X156176428Y-114593644D01*
X156357938Y-114534668D01*
X156527988Y-114448023D01*
X156682391Y-114335843D01*
X156817343Y-114200891D01*
X156929523Y-114046488D01*
X157016168Y-113876438D01*
X157042667Y-113794881D01*
X157082741Y-113736276D01*
X157148137Y-113708639D01*
X157218094Y-113720746D01*
X157270400Y-113768752D01*
X157282333Y-113794882D01*
X157299215Y-113846842D01*
X157308832Y-113876438D01*
X157395477Y-114046488D01*
X157507657Y-114200891D01*
X157507659Y-114200893D01*
X157507661Y-114200896D01*
X157642603Y-114335838D01*
X157642606Y-114335840D01*
X157642609Y-114335843D01*
X157797012Y-114448023D01*
X157967062Y-114534668D01*
X158148572Y-114593644D01*
X158337074Y-114623500D01*
X158337077Y-114623500D01*
X158527923Y-114623500D01*
X158527926Y-114623500D01*
X158716428Y-114593644D01*
X158897938Y-114534668D01*
X159067988Y-114448023D01*
X159222391Y-114335843D01*
X159357343Y-114200891D01*
X159469523Y-114046488D01*
X159556168Y-113876438D01*
X159582667Y-113794881D01*
X159622741Y-113736276D01*
X159688137Y-113708639D01*
X159758094Y-113720746D01*
X159810400Y-113768752D01*
X159822333Y-113794882D01*
X159839215Y-113846842D01*
X159848832Y-113876438D01*
X159935477Y-114046488D01*
X160047657Y-114200891D01*
X160047659Y-114200893D01*
X160047661Y-114200896D01*
X160182603Y-114335838D01*
X160182606Y-114335840D01*
X160182609Y-114335843D01*
X160337012Y-114448023D01*
X160507062Y-114534668D01*
X160688572Y-114593644D01*
X160877074Y-114623500D01*
X160877077Y-114623500D01*
X161067923Y-114623500D01*
X161067926Y-114623500D01*
X161256428Y-114593644D01*
X161437938Y-114534668D01*
X161607988Y-114448023D01*
X161762391Y-114335843D01*
X161897343Y-114200891D01*
X162009523Y-114046488D01*
X162096168Y-113876438D01*
X162155144Y-113694928D01*
X162185000Y-113506426D01*
X162185000Y-113315574D01*
X162155144Y-113127072D01*
X162096168Y-112945562D01*
X162009523Y-112775512D01*
X161897343Y-112621109D01*
X161897340Y-112621106D01*
X161897338Y-112621103D01*
X161762396Y-112486161D01*
X161762393Y-112486159D01*
X161762391Y-112486157D01*
X161607988Y-112373977D01*
X161437938Y-112287332D01*
X161437935Y-112287331D01*
X161437933Y-112287330D01*
X161256433Y-112228357D01*
X161256429Y-112228356D01*
X161256428Y-112228356D01*
X161067926Y-112198500D01*
X160898594Y-112198500D01*
X160830473Y-112178498D01*
X160809499Y-112161595D01*
X160423835Y-111775931D01*
X160423833Y-111775929D01*
X160320075Y-111706600D01*
X160204785Y-111658845D01*
X160131086Y-111644185D01*
X160082396Y-111634500D01*
X160082394Y-111634500D01*
X142683394Y-111634500D01*
X142558606Y-111634500D01*
X142558603Y-111634500D01*
X142485568Y-111649028D01*
X142436215Y-111658845D01*
X142436213Y-111658845D01*
X142436212Y-111658846D01*
X142320923Y-111706601D01*
X142217171Y-111775926D01*
X142217169Y-111775927D01*
X141771929Y-112221165D01*
X141709617Y-112255190D01*
X141643899Y-112251902D01*
X141571436Y-112228358D01*
X141571435Y-112228357D01*
X141526026Y-112221165D01*
X141382926Y-112198500D01*
X141192074Y-112198500D01*
X141003572Y-112228356D01*
X141003566Y-112228357D01*
X140822066Y-112287330D01*
X140822060Y-112287333D01*
X140652008Y-112373979D01*
X140497606Y-112486159D01*
X140497603Y-112486161D01*
X140362661Y-112621103D01*
X140362659Y-112621106D01*
X140250479Y-112775508D01*
X140250477Y-112775512D01*
X140163832Y-112945562D01*
X140137333Y-113027118D01*
X140097259Y-113085723D01*
X140031862Y-113113360D01*
X139961906Y-113101253D01*
X139909600Y-113053247D01*
X139897667Y-113027118D01*
X139871168Y-112945562D01*
X139784523Y-112775512D01*
X139672343Y-112621109D01*
X139672340Y-112621106D01*
X139672338Y-112621103D01*
X139537396Y-112486161D01*
X139537393Y-112486159D01*
X139537391Y-112486157D01*
X139382988Y-112373977D01*
X139212938Y-112287332D01*
X139212935Y-112287331D01*
X139212933Y-112287330D01*
X139031433Y-112228357D01*
X139031429Y-112228356D01*
X139031428Y-112228356D01*
X138842926Y-112198500D01*
X138652074Y-112198500D01*
X138463572Y-112228356D01*
X138463566Y-112228357D01*
X138282066Y-112287330D01*
X138282060Y-112287333D01*
X138112008Y-112373979D01*
X137957606Y-112486159D01*
X137957603Y-112486161D01*
X137822661Y-112621103D01*
X137822659Y-112621106D01*
X137710479Y-112775508D01*
X137710477Y-112775512D01*
X137623832Y-112945562D01*
X137597333Y-113027118D01*
X137557259Y-113085723D01*
X137491862Y-113113360D01*
X137421906Y-113101253D01*
X137369600Y-113053247D01*
X137357667Y-113027118D01*
X137331168Y-112945562D01*
X137244523Y-112775512D01*
X137132343Y-112621109D01*
X137132340Y-112621106D01*
X137132338Y-112621103D01*
X136997396Y-112486161D01*
X136997393Y-112486159D01*
X136997391Y-112486157D01*
X136842988Y-112373977D01*
X136672938Y-112287332D01*
X136672935Y-112287331D01*
X136672933Y-112287330D01*
X136491433Y-112228357D01*
X136491429Y-112228356D01*
X136491428Y-112228356D01*
X136302926Y-112198500D01*
X136112074Y-112198500D01*
X135923572Y-112228356D01*
X135923566Y-112228357D01*
X135742066Y-112287330D01*
X135742060Y-112287333D01*
X135572008Y-112373979D01*
X135417606Y-112486159D01*
X135417603Y-112486161D01*
X135282661Y-112621103D01*
X135282659Y-112621106D01*
X135170479Y-112775508D01*
X135170477Y-112775512D01*
X135083832Y-112945562D01*
X135057333Y-113027118D01*
X135017259Y-113085723D01*
X134951862Y-113113360D01*
X134881906Y-113101253D01*
X134829600Y-113053247D01*
X134817667Y-113027118D01*
X134791168Y-112945562D01*
X134704523Y-112775512D01*
X134592343Y-112621109D01*
X134592340Y-112621106D01*
X134592338Y-112621103D01*
X134457396Y-112486161D01*
X134457393Y-112486159D01*
X134457391Y-112486157D01*
X134302988Y-112373977D01*
X134132938Y-112287332D01*
X134132935Y-112287331D01*
X134132933Y-112287330D01*
X133951433Y-112228357D01*
X133951429Y-112228356D01*
X133951428Y-112228356D01*
X133762926Y-112198500D01*
X133572074Y-112198500D01*
X133383572Y-112228356D01*
X133383566Y-112228357D01*
X133202066Y-112287330D01*
X133202060Y-112287333D01*
X133032008Y-112373979D01*
X132877606Y-112486159D01*
X132877603Y-112486161D01*
X132742661Y-112621103D01*
X132742659Y-112621106D01*
X132630479Y-112775508D01*
X132543833Y-112945560D01*
X132543830Y-112945566D01*
X132484857Y-113127066D01*
X132484857Y-113127068D01*
X132484856Y-113127072D01*
X132455000Y-113315574D01*
X132455000Y-113506426D01*
X132482414Y-113679510D01*
X132484857Y-113694933D01*
X132543830Y-113876433D01*
X132543832Y-113876438D01*
X132630477Y-114046488D01*
X132742657Y-114200891D01*
X132742659Y-114200893D01*
X132742661Y-114200896D01*
X132877603Y-114335838D01*
X132877606Y-114335840D01*
X132877609Y-114335843D01*
X133032012Y-114448023D01*
X133134482Y-114500234D01*
X133186096Y-114548981D01*
X133203162Y-114617896D01*
X133180261Y-114685098D01*
X133124664Y-114729250D01*
X133077278Y-114738500D01*
X131644850Y-114738500D01*
X131584303Y-114745009D01*
X131584295Y-114745011D01*
X131447297Y-114796110D01*
X131447292Y-114796112D01*
X131330238Y-114883738D01*
X131242612Y-115000792D01*
X131242610Y-115000797D01*
X131191511Y-115137795D01*
X131191509Y-115137803D01*
X131185000Y-115198350D01*
X126238500Y-115198350D01*
X126238500Y-100706905D01*
X126258502Y-100638784D01*
X126312158Y-100592291D01*
X126382432Y-100582187D01*
X126412719Y-100590496D01*
X126479562Y-100618183D01*
X126479561Y-100618183D01*
X126664641Y-100654999D01*
X126664645Y-100655000D01*
X126905000Y-100655000D01*
X126905000Y-99997000D01*
X127413000Y-99997000D01*
X127413000Y-100655000D01*
G37*
%TD.AperFunction*%
%TA.AperFunction,Conductor*%
G36*
X167073621Y-71013502D02*
G01*
X167120114Y-71067158D01*
X167131500Y-71119500D01*
X167131500Y-73401000D01*
X167111498Y-73469121D01*
X167057842Y-73515614D01*
X167005500Y-73527000D01*
X164152725Y-73527000D01*
X164089725Y-73510119D01*
X163888224Y-73393782D01*
X163888216Y-73393778D01*
X163888212Y-73393776D01*
X163664100Y-73300946D01*
X163664097Y-73300945D01*
X163664095Y-73300944D01*
X163429782Y-73238160D01*
X163189290Y-73206500D01*
X163189288Y-73206500D01*
X162946712Y-73206500D01*
X162946709Y-73206500D01*
X162706217Y-73238160D01*
X162471904Y-73300944D01*
X162471900Y-73300946D01*
X162247786Y-73393777D01*
X162247775Y-73393782D01*
X162046275Y-73510119D01*
X161983275Y-73527000D01*
X140940000Y-73527000D01*
X140940000Y-84307000D01*
X167005500Y-84307000D01*
X167073621Y-84327002D01*
X167120114Y-84380658D01*
X167131500Y-84433000D01*
X167131500Y-103990180D01*
X167111498Y-104058301D01*
X167057842Y-104104794D01*
X166987568Y-104114898D01*
X166922988Y-104085404D01*
X166900735Y-104060182D01*
X166853961Y-103990180D01*
X166821678Y-103941865D01*
X166695135Y-103815322D01*
X166546336Y-103715898D01*
X166382246Y-103647929D01*
X166381003Y-103647414D01*
X166381001Y-103647413D01*
X166381000Y-103647413D01*
X166292645Y-103629838D01*
X166205481Y-103612500D01*
X166205479Y-103612500D01*
X166113500Y-103612500D01*
X166045379Y-103592498D01*
X165998886Y-103538842D01*
X165987500Y-103486500D01*
X165987500Y-93794503D01*
X166007502Y-93726382D01*
X166024405Y-93705408D01*
X166059678Y-93670135D01*
X166159102Y-93521336D01*
X166227587Y-93356000D01*
X166262500Y-93180479D01*
X166262500Y-93001521D01*
X166227587Y-92826000D01*
X166159102Y-92660664D01*
X166059678Y-92511865D01*
X165933135Y-92385322D01*
X165784336Y-92285898D01*
X165667265Y-92237405D01*
X165619003Y-92217414D01*
X165619001Y-92217413D01*
X165619000Y-92217413D01*
X165530645Y-92199838D01*
X165443481Y-92182500D01*
X165443479Y-92182500D01*
X165264521Y-92182500D01*
X165264518Y-92182500D01*
X165133771Y-92208507D01*
X165089000Y-92217413D01*
X165088999Y-92217413D01*
X165088996Y-92217414D01*
X164923662Y-92285899D01*
X164774869Y-92385319D01*
X164774862Y-92385324D01*
X164648324Y-92511862D01*
X164648319Y-92511869D01*
X164548899Y-92660662D01*
X164480414Y-92825996D01*
X164445500Y-93001518D01*
X164445500Y-93001521D01*
X164445500Y-93180479D01*
X164480413Y-93356000D01*
X164548898Y-93521336D01*
X164648322Y-93670135D01*
X164648324Y-93670137D01*
X164683595Y-93705408D01*
X164717621Y-93767720D01*
X164720500Y-93794503D01*
X164720500Y-103491991D01*
X164700498Y-103560112D01*
X164646842Y-103606605D01*
X164576568Y-103616709D01*
X164569923Y-103615571D01*
X164554484Y-103612500D01*
X164554479Y-103612500D01*
X164375521Y-103612500D01*
X164375518Y-103612500D01*
X164199994Y-103647414D01*
X164060276Y-103705288D01*
X163989686Y-103712877D01*
X163926199Y-103681098D01*
X163895649Y-103637097D01*
X163887204Y-103616709D01*
X163873102Y-103582664D01*
X163773678Y-103433865D01*
X163647135Y-103307322D01*
X163498336Y-103207898D01*
X163381265Y-103159405D01*
X163333003Y-103139414D01*
X163333001Y-103139413D01*
X163333000Y-103139413D01*
X163244645Y-103121838D01*
X163157481Y-103104500D01*
X163157479Y-103104500D01*
X162978521Y-103104500D01*
X162978518Y-103104500D01*
X162873554Y-103125379D01*
X162803000Y-103139413D01*
X162802999Y-103139413D01*
X162802996Y-103139414D01*
X162637662Y-103207899D01*
X162488869Y-103307319D01*
X162488862Y-103307324D01*
X162453592Y-103342595D01*
X162391280Y-103376621D01*
X162364497Y-103379500D01*
X145224503Y-103379500D01*
X145202915Y-103373161D01*
X145180471Y-103371556D01*
X145169514Y-103363354D01*
X145156382Y-103359498D01*
X145141646Y-103342492D01*
X145123635Y-103329009D01*
X145118852Y-103316186D01*
X145109889Y-103305842D01*
X145106686Y-103283569D01*
X145098824Y-103262489D01*
X145101732Y-103249116D01*
X145099785Y-103235568D01*
X145109132Y-103215101D01*
X145113915Y-103193115D01*
X145127400Y-103175101D01*
X145129279Y-103170988D01*
X145135408Y-103164405D01*
X145140408Y-103159405D01*
X145202720Y-103125379D01*
X145229503Y-103122500D01*
X148398393Y-103122500D01*
X148398394Y-103122500D01*
X148520785Y-103098155D01*
X148636075Y-103050400D01*
X148739833Y-102981071D01*
X150593499Y-101127405D01*
X150655811Y-101093379D01*
X150682594Y-101090500D01*
X157034393Y-101090500D01*
X157034394Y-101090500D01*
X157156785Y-101066155D01*
X157272075Y-101018400D01*
X157375833Y-100949071D01*
X160986499Y-97338405D01*
X161048811Y-97304379D01*
X161075594Y-97301500D01*
X161125478Y-97301500D01*
X161125479Y-97301500D01*
X161301000Y-97266587D01*
X161466336Y-97198102D01*
X161615135Y-97098678D01*
X161741678Y-96972135D01*
X161841102Y-96823336D01*
X161909587Y-96658000D01*
X161944500Y-96482479D01*
X161944500Y-96303521D01*
X161909587Y-96128000D01*
X161841102Y-95962664D01*
X161741678Y-95813865D01*
X161615135Y-95687322D01*
X161466336Y-95587898D01*
X161310867Y-95523500D01*
X161301003Y-95519414D01*
X161301001Y-95519413D01*
X161301000Y-95519413D01*
X161206440Y-95500604D01*
X161125481Y-95484500D01*
X161125479Y-95484500D01*
X160946521Y-95484500D01*
X160946518Y-95484500D01*
X160815771Y-95510507D01*
X160771000Y-95519413D01*
X160770999Y-95519413D01*
X160770996Y-95519414D01*
X160675400Y-95559012D01*
X160605667Y-95587897D01*
X160605662Y-95587899D01*
X160456869Y-95687319D01*
X160456862Y-95687324D01*
X160330324Y-95813862D01*
X160330319Y-95813869D01*
X160230899Y-95962662D01*
X160162414Y-96127996D01*
X160127500Y-96303518D01*
X160127500Y-96353406D01*
X160107498Y-96421527D01*
X160090595Y-96442501D01*
X156746501Y-99786595D01*
X156684189Y-99820621D01*
X156657406Y-99823500D01*
X150305603Y-99823500D01*
X150232568Y-99838028D01*
X150183215Y-99847845D01*
X150183213Y-99847845D01*
X150183212Y-99847846D01*
X150067923Y-99895601D01*
X149964171Y-99964926D01*
X149964164Y-99964931D01*
X148110501Y-101818595D01*
X148048189Y-101852621D01*
X148021406Y-101855500D01*
X145229503Y-101855500D01*
X145161382Y-101835498D01*
X145140408Y-101818595D01*
X145105137Y-101783324D01*
X145105135Y-101783322D01*
X144956336Y-101683898D01*
X144821890Y-101628208D01*
X144791003Y-101615414D01*
X144791001Y-101615413D01*
X144791000Y-101615413D01*
X144702645Y-101597838D01*
X144615481Y-101580500D01*
X144615479Y-101580500D01*
X144436521Y-101580500D01*
X144436518Y-101580500D01*
X144305771Y-101606507D01*
X144261000Y-101615413D01*
X144260999Y-101615413D01*
X144260996Y-101615414D01*
X144129902Y-101669716D01*
X144102096Y-101681234D01*
X144095662Y-101683899D01*
X143946869Y-101783319D01*
X143946862Y-101783324D01*
X143820324Y-101909862D01*
X143820319Y-101909869D01*
X143720899Y-102058662D01*
X143652414Y-102223996D01*
X143617500Y-102399518D01*
X143617500Y-102578481D01*
X143622640Y-102604319D01*
X143652413Y-102754000D01*
X143720898Y-102919336D01*
X143820322Y-103068135D01*
X143820324Y-103068137D01*
X143916592Y-103164405D01*
X143950618Y-103226717D01*
X143945553Y-103297532D01*
X143903006Y-103354368D01*
X143836486Y-103379179D01*
X143827497Y-103379500D01*
X141792594Y-103379500D01*
X141724473Y-103359498D01*
X141703499Y-103342595D01*
X141259405Y-102898501D01*
X141225379Y-102836189D01*
X141222500Y-102809406D01*
X141222500Y-100267607D01*
X141222499Y-100267603D01*
X141198155Y-100145215D01*
X141160962Y-100055423D01*
X141150401Y-100029925D01*
X141081072Y-99926167D01*
X140899405Y-99744500D01*
X140865379Y-99682188D01*
X140862500Y-99655405D01*
X140862500Y-99605522D01*
X140862499Y-99605518D01*
X140857663Y-99581204D01*
X140827587Y-99430000D01*
X140759102Y-99264664D01*
X140659678Y-99115865D01*
X140533135Y-98989322D01*
X140384336Y-98889898D01*
X140267429Y-98841473D01*
X140219003Y-98821414D01*
X140219001Y-98821413D01*
X140219000Y-98821413D01*
X140128960Y-98803503D01*
X140043481Y-98786500D01*
X140043479Y-98786500D01*
X139864521Y-98786500D01*
X139864518Y-98786500D01*
X139733771Y-98812507D01*
X139689000Y-98821413D01*
X139688999Y-98821413D01*
X139688996Y-98821414D01*
X139523662Y-98889899D01*
X139374869Y-98989319D01*
X139374862Y-98989324D01*
X139248324Y-99115862D01*
X139248319Y-99115869D01*
X139148897Y-99264664D01*
X139148895Y-99264668D01*
X139089397Y-99408308D01*
X139044849Y-99463589D01*
X138977485Y-99486009D01*
X138908694Y-99468450D01*
X138860316Y-99416488D01*
X138846989Y-99360089D01*
X138846989Y-91406072D01*
X138866991Y-91337951D01*
X138920647Y-91291458D01*
X138990921Y-91281354D01*
X139055501Y-91310848D01*
X139062084Y-91316977D01*
X139804178Y-92059071D01*
X139907936Y-92128400D01*
X140023226Y-92176155D01*
X140145617Y-92200500D01*
X140270405Y-92200500D01*
X160205497Y-92200500D01*
X160273618Y-92220502D01*
X160294592Y-92237405D01*
X160329865Y-92272678D01*
X160478664Y-92372102D01*
X160644000Y-92440587D01*
X160819521Y-92475500D01*
X160819522Y-92475500D01*
X160998478Y-92475500D01*
X160998479Y-92475500D01*
X161174000Y-92440587D01*
X161339336Y-92372102D01*
X161488135Y-92272678D01*
X161614678Y-92146135D01*
X161714102Y-91997336D01*
X161782587Y-91832000D01*
X161817500Y-91656479D01*
X161817500Y-91477521D01*
X161782587Y-91302000D01*
X161714102Y-91136664D01*
X161614678Y-90987865D01*
X161488135Y-90861322D01*
X161339336Y-90761898D01*
X161264521Y-90730908D01*
X161209242Y-90686360D01*
X161186821Y-90618996D01*
X161204380Y-90550205D01*
X161256342Y-90501827D01*
X161264516Y-90498093D01*
X161339336Y-90467102D01*
X161488135Y-90367678D01*
X161614678Y-90241135D01*
X161714102Y-90092336D01*
X161782587Y-89927000D01*
X161817500Y-89751479D01*
X161817500Y-89572521D01*
X161782587Y-89397000D01*
X161714102Y-89231664D01*
X161614678Y-89082865D01*
X161488135Y-88956322D01*
X161339336Y-88856898D01*
X161222429Y-88808473D01*
X161174003Y-88788414D01*
X161174001Y-88788413D01*
X161174000Y-88788413D01*
X161085645Y-88770838D01*
X160998481Y-88753500D01*
X160998479Y-88753500D01*
X160819521Y-88753500D01*
X160819518Y-88753500D01*
X160688771Y-88779507D01*
X160644000Y-88788413D01*
X160643999Y-88788413D01*
X160643996Y-88788414D01*
X160478662Y-88856899D01*
X160329869Y-88956319D01*
X160329862Y-88956324D01*
X160203324Y-89082862D01*
X160203319Y-89082869D01*
X160103897Y-89231664D01*
X160103895Y-89231668D01*
X160062457Y-89331708D01*
X160017909Y-89386989D01*
X159950545Y-89409409D01*
X159946049Y-89409489D01*
X141592748Y-89409489D01*
X141524627Y-89389487D01*
X141478134Y-89335831D01*
X141468030Y-89265557D01*
X141469165Y-89258926D01*
X141497500Y-89116479D01*
X141497500Y-88937521D01*
X141462587Y-88762000D01*
X141394102Y-88596664D01*
X141294678Y-88447865D01*
X141168135Y-88321322D01*
X141019336Y-88221898D01*
X140902429Y-88173473D01*
X140854003Y-88153414D01*
X140854001Y-88153413D01*
X140854000Y-88153413D01*
X140765645Y-88135838D01*
X140678481Y-88118500D01*
X140678479Y-88118500D01*
X140499521Y-88118500D01*
X140499518Y-88118500D01*
X140368771Y-88144507D01*
X140324000Y-88153413D01*
X140323999Y-88153413D01*
X140323996Y-88153414D01*
X140158662Y-88221899D01*
X140009869Y-88321319D01*
X140009862Y-88321324D01*
X139883324Y-88447862D01*
X139883319Y-88447869D01*
X139783898Y-88596664D01*
X139779531Y-88607207D01*
X139734982Y-88662488D01*
X139667619Y-88684909D01*
X139663122Y-88684989D01*
X136806114Y-88684989D01*
X136733079Y-88699517D01*
X136683726Y-88709334D01*
X136683724Y-88709334D01*
X136683723Y-88709335D01*
X136568434Y-88757090D01*
X136464682Y-88826415D01*
X136464675Y-88826420D01*
X136197420Y-89093675D01*
X136197418Y-89093678D01*
X136128089Y-89197436D01*
X136080334Y-89312726D01*
X136075738Y-89335831D01*
X136055989Y-89435114D01*
X136055989Y-90528192D01*
X136059513Y-90545907D01*
X136053185Y-90616621D01*
X136009631Y-90672689D01*
X136005939Y-90675252D01*
X136002914Y-90677273D01*
X136002912Y-90677274D01*
X135876367Y-90803820D01*
X135876366Y-90803822D01*
X135776946Y-90952615D01*
X135708461Y-91117949D01*
X135673547Y-91293471D01*
X135673547Y-91472434D01*
X135708461Y-91647956D01*
X135711992Y-91656481D01*
X135776945Y-91813289D01*
X135876369Y-91962088D01*
X135876371Y-91962090D01*
X135911642Y-91997361D01*
X135945668Y-92059673D01*
X135948547Y-92086456D01*
X135948547Y-94808839D01*
X135944328Y-94823207D01*
X135945087Y-94838165D01*
X135934527Y-94856586D01*
X135928545Y-94876960D01*
X135917226Y-94886767D01*
X135909779Y-94899760D01*
X135890935Y-94909548D01*
X135874889Y-94923453D01*
X135858965Y-94926155D01*
X135846776Y-94932488D01*
X135821872Y-94932452D01*
X135810958Y-94934305D01*
X135804409Y-94933700D01*
X135725479Y-94918000D01*
X135634431Y-94918000D01*
X135628650Y-94917466D01*
X135600834Y-94906429D01*
X135572118Y-94897998D01*
X135564878Y-94892164D01*
X135562658Y-94891283D01*
X135561116Y-94889132D01*
X135551148Y-94881099D01*
X134925127Y-94255078D01*
X134925125Y-94255077D01*
X134925123Y-94255075D01*
X134786377Y-94174970D01*
X134786374Y-94174969D01*
X134786373Y-94174968D01*
X134786371Y-94174967D01*
X134786370Y-94174967D01*
X134708991Y-94154234D01*
X134631611Y-94133500D01*
X134631609Y-94133500D01*
X130886263Y-94133500D01*
X130818142Y-94113498D01*
X130781499Y-94077503D01*
X130753678Y-94035865D01*
X130627135Y-93909322D01*
X130478336Y-93809898D01*
X130315173Y-93742313D01*
X130313003Y-93741414D01*
X130313001Y-93741413D01*
X130313000Y-93741413D01*
X130224645Y-93723838D01*
X130137481Y-93706500D01*
X130137479Y-93706500D01*
X129958521Y-93706500D01*
X129958518Y-93706500D01*
X129827771Y-93732507D01*
X129783000Y-93741413D01*
X129782999Y-93741413D01*
X129782996Y-93741414D01*
X129617662Y-93809899D01*
X129468869Y-93909319D01*
X129468862Y-93909324D01*
X129342324Y-94035862D01*
X129342319Y-94035869D01*
X129242899Y-94184662D01*
X129174414Y-94349996D01*
X129139500Y-94525518D01*
X129139500Y-94525521D01*
X129139500Y-94704479D01*
X129173808Y-94876960D01*
X129174414Y-94880003D01*
X129181868Y-94897998D01*
X129242898Y-95045336D01*
X129342322Y-95194135D01*
X129468865Y-95320678D01*
X129617664Y-95420102D01*
X129783000Y-95488587D01*
X129958521Y-95523500D01*
X129958522Y-95523500D01*
X130137478Y-95523500D01*
X130137479Y-95523500D01*
X130313000Y-95488587D01*
X130478336Y-95420102D01*
X130550722Y-95371734D01*
X130618475Y-95350520D01*
X130620724Y-95350500D01*
X134130784Y-95350500D01*
X134198905Y-95370502D01*
X134245398Y-95424158D01*
X134255502Y-95494432D01*
X134226008Y-95559012D01*
X134194578Y-95584110D01*
X134194811Y-95584459D01*
X134190715Y-95587195D01*
X134190184Y-95587620D01*
X134189664Y-95587897D01*
X134040869Y-95687319D01*
X134040862Y-95687324D01*
X133914324Y-95813862D01*
X133914319Y-95813869D01*
X133814899Y-95962662D01*
X133746414Y-96127996D01*
X133711500Y-96303518D01*
X133711500Y-96303521D01*
X133711500Y-96482479D01*
X133746413Y-96658000D01*
X133814898Y-96823336D01*
X133914322Y-96972135D01*
X134040865Y-97098678D01*
X134189664Y-97198102D01*
X134355000Y-97266587D01*
X134530521Y-97301500D01*
X134647036Y-97301500D01*
X134695254Y-97311091D01*
X134778720Y-97345664D01*
X134778722Y-97345664D01*
X134778726Y-97345666D01*
X134901117Y-97370011D01*
X134901118Y-97370011D01*
X135921362Y-97370011D01*
X135921363Y-97370011D01*
X136043754Y-97345666D01*
X136159044Y-97297911D01*
X136262802Y-97228582D01*
X136565405Y-96925979D01*
X136627717Y-96891953D01*
X136698532Y-96897018D01*
X136755368Y-96939565D01*
X136780179Y-97006085D01*
X136780500Y-97015074D01*
X136780500Y-101085645D01*
X136780500Y-101210433D01*
X136804845Y-101332824D01*
X136852600Y-101448114D01*
X136921929Y-101551872D01*
X136921931Y-101551874D01*
X137051291Y-101681234D01*
X137085317Y-101743546D01*
X137088196Y-101770329D01*
X137088196Y-101820214D01*
X137123109Y-101995735D01*
X137191594Y-102161071D01*
X137291018Y-102309870D01*
X137417561Y-102436413D01*
X137566360Y-102535837D01*
X137731696Y-102604322D01*
X137907217Y-102639235D01*
X137907218Y-102639235D01*
X138086174Y-102639235D01*
X138086175Y-102639235D01*
X138261696Y-102604322D01*
X138324086Y-102578479D01*
X138406102Y-102544507D01*
X138476692Y-102536917D01*
X138540179Y-102568696D01*
X138543416Y-102571820D01*
X138919095Y-102947499D01*
X138953121Y-103009811D01*
X138956000Y-103036594D01*
X138956000Y-103086481D01*
X138966529Y-103139413D01*
X138988350Y-103249116D01*
X138990914Y-103262003D01*
X138999847Y-103283569D01*
X139059398Y-103427336D01*
X139158822Y-103576135D01*
X139285365Y-103702678D01*
X139434164Y-103802102D01*
X139599500Y-103870587D01*
X139775021Y-103905500D01*
X139775022Y-103905500D01*
X139953978Y-103905500D01*
X139953979Y-103905500D01*
X140129500Y-103870587D01*
X140203529Y-103839923D01*
X140271050Y-103811955D01*
X140341640Y-103804365D01*
X140405127Y-103836144D01*
X140408364Y-103839268D01*
X141074167Y-104505071D01*
X141177925Y-104574400D01*
X141293215Y-104622155D01*
X141415606Y-104646500D01*
X141540394Y-104646500D01*
X143065497Y-104646500D01*
X143133618Y-104666502D01*
X143180111Y-104720158D01*
X143190215Y-104790432D01*
X143160721Y-104855012D01*
X143154592Y-104861595D01*
X143058324Y-104957862D01*
X143058319Y-104957869D01*
X142958899Y-105106662D01*
X142890414Y-105271996D01*
X142890413Y-105271999D01*
X142890413Y-105272000D01*
X142886037Y-105294000D01*
X142855500Y-105447518D01*
X142855500Y-105497405D01*
X142835498Y-105565526D01*
X142818599Y-105586495D01*
X142694490Y-105710605D01*
X142631799Y-105773296D01*
X142569487Y-105807321D01*
X142498671Y-105802256D01*
X142453610Y-105773296D01*
X142415088Y-105734775D01*
X142415085Y-105734772D01*
X142266286Y-105635348D01*
X142148360Y-105586501D01*
X142100953Y-105566864D01*
X142100951Y-105566863D01*
X142100950Y-105566863D01*
X142000181Y-105546819D01*
X141925431Y-105531950D01*
X141925429Y-105531950D01*
X141746471Y-105531950D01*
X141746463Y-105531950D01*
X141696297Y-105541929D01*
X141647137Y-105541929D01*
X141629901Y-105538500D01*
X141629894Y-105538500D01*
X139260503Y-105538500D01*
X139192382Y-105518498D01*
X139171408Y-105501595D01*
X139136137Y-105466324D01*
X139136135Y-105466322D01*
X138987336Y-105366898D01*
X138870429Y-105318473D01*
X138822003Y-105298414D01*
X138822001Y-105298413D01*
X138822000Y-105298413D01*
X138715882Y-105277305D01*
X138646481Y-105263500D01*
X138646479Y-105263500D01*
X138467521Y-105263500D01*
X138467518Y-105263500D01*
X138336771Y-105289507D01*
X138292000Y-105298413D01*
X138291999Y-105298413D01*
X138291996Y-105298414D01*
X138126662Y-105366899D01*
X137977869Y-105466319D01*
X137977862Y-105466324D01*
X137942592Y-105501595D01*
X137880280Y-105535621D01*
X137853497Y-105538500D01*
X135760500Y-105538500D01*
X135692379Y-105518498D01*
X135645886Y-105464842D01*
X135634500Y-105412500D01*
X135634500Y-104535002D01*
X135654502Y-104466881D01*
X135708158Y-104420388D01*
X135735915Y-104411423D01*
X135901000Y-104378587D01*
X136066336Y-104310102D01*
X136215135Y-104210678D01*
X136341678Y-104084135D01*
X136441102Y-103935336D01*
X136509587Y-103770000D01*
X136544500Y-103594479D01*
X136544500Y-103415521D01*
X136509587Y-103240000D01*
X136441102Y-103074664D01*
X136341678Y-102925865D01*
X136215135Y-102799322D01*
X136066336Y-102699898D01*
X135919884Y-102639235D01*
X135901003Y-102631414D01*
X135901001Y-102631413D01*
X135901000Y-102631413D01*
X135812645Y-102613838D01*
X135725481Y-102596500D01*
X135725479Y-102596500D01*
X135546521Y-102596500D01*
X135546518Y-102596500D01*
X135415771Y-102622507D01*
X135371000Y-102631413D01*
X135370999Y-102631413D01*
X135370996Y-102631414D01*
X135205662Y-102699899D01*
X135056869Y-102799319D01*
X135056862Y-102799324D01*
X134930324Y-102925862D01*
X134930319Y-102925869D01*
X134835261Y-103068135D01*
X134830898Y-103074664D01*
X134821168Y-103098155D01*
X134762414Y-103239996D01*
X134727500Y-103415518D01*
X134727500Y-103465404D01*
X134707498Y-103533525D01*
X134690596Y-103554499D01*
X134597167Y-103647929D01*
X134508927Y-103736169D01*
X134508926Y-103736171D01*
X134464873Y-103802102D01*
X134439600Y-103839925D01*
X134391845Y-103955215D01*
X134386074Y-103984229D01*
X134367500Y-104077603D01*
X134367500Y-105412500D01*
X134347498Y-105480621D01*
X134293842Y-105527114D01*
X134241500Y-105538500D01*
X130500884Y-105538500D01*
X130432763Y-105518498D01*
X130386270Y-105464842D01*
X130376166Y-105394568D01*
X130384476Y-105364281D01*
X130413584Y-105294007D01*
X130413583Y-105294007D01*
X130413587Y-105294000D01*
X130448500Y-105118479D01*
X130448500Y-104939521D01*
X130413587Y-104764000D01*
X130345102Y-104598664D01*
X130245678Y-104449865D01*
X130119135Y-104323322D01*
X129970336Y-104223898D01*
X129853429Y-104175473D01*
X129805003Y-104155414D01*
X129805001Y-104155413D01*
X129805000Y-104155413D01*
X129716645Y-104137838D01*
X129629481Y-104120500D01*
X129629479Y-104120500D01*
X129579594Y-104120500D01*
X129549678Y-104111716D01*
X129519209Y-104105088D01*
X129514113Y-104101273D01*
X129511473Y-104100498D01*
X129490499Y-104083595D01*
X129453445Y-104046541D01*
X129419419Y-103984229D01*
X129416540Y-103957446D01*
X129416540Y-99443000D01*
X129852756Y-99443000D01*
X130618940Y-99443000D01*
X130594795Y-99456940D01*
X130538940Y-99512795D01*
X130499444Y-99581204D01*
X130479000Y-99657504D01*
X130479000Y-99736496D01*
X130499444Y-99812796D01*
X130538940Y-99881205D01*
X130594795Y-99937060D01*
X130618940Y-99951000D01*
X129852756Y-99951000D01*
X129857816Y-99976438D01*
X129857817Y-99976441D01*
X129930032Y-100150783D01*
X130034870Y-100307684D01*
X130034875Y-100307691D01*
X130168308Y-100441124D01*
X130168315Y-100441129D01*
X130325216Y-100545967D01*
X130499558Y-100618182D01*
X130499561Y-100618183D01*
X130684641Y-100654999D01*
X130684645Y-100655000D01*
X131075000Y-100655000D01*
X131075000Y-99997000D01*
X131583000Y-99997000D01*
X131583000Y-100655000D01*
X131973355Y-100655000D01*
X131973358Y-100654999D01*
X132158438Y-100618183D01*
X132158441Y-100618182D01*
X132332783Y-100545967D01*
X132489684Y-100441129D01*
X132489691Y-100441124D01*
X132623124Y-100307691D01*
X132623129Y-100307684D01*
X132727967Y-100150783D01*
X132800182Y-99976441D01*
X132800183Y-99976438D01*
X132805244Y-99951000D01*
X132039060Y-99951000D01*
X132063205Y-99937060D01*
X132119060Y-99881205D01*
X132158556Y-99812796D01*
X132179000Y-99736496D01*
X132179000Y-99657504D01*
X132158556Y-99581204D01*
X132119060Y-99512795D01*
X132063205Y-99456940D01*
X132039060Y-99443000D01*
X132805243Y-99443000D01*
X132800183Y-99417561D01*
X132800182Y-99417558D01*
X132727967Y-99243216D01*
X132623129Y-99086315D01*
X132623124Y-99086308D01*
X132489691Y-98952875D01*
X132489684Y-98952870D01*
X132332783Y-98848032D01*
X132158441Y-98775817D01*
X132158438Y-98775816D01*
X131973358Y-98739000D01*
X131583000Y-98739000D01*
X131583000Y-99397000D01*
X131075000Y-99397000D01*
X131075000Y-98844926D01*
X131095002Y-98776805D01*
X131119025Y-98749239D01*
X131127887Y-98741646D01*
X131187015Y-98707509D01*
X131289509Y-98605015D01*
X131361984Y-98479485D01*
X131399500Y-98339475D01*
X131399500Y-98194525D01*
X131361984Y-98054515D01*
X131289509Y-97928985D01*
X131289507Y-97928983D01*
X131289503Y-97928978D01*
X131187021Y-97826496D01*
X131187011Y-97826488D01*
X131061485Y-97754016D01*
X130921475Y-97716500D01*
X130776525Y-97716500D01*
X130683185Y-97741510D01*
X130636514Y-97754016D01*
X130510988Y-97826488D01*
X130510978Y-97826496D01*
X130408496Y-97928978D01*
X130408488Y-97928988D01*
X130336016Y-98054514D01*
X130298500Y-98194526D01*
X130298500Y-98339473D01*
X130298499Y-98339473D01*
X130336016Y-98479485D01*
X130408488Y-98605011D01*
X130408496Y-98605021D01*
X130422598Y-98619123D01*
X130456624Y-98681435D01*
X130451559Y-98752250D01*
X130409012Y-98809086D01*
X130381722Y-98824627D01*
X130325215Y-98848033D01*
X130168315Y-98952870D01*
X130168308Y-98952875D01*
X130034875Y-99086308D01*
X130034870Y-99086315D01*
X129930032Y-99243216D01*
X129857817Y-99417558D01*
X129857816Y-99417561D01*
X129852756Y-99443000D01*
X129416540Y-99443000D01*
X129416540Y-99127593D01*
X129416539Y-99127589D01*
X129414207Y-99115865D01*
X129392195Y-99005201D01*
X129344440Y-98889911D01*
X129275111Y-98786153D01*
X129186873Y-98697915D01*
X128686405Y-98197447D01*
X128652379Y-98135135D01*
X128649500Y-98108352D01*
X128649500Y-92645648D01*
X128669502Y-92577527D01*
X128686405Y-92556553D01*
X129160496Y-92082462D01*
X129651071Y-91591887D01*
X129713347Y-91498683D01*
X129767823Y-91453156D01*
X129838267Y-91444308D01*
X129902311Y-91474949D01*
X129926446Y-91505733D01*
X129926593Y-91505636D01*
X129927879Y-91507561D01*
X129929234Y-91509289D01*
X129930034Y-91510786D01*
X130034870Y-91667684D01*
X130034875Y-91667691D01*
X130168308Y-91801124D01*
X130168315Y-91801129D01*
X130325217Y-91905968D01*
X130325219Y-91905969D01*
X130381720Y-91929372D01*
X130437001Y-91973919D01*
X130459423Y-92041283D01*
X130441865Y-92110074D01*
X130422601Y-92134874D01*
X130408494Y-92148981D01*
X130408488Y-92148988D01*
X130336016Y-92274514D01*
X130317258Y-92344520D01*
X130306325Y-92385324D01*
X130298500Y-92414526D01*
X130298500Y-92559473D01*
X130298499Y-92559473D01*
X130336016Y-92699485D01*
X130408488Y-92825011D01*
X130408496Y-92825021D01*
X130510978Y-92927503D01*
X130510983Y-92927507D01*
X130510985Y-92927509D01*
X130636515Y-92999984D01*
X130776525Y-93037500D01*
X130776527Y-93037500D01*
X130921473Y-93037500D01*
X130921475Y-93037500D01*
X131061485Y-92999984D01*
X131187015Y-92927509D01*
X131289509Y-92825015D01*
X131361984Y-92699485D01*
X131399500Y-92559475D01*
X131399500Y-92414525D01*
X131361984Y-92274515D01*
X131305196Y-92176155D01*
X131289511Y-92148988D01*
X131289503Y-92148978D01*
X131187016Y-92046491D01*
X131187013Y-92046489D01*
X131137998Y-92018189D01*
X131089006Y-91966805D01*
X131075000Y-91909071D01*
X131075000Y-91357000D01*
X131583000Y-91357000D01*
X131583000Y-92015000D01*
X131973355Y-92015000D01*
X131973358Y-92014999D01*
X132158438Y-91978183D01*
X132158441Y-91978182D01*
X132332783Y-91905967D01*
X132489684Y-91801129D01*
X132489691Y-91801124D01*
X132623124Y-91667691D01*
X132623129Y-91667684D01*
X132727967Y-91510783D01*
X132800182Y-91336441D01*
X132800183Y-91336438D01*
X132805244Y-91311000D01*
X132039060Y-91311000D01*
X132063205Y-91297060D01*
X132119060Y-91241205D01*
X132158556Y-91172796D01*
X132179000Y-91096496D01*
X132179000Y-91017504D01*
X132158556Y-90941204D01*
X132119060Y-90872795D01*
X132063205Y-90816940D01*
X132039060Y-90803000D01*
X132805243Y-90803000D01*
X132800183Y-90777561D01*
X132800182Y-90777558D01*
X132727967Y-90603216D01*
X132623129Y-90446315D01*
X132623124Y-90446308D01*
X132489691Y-90312875D01*
X132489684Y-90312870D01*
X132332783Y-90208032D01*
X132158441Y-90135817D01*
X132158438Y-90135816D01*
X131973358Y-90099000D01*
X131583000Y-90099000D01*
X131583000Y-90757000D01*
X131075000Y-90757000D01*
X131075000Y-90099000D01*
X130684641Y-90099000D01*
X130499561Y-90135816D01*
X130499558Y-90135817D01*
X130325216Y-90208032D01*
X130168315Y-90312870D01*
X130168308Y-90312875D01*
X130034875Y-90446308D01*
X130034873Y-90446311D01*
X130023265Y-90463684D01*
X129968787Y-90509211D01*
X129898344Y-90518058D01*
X129834300Y-90487417D01*
X129796989Y-90427015D01*
X129792500Y-90393681D01*
X129792500Y-86809503D01*
X129812502Y-86741382D01*
X129829405Y-86720408D01*
X129864678Y-86685135D01*
X129964102Y-86536336D01*
X130032587Y-86371000D01*
X130067500Y-86195479D01*
X130067500Y-86016521D01*
X130032587Y-85841000D01*
X129964102Y-85675664D01*
X129864678Y-85526865D01*
X129738135Y-85400322D01*
X129662362Y-85349692D01*
X129641263Y-85335594D01*
X129627533Y-85319166D01*
X129610394Y-85306335D01*
X129605223Y-85292470D01*
X129595735Y-85281117D01*
X129593066Y-85259872D01*
X129585586Y-85239814D01*
X129588731Y-85225357D01*
X129586887Y-85210674D01*
X129596127Y-85191360D01*
X129600679Y-85170440D01*
X129615801Y-85150239D01*
X129617529Y-85146630D01*
X129622159Y-85141744D01*
X129638502Y-85125402D01*
X129700816Y-85091379D01*
X129727595Y-85088500D01*
X130741497Y-85088500D01*
X130809618Y-85108502D01*
X130830592Y-85125405D01*
X130865865Y-85160678D01*
X131014664Y-85260102D01*
X131180000Y-85328587D01*
X131355521Y-85363500D01*
X131355522Y-85363500D01*
X131534478Y-85363500D01*
X131534479Y-85363500D01*
X131710000Y-85328587D01*
X131875336Y-85260102D01*
X132024135Y-85160678D01*
X132150678Y-85034135D01*
X132250102Y-84885336D01*
X132318587Y-84720000D01*
X132353500Y-84544479D01*
X132353500Y-84365521D01*
X132318587Y-84190000D01*
X132250102Y-84024664D01*
X132150678Y-83875865D01*
X132024135Y-83749322D01*
X131875336Y-83649898D01*
X131758429Y-83601473D01*
X131710003Y-83581414D01*
X131710001Y-83581413D01*
X131710000Y-83581413D01*
X131621645Y-83563838D01*
X131534481Y-83546500D01*
X131534479Y-83546500D01*
X131355521Y-83546500D01*
X131355518Y-83546500D01*
X131224771Y-83572507D01*
X131180000Y-83581413D01*
X131179999Y-83581413D01*
X131179996Y-83581414D01*
X131014662Y-83649899D01*
X130865869Y-83749319D01*
X130865862Y-83749324D01*
X130830592Y-83784595D01*
X130768280Y-83818621D01*
X130741497Y-83821500D01*
X129350603Y-83821500D01*
X129277568Y-83836028D01*
X129228215Y-83845845D01*
X129228213Y-83845845D01*
X129228212Y-83845846D01*
X129112923Y-83893601D01*
X129009171Y-83962926D01*
X129009164Y-83962931D01*
X127841451Y-85130644D01*
X127841446Y-85130651D01*
X127772121Y-85234403D01*
X127737011Y-85319166D01*
X127724365Y-85349695D01*
X127721619Y-85363500D01*
X127700020Y-85472083D01*
X127700020Y-89973000D01*
X127680018Y-90041121D01*
X127626362Y-90087614D01*
X127574020Y-90099000D01*
X127413000Y-90099000D01*
X127413000Y-90757000D01*
X126905000Y-90757000D01*
X126905000Y-90099000D01*
X126664641Y-90099000D01*
X126479561Y-90135816D01*
X126479554Y-90135818D01*
X126412717Y-90163503D01*
X126342127Y-90171092D01*
X126278641Y-90139312D01*
X126242414Y-90078254D01*
X126238500Y-90047094D01*
X126238500Y-74935709D01*
X128451500Y-74935709D01*
X128451500Y-75178290D01*
X128483160Y-75418782D01*
X128545944Y-75653095D01*
X128545945Y-75653097D01*
X128545946Y-75653100D01*
X128638776Y-75877212D01*
X128638777Y-75877213D01*
X128638782Y-75877224D01*
X128760061Y-76087285D01*
X128760063Y-76087288D01*
X128760064Y-76087289D01*
X128907735Y-76279738D01*
X128907739Y-76279742D01*
X128907744Y-76279748D01*
X129079251Y-76451255D01*
X129079256Y-76451259D01*
X129079262Y-76451265D01*
X129271711Y-76598936D01*
X129271714Y-76598938D01*
X129481775Y-76720217D01*
X129481779Y-76720218D01*
X129481788Y-76720224D01*
X129705900Y-76813054D01*
X129940211Y-76875838D01*
X129940215Y-76875838D01*
X129940217Y-76875839D01*
X130002202Y-76883999D01*
X130180712Y-76907500D01*
X130180719Y-76907500D01*
X130423281Y-76907500D01*
X130423288Y-76907500D01*
X130640637Y-76878885D01*
X130663782Y-76875839D01*
X130663782Y-76875838D01*
X130663789Y-76875838D01*
X130898100Y-76813054D01*
X131122212Y-76720224D01*
X131332289Y-76598936D01*
X131524738Y-76451265D01*
X131696265Y-76279738D01*
X131843936Y-76087289D01*
X131965224Y-75877212D01*
X132058054Y-75653100D01*
X132120838Y-75418789D01*
X132152500Y-75178288D01*
X132152500Y-74935712D01*
X132120838Y-74695211D01*
X132058054Y-74460900D01*
X131965224Y-74236788D01*
X131965218Y-74236779D01*
X131965217Y-74236775D01*
X131843938Y-74026714D01*
X131843936Y-74026711D01*
X131696265Y-73834262D01*
X131696259Y-73834256D01*
X131696255Y-73834251D01*
X131524748Y-73662744D01*
X131524742Y-73662739D01*
X131524738Y-73662735D01*
X131332289Y-73515064D01*
X131332288Y-73515063D01*
X131332285Y-73515061D01*
X131122224Y-73393782D01*
X131122216Y-73393778D01*
X131122212Y-73393776D01*
X130898100Y-73300946D01*
X130898097Y-73300945D01*
X130898095Y-73300944D01*
X130663782Y-73238160D01*
X130423290Y-73206500D01*
X130423288Y-73206500D01*
X130180712Y-73206500D01*
X130180709Y-73206500D01*
X129940217Y-73238160D01*
X129705904Y-73300944D01*
X129705900Y-73300946D01*
X129481786Y-73393777D01*
X129481775Y-73393782D01*
X129271714Y-73515061D01*
X129079262Y-73662735D01*
X129079251Y-73662744D01*
X128907744Y-73834251D01*
X128907735Y-73834262D01*
X128760061Y-74026714D01*
X128638782Y-74236775D01*
X128638777Y-74236786D01*
X128545946Y-74460900D01*
X128545944Y-74460904D01*
X128483160Y-74695217D01*
X128451500Y-74935709D01*
X126238500Y-74935709D01*
X126238500Y-71119500D01*
X126258502Y-71051379D01*
X126312158Y-71004886D01*
X126364500Y-70993500D01*
X167005500Y-70993500D01*
X167073621Y-71013502D01*
G37*
%TD.AperFunction*%
%TA.AperFunction,Conductor*%
G36*
X162432618Y-104666502D02*
G01*
X162453592Y-104683405D01*
X162488865Y-104718678D01*
X162637664Y-104818102D01*
X162803000Y-104886587D01*
X162978521Y-104921500D01*
X162978522Y-104921500D01*
X163118405Y-104921500D01*
X163186526Y-104941502D01*
X163233019Y-104995158D01*
X163243123Y-105065432D01*
X163213629Y-105130012D01*
X163207513Y-105136581D01*
X162951500Y-105392595D01*
X162711396Y-105632699D01*
X162649084Y-105666724D01*
X162578268Y-105661659D01*
X162521433Y-105619112D01*
X162517537Y-105613606D01*
X162503679Y-105592866D01*
X162503675Y-105592862D01*
X162442763Y-105531950D01*
X162377135Y-105466322D01*
X162228336Y-105366898D01*
X162111429Y-105318473D01*
X162063003Y-105298414D01*
X162063001Y-105298413D01*
X162063000Y-105298413D01*
X161956882Y-105277305D01*
X161887481Y-105263500D01*
X161887479Y-105263500D01*
X161708521Y-105263500D01*
X161708518Y-105263500D01*
X161577771Y-105289507D01*
X161533000Y-105298413D01*
X161532999Y-105298413D01*
X161532996Y-105298414D01*
X161367662Y-105366899D01*
X161218869Y-105466319D01*
X161218862Y-105466324D01*
X161183592Y-105501595D01*
X161121280Y-105535621D01*
X161094497Y-105538500D01*
X159199503Y-105538500D01*
X159131382Y-105518498D01*
X159110408Y-105501595D01*
X159075137Y-105466324D01*
X159075135Y-105466322D01*
X158926336Y-105366898D01*
X158809429Y-105318473D01*
X158761003Y-105298414D01*
X158761001Y-105298413D01*
X158761000Y-105298413D01*
X158654882Y-105277305D01*
X158585481Y-105263500D01*
X158585479Y-105263500D01*
X158406521Y-105263500D01*
X158406518Y-105263500D01*
X158275771Y-105289507D01*
X158231000Y-105298413D01*
X158230999Y-105298413D01*
X158230996Y-105298414D01*
X158065662Y-105366899D01*
X157916869Y-105466319D01*
X157916862Y-105466324D01*
X157881592Y-105501595D01*
X157819280Y-105535621D01*
X157792497Y-105538500D01*
X155643503Y-105538500D01*
X155575382Y-105518498D01*
X155554408Y-105501595D01*
X155519137Y-105466324D01*
X155519135Y-105466322D01*
X155370336Y-105366898D01*
X155253429Y-105318473D01*
X155205003Y-105298414D01*
X155205001Y-105298413D01*
X155205000Y-105298413D01*
X155098882Y-105277305D01*
X155029481Y-105263500D01*
X155029479Y-105263500D01*
X154850521Y-105263500D01*
X154850518Y-105263500D01*
X154719771Y-105289507D01*
X154675000Y-105298413D01*
X154674999Y-105298413D01*
X154674996Y-105298414D01*
X154509662Y-105366899D01*
X154360869Y-105466319D01*
X154360862Y-105466324D01*
X154325592Y-105501595D01*
X154263280Y-105535621D01*
X154236497Y-105538500D01*
X147080003Y-105538500D01*
X147011882Y-105518498D01*
X146965389Y-105464842D01*
X146956424Y-105437082D01*
X146942463Y-105366898D01*
X146923587Y-105272000D01*
X146855102Y-105106664D01*
X146755678Y-104957865D01*
X146659408Y-104861595D01*
X146625382Y-104799283D01*
X146630447Y-104728468D01*
X146672994Y-104671632D01*
X146739514Y-104646821D01*
X146748503Y-104646500D01*
X162364497Y-104646500D01*
X162432618Y-104666502D01*
G37*
%TD.AperFunction*%
%TD*%
M02*
