%TF.GenerationSoftware,KiCad,Pcbnew,9.0.0*%
%TF.CreationDate,2025-02-27T15:43:30+01:00*%
%TF.ProjectId,upsy-desky,75707379-2d64-4657-936b-792e6b696361,rev?*%
%TF.SameCoordinates,Original*%
%TF.FileFunction,Copper,L1,Top*%
%TF.FilePolarity,Positive*%
%FSLAX46Y46*%
G04 Gerber Fmt 4.6, Leading zero omitted, Abs format (unit mm)*
G04 Created by KiCad (PCBNEW 9.0.0) date 2025-02-27 15:43:30*
%MOMM*%
%LPD*%
G01*
G04 APERTURE LIST*
G04 Aperture macros list*
%AMRoundRect*
0 Rectangle with rounded corners*
0 $1 Rounding radius*
0 $2 $3 $4 $5 $6 $7 $8 $9 X,Y pos of 4 corners*
0 Add a 4 corners polygon primitive as box body*
4,1,4,$2,$3,$4,$5,$6,$7,$8,$9,$2,$3,0*
0 Add four circle primitives for the rounded corners*
1,1,$1+$1,$2,$3*
1,1,$1+$1,$4,$5*
1,1,$1+$1,$6,$7*
1,1,$1+$1,$8,$9*
0 Add four rect primitives between the rounded corners*
20,1,$1+$1,$2,$3,$4,$5,0*
20,1,$1+$1,$4,$5,$6,$7,0*
20,1,$1+$1,$6,$7,$8,$9,0*
20,1,$1+$1,$8,$9,$2,$3,0*%
G04 Aperture macros list end*
%TA.AperFunction,SMDPad,CuDef*%
%ADD10RoundRect,0.135000X-0.135000X-0.185000X0.135000X-0.185000X0.135000X0.185000X-0.135000X0.185000X0*%
%TD*%
%TA.AperFunction,SMDPad,CuDef*%
%ADD11RoundRect,0.218750X-0.256250X0.218750X-0.256250X-0.218750X0.256250X-0.218750X0.256250X0.218750X0*%
%TD*%
%TA.AperFunction,SMDPad,CuDef*%
%ADD12RoundRect,0.150000X0.150000X-0.587500X0.150000X0.587500X-0.150000X0.587500X-0.150000X-0.587500X0*%
%TD*%
%TA.AperFunction,ComponentPad*%
%ADD13R,1.408000X1.408000*%
%TD*%
%TA.AperFunction,ComponentPad*%
%ADD14C,1.408000*%
%TD*%
%TA.AperFunction,ComponentPad*%
%ADD15C,2.400000*%
%TD*%
%TA.AperFunction,SMDPad,CuDef*%
%ADD16RoundRect,0.135000X-0.185000X0.135000X-0.185000X-0.135000X0.185000X-0.135000X0.185000X0.135000X0*%
%TD*%
%TA.AperFunction,SMDPad,CuDef*%
%ADD17RoundRect,0.150000X-0.150000X0.587500X-0.150000X-0.587500X0.150000X-0.587500X0.150000X0.587500X0*%
%TD*%
%TA.AperFunction,SMDPad,CuDef*%
%ADD18R,2.000000X0.900000*%
%TD*%
%TA.AperFunction,SMDPad,CuDef*%
%ADD19R,0.900000X2.000000*%
%TD*%
%TA.AperFunction,SMDPad,CuDef*%
%ADD20R,5.000000X5.000000*%
%TD*%
%TA.AperFunction,SMDPad,CuDef*%
%ADD21RoundRect,0.062500X-0.337500X-0.062500X0.337500X-0.062500X0.337500X0.062500X-0.337500X0.062500X0*%
%TD*%
%TA.AperFunction,SMDPad,CuDef*%
%ADD22RoundRect,0.062500X-0.062500X-0.337500X0.062500X-0.337500X0.062500X0.337500X-0.062500X0.337500X0*%
%TD*%
%TA.AperFunction,SMDPad,CuDef*%
%ADD23R,3.350000X3.350000*%
%TD*%
%TA.AperFunction,SMDPad,CuDef*%
%ADD24RoundRect,0.140000X0.140000X0.170000X-0.140000X0.170000X-0.140000X-0.170000X0.140000X-0.170000X0*%
%TD*%
%TA.AperFunction,SMDPad,CuDef*%
%ADD25R,1.160000X0.600000*%
%TD*%
%TA.AperFunction,SMDPad,CuDef*%
%ADD26R,1.160000X0.300000*%
%TD*%
%TA.AperFunction,ComponentPad*%
%ADD27O,2.000000X0.900000*%
%TD*%
%TA.AperFunction,ComponentPad*%
%ADD28O,1.700000X0.900000*%
%TD*%
%TA.AperFunction,SMDPad,CuDef*%
%ADD29RoundRect,0.140000X-0.170000X0.140000X-0.170000X-0.140000X0.170000X-0.140000X0.170000X0.140000X0*%
%TD*%
%TA.AperFunction,SMDPad,CuDef*%
%ADD30R,0.450000X0.600000*%
%TD*%
%TA.AperFunction,SMDPad,CuDef*%
%ADD31RoundRect,0.135000X0.185000X-0.135000X0.185000X0.135000X-0.185000X0.135000X-0.185000X-0.135000X0*%
%TD*%
%TA.AperFunction,SMDPad,CuDef*%
%ADD32RoundRect,0.135000X0.135000X0.185000X-0.135000X0.185000X-0.135000X-0.185000X0.135000X-0.185000X0*%
%TD*%
%TA.AperFunction,SMDPad,CuDef*%
%ADD33RoundRect,0.140000X0.170000X-0.140000X0.170000X0.140000X-0.170000X0.140000X-0.170000X-0.140000X0*%
%TD*%
%TA.AperFunction,SMDPad,CuDef*%
%ADD34R,1.500000X2.000000*%
%TD*%
%TA.AperFunction,SMDPad,CuDef*%
%ADD35R,3.800000X2.000000*%
%TD*%
%TA.AperFunction,ViaPad*%
%ADD36C,0.800000*%
%TD*%
%TA.AperFunction,Conductor*%
%ADD37C,0.250000*%
%TD*%
%TA.AperFunction,Conductor*%
%ADD38C,0.200000*%
%TD*%
G04 APERTURE END LIST*
D10*
%TO.P,R11,1*%
%TO.N,/GPIO19*%
X152652000Y-107188000D03*
%TO.P,R11,2*%
%TO.N,+3V3*%
X153672000Y-107188000D03*
%TD*%
D11*
%TO.P,D2,1,K*%
%TO.N,Net-(D2-Pad1)*%
X139446000Y-79730500D03*
%TO.P,D2,2,A*%
%TO.N,Net-(D2-Pad2)*%
X139446000Y-81305500D03*
%TD*%
D12*
%TO.P,Q2,1,B*%
%TO.N,Net-(Q2-Pad1)*%
X140782000Y-101902500D03*
%TO.P,Q2,2,E*%
%TO.N,/RTS*%
X142682000Y-101902500D03*
%TO.P,Q2,3,C*%
%TO.N,/EN*%
X141732000Y-100027500D03*
%TD*%
D10*
%TO.P,R12,1*%
%TO.N,/DESK_2*%
X136269000Y-106172000D03*
%TO.P,R12,2*%
%TO.N,+5V*%
X137289000Y-106172000D03*
%TD*%
%TO.P,R9,1*%
%TO.N,/DESK_4*%
X139825000Y-106172000D03*
%TO.P,R9,2*%
%TO.N,+5V*%
X140845000Y-106172000D03*
%TD*%
D13*
%TO.P,J1,1,1*%
%TO.N,/DESK_1*%
X132397500Y-115951000D03*
D14*
%TO.P,J1,2,2*%
%TO.N,/DESK_2*%
X133667500Y-113411000D03*
%TO.P,J1,3,3*%
%TO.N,GND*%
X134937500Y-115951000D03*
%TO.P,J1,4,4*%
%TO.N,/DESK_4*%
X136207500Y-113411000D03*
%TO.P,J1,5,5*%
%TO.N,+5V*%
X137477500Y-115951000D03*
%TO.P,J1,6,6*%
%TO.N,/DESK_6*%
X138747500Y-113411000D03*
%TO.P,J1,7,7*%
%TO.N,/DESK_7*%
X140017500Y-115951000D03*
%TO.P,J1,8,8*%
%TO.N,/DESK_8*%
X141287500Y-113411000D03*
D15*
%TO.P,J1,S1,SHIELD*%
%TO.N,GND*%
X129092500Y-125351000D03*
%TO.P,J1,S2,SHIELD__1*%
X144592500Y-125351000D03*
%TD*%
D16*
%TO.P,R20,1*%
%TO.N,Net-(R19-Pad2)*%
X132715000Y-101598000D03*
%TO.P,R20,2*%
%TO.N,GND*%
X132715000Y-102618000D03*
%TD*%
D17*
%TO.P,Q3,1,G*%
%TO.N,+3V3*%
X134173000Y-108790500D03*
%TO.P,Q3,2,S*%
%TO.N,/GPIO18*%
X132273000Y-108790500D03*
%TO.P,Q3,3,D*%
%TO.N,/DESK_1*%
X133223000Y-110665500D03*
%TD*%
D18*
%TO.P,U3,1,GND*%
%TO.N,GND*%
X146440000Y-86022000D03*
%TO.P,U3,2,VDD*%
%TO.N,+3V3*%
X146440000Y-87292000D03*
%TO.P,U3,3,EN*%
%TO.N,/EN*%
X146440000Y-88562000D03*
%TO.P,U3,4,SENSOR_VP*%
%TO.N,unconnected-(U3-Pad4)*%
X146440000Y-89832000D03*
%TO.P,U3,5,SENSOR_VN*%
%TO.N,unconnected-(U3-Pad5)*%
X146440000Y-91102000D03*
%TO.P,U3,6,IO34*%
%TO.N,unconnected-(U3-Pad6)*%
X146440000Y-92372000D03*
%TO.P,U3,7,IO35*%
%TO.N,unconnected-(U3-Pad7)*%
X146440000Y-93642000D03*
%TO.P,U3,8,IO32*%
%TO.N,unconnected-(U3-Pad8)*%
X146440000Y-94912000D03*
%TO.P,U3,9,IO33*%
%TO.N,unconnected-(U3-Pad9)*%
X146440000Y-96182000D03*
%TO.P,U3,10,IO25*%
%TO.N,unconnected-(U3-Pad10)*%
X146440000Y-97452000D03*
%TO.P,U3,11,IO26*%
%TO.N,unconnected-(U3-Pad11)*%
X146440000Y-98722000D03*
%TO.P,U3,12,IO27*%
%TO.N,unconnected-(U3-Pad12)*%
X146440000Y-99992000D03*
%TO.P,U3,13,IO14*%
%TO.N,unconnected-(U3-Pad13)*%
X146440000Y-101262000D03*
%TO.P,U3,14,IO12*%
%TO.N,unconnected-(U3-Pad14)*%
X146440000Y-102532000D03*
D19*
%TO.P,U3,15,GND*%
%TO.N,GND*%
X149225000Y-103532000D03*
%TO.P,U3,16,IO13*%
%TO.N,unconnected-(U3-Pad16)*%
X150495000Y-103532000D03*
%TO.P,U3,17,SHD/SD2*%
%TO.N,unconnected-(U3-Pad17)*%
X151765000Y-103532000D03*
%TO.P,U3,18,SWP/SD3*%
%TO.N,unconnected-(U3-Pad18)*%
X153035000Y-103532000D03*
%TO.P,U3,19,SCS/CMD*%
%TO.N,unconnected-(U3-Pad19)*%
X154305000Y-103532000D03*
%TO.P,U3,20,SCK/CLK*%
%TO.N,unconnected-(U3-Pad20)*%
X155575000Y-103532000D03*
%TO.P,U3,21,SDO/SD0*%
%TO.N,unconnected-(U3-Pad21)*%
X156845000Y-103532000D03*
%TO.P,U3,22,SDI/SD1*%
%TO.N,unconnected-(U3-Pad22)*%
X158115000Y-103532000D03*
%TO.P,U3,23,IO15*%
%TO.N,unconnected-(U3-Pad23)*%
X159385000Y-103532000D03*
%TO.P,U3,24,IO2*%
%TO.N,unconnected-(U3-Pad24)*%
X160655000Y-103532000D03*
D18*
%TO.P,U3,25,IO0*%
%TO.N,/GPIO0*%
X163440000Y-102532000D03*
%TO.P,U3,26,IO4*%
%TO.N,unconnected-(U3-Pad26)*%
X163440000Y-101262000D03*
%TO.P,U3,27,IO16*%
%TO.N,/GPIO16*%
X163440000Y-99992000D03*
%TO.P,U3,28,IO17*%
%TO.N,/GPIO17*%
X163440000Y-98722000D03*
%TO.P,U3,29,IO5*%
%TO.N,unconnected-(U3-Pad29)*%
X163440000Y-97452000D03*
%TO.P,U3,30,IO18*%
%TO.N,/GPIO18*%
X163440000Y-96182000D03*
%TO.P,U3,31,IO19*%
%TO.N,/GPIO19*%
X163440000Y-94912000D03*
%TO.P,U3,32,NC*%
%TO.N,unconnected-(U3-Pad32)*%
X163440000Y-93642000D03*
%TO.P,U3,33,IO21*%
%TO.N,/GPIO21*%
X163440000Y-92372000D03*
%TO.P,U3,34,RXD0/IO3*%
%TO.N,/ESP_RX*%
X163440000Y-91102000D03*
%TO.P,U3,35,TXD0/IO1*%
%TO.N,/ESP_TX*%
X163440000Y-89832000D03*
%TO.P,U3,36,IO22*%
%TO.N,/GPIO22*%
X163440000Y-88562000D03*
%TO.P,U3,37,IO23*%
%TO.N,/GPIO23*%
X163440000Y-87292000D03*
%TO.P,U3,38,GND*%
%TO.N,GND*%
X163440000Y-86022000D03*
D20*
%TO.P,U3,39,GND*%
X153940000Y-93522000D03*
%TD*%
D21*
%TO.P,U1,1,~{DCD}*%
%TO.N,unconnected-(U1-Pad1)*%
X136869000Y-93627000D03*
%TO.P,U1,2,~{RI}/CLK*%
%TO.N,unconnected-(U1-Pad2)*%
X136869000Y-94127000D03*
%TO.P,U1,3,GND*%
%TO.N,GND*%
X136869000Y-94627000D03*
%TO.P,U1,4,D+*%
%TO.N,/USB_D+*%
X136869000Y-95127000D03*
%TO.P,U1,5,D-*%
%TO.N,/USB_D-*%
X136869000Y-95627000D03*
%TO.P,U1,6,VDD*%
%TO.N,+3V3*%
X136869000Y-96127000D03*
%TO.P,U1,7,VREGIN*%
X136869000Y-96627000D03*
D22*
%TO.P,U1,8,VBUS*%
%TO.N,Net-(R19-Pad2)*%
X137819000Y-97577000D03*
%TO.P,U1,9,~{RST}*%
%TO.N,Net-(R18-Pad2)*%
X138319000Y-97577000D03*
%TO.P,U1,10,NC*%
%TO.N,unconnected-(U1-Pad10)*%
X138819000Y-97577000D03*
%TO.P,U1,11,~{SUSPEND}*%
%TO.N,unconnected-(U1-Pad11)*%
X139319000Y-97577000D03*
%TO.P,U1,12,SUSPEND*%
%TO.N,unconnected-(U1-Pad12)*%
X139819000Y-97577000D03*
%TO.P,U1,13,CHREN*%
%TO.N,unconnected-(U1-Pad13)*%
X140319000Y-97577000D03*
%TO.P,U1,14,CHR1*%
%TO.N,unconnected-(U1-Pad14)*%
X140819000Y-97577000D03*
D21*
%TO.P,U1,15,CHR0*%
%TO.N,unconnected-(U1-Pad15)*%
X141769000Y-96627000D03*
%TO.P,U1,16,~{WAKEUP}/GPIO.3*%
%TO.N,unconnected-(U1-Pad16)*%
X141769000Y-96127000D03*
%TO.P,U1,17,RS485/GPIO.2*%
%TO.N,unconnected-(U1-Pad17)*%
X141769000Y-95627000D03*
%TO.P,U1,18,~{RXT}/GPIO.1*%
%TO.N,unconnected-(U1-Pad18)*%
X141769000Y-95127000D03*
%TO.P,U1,19,~{TXT}/GPIO.0*%
%TO.N,unconnected-(U1-Pad19)*%
X141769000Y-94627000D03*
%TO.P,U1,20,GPIO.6*%
%TO.N,unconnected-(U1-Pad20)*%
X141769000Y-94127000D03*
%TO.P,U1,21,GPIO.5*%
%TO.N,unconnected-(U1-Pad21)*%
X141769000Y-93627000D03*
D22*
%TO.P,U1,22,GPIO.4*%
%TO.N,unconnected-(U1-Pad22)*%
X140819000Y-92677000D03*
%TO.P,U1,23,~{CTS}*%
%TO.N,unconnected-(U1-Pad23)*%
X140319000Y-92677000D03*
%TO.P,U1,24,~{RTS}*%
%TO.N,/RTS*%
X139819000Y-92677000D03*
%TO.P,U1,25,RXD*%
%TO.N,/ESP_TX*%
X139319000Y-92677000D03*
%TO.P,U1,26,TXD*%
%TO.N,/ESP_RX*%
X138819000Y-92677000D03*
%TO.P,U1,27,~{DSR}*%
%TO.N,unconnected-(U1-Pad27)*%
X138319000Y-92677000D03*
%TO.P,U1,28,~{DTR}*%
%TO.N,/DTR*%
X137819000Y-92677000D03*
D23*
%TO.P,U1,29,GND*%
%TO.N,GND*%
X139319000Y-95127000D03*
%TD*%
D24*
%TO.P,C2,1*%
%TO.N,+3V3*%
X133703000Y-88265000D03*
%TO.P,C2,2*%
%TO.N,GND*%
X132743000Y-88265000D03*
%TD*%
D25*
%TO.P,J3,A1,GND*%
%TO.N,GND*%
X131909000Y-92177000D03*
%TO.P,J3,A4,VBUS*%
%TO.N,VBUS*%
X131909000Y-92977000D03*
D26*
%TO.P,J3,A5,CC1*%
%TO.N,/USB_CC1*%
X131909000Y-94127000D03*
%TO.P,J3,A6,D+*%
%TO.N,/USB_D+*%
X131909000Y-95127000D03*
%TO.P,J3,A7,D-*%
%TO.N,/USB_D-*%
X131909000Y-95627000D03*
%TO.P,J3,A8,SBU1*%
%TO.N,unconnected-(J3-PadA8)*%
X131909000Y-96627000D03*
D25*
%TO.P,J3,A9,VBUS*%
%TO.N,VBUS*%
X131909000Y-97777000D03*
%TO.P,J3,A12,GND*%
%TO.N,GND*%
X131909000Y-98577000D03*
%TO.P,J3,B1,GND*%
X131909000Y-98577000D03*
%TO.P,J3,B4,VBUS*%
%TO.N,VBUS*%
X131909000Y-97777000D03*
D26*
%TO.P,J3,B5,CC2*%
%TO.N,/USB_CC2*%
X131909000Y-97127000D03*
%TO.P,J3,B6,D+*%
%TO.N,/USB_D+*%
X131909000Y-96127000D03*
%TO.P,J3,B7,D-*%
%TO.N,/USB_D-*%
X131909000Y-94627000D03*
%TO.P,J3,B8,SBU2*%
%TO.N,unconnected-(J3-PadB8)*%
X131909000Y-93627000D03*
D25*
%TO.P,J3,B9,VBUS*%
%TO.N,VBUS*%
X131909000Y-92977000D03*
%TO.P,J3,B12,GND*%
%TO.N,GND*%
X131909000Y-92177000D03*
D27*
%TO.P,J3,S1,SHIELD*%
X131329000Y-91057000D03*
D28*
X127159000Y-91057000D03*
D27*
X131329000Y-99697000D03*
D28*
X127159000Y-99697000D03*
%TD*%
D17*
%TO.P,Q8,1,G*%
%TO.N,+3V3*%
X157668000Y-108790500D03*
%TO.P,Q8,2,S*%
%TO.N,/GPIO22*%
X155768000Y-108790500D03*
%TO.P,Q8,3,D*%
%TO.N,/DESK_8*%
X156718000Y-110665500D03*
%TD*%
%TO.P,Q7,1,G*%
%TO.N,+3V3*%
X161224000Y-108790500D03*
%TO.P,Q7,2,S*%
%TO.N,/GPIO21*%
X159324000Y-108790500D03*
%TO.P,Q7,3,D*%
%TO.N,/DESK_7*%
X160274000Y-110665500D03*
%TD*%
D10*
%TO.P,R17,1*%
%TO.N,/DESK_8*%
X156208000Y-106172000D03*
%TO.P,R17,2*%
%TO.N,+5V*%
X157228000Y-106172000D03*
%TD*%
D29*
%TO.P,C3,1*%
%TO.N,/EN*%
X141986000Y-89817000D03*
%TO.P,C3,2*%
%TO.N,GND*%
X141986000Y-90777000D03*
%TD*%
D10*
%TO.P,R16,1*%
%TO.N,/GPIO22*%
X156208000Y-107188000D03*
%TO.P,R16,2*%
%TO.N,+3V3*%
X157228000Y-107188000D03*
%TD*%
%TO.P,R10,1*%
%TO.N,/GPIO17*%
X136269000Y-107188000D03*
%TO.P,R10,2*%
%TO.N,+3V3*%
X137289000Y-107188000D03*
%TD*%
D30*
%TO.P,D1,1,K*%
%TO.N,+5V*%
X128524000Y-85183000D03*
%TO.P,D1,2,A*%
%TO.N,VBUS*%
X128524000Y-87283000D03*
%TD*%
D31*
%TO.P,R18,1*%
%TO.N,+3V3*%
X135636000Y-102491000D03*
%TO.P,R18,2*%
%TO.N,Net-(R18-Pad2)*%
X135636000Y-101471000D03*
%TD*%
%TO.P,R19,1*%
%TO.N,VBUS*%
X131699000Y-102618000D03*
%TO.P,R19,2*%
%TO.N,Net-(R19-Pad2)*%
X131699000Y-101598000D03*
%TD*%
D17*
%TO.P,Q6,1,G*%
%TO.N,+3V3*%
X154112000Y-108790500D03*
%TO.P,Q6,2,S*%
%TO.N,/GPIO19*%
X152212000Y-108790500D03*
%TO.P,Q6,3,D*%
%TO.N,/DESK_6*%
X153162000Y-110665500D03*
%TD*%
D31*
%TO.P,R1,1*%
%TO.N,GND*%
X133604000Y-99062000D03*
%TO.P,R1,2*%
%TO.N,/USB_CC2*%
X133604000Y-98042000D03*
%TD*%
D10*
%TO.P,R13,1*%
%TO.N,/DESK_6*%
X152652000Y-106172000D03*
%TO.P,R13,2*%
%TO.N,+5V*%
X153672000Y-106172000D03*
%TD*%
D13*
%TO.P,J2,1,1*%
%TO.N,/DESK_1*%
X152082500Y-115951000D03*
D14*
%TO.P,J2,2,2*%
%TO.N,/DESK_2*%
X153352500Y-113411000D03*
%TO.P,J2,3,3*%
%TO.N,GND*%
X154622500Y-115951000D03*
%TO.P,J2,4,4*%
%TO.N,/DESK_4*%
X155892500Y-113411000D03*
%TO.P,J2,5,5*%
%TO.N,+5V*%
X157162500Y-115951000D03*
%TO.P,J2,6,6*%
%TO.N,/DESK_6*%
X158432500Y-113411000D03*
%TO.P,J2,7,7*%
%TO.N,/DESK_7*%
X159702500Y-115951000D03*
%TO.P,J2,8,8*%
%TO.N,/DESK_8*%
X160972500Y-113411000D03*
D15*
%TO.P,J2,S1,SHIELD*%
%TO.N,GND*%
X148777500Y-125351000D03*
%TO.P,J2,S2,SHIELD__1*%
X164277500Y-125351000D03*
%TD*%
D29*
%TO.P,C4,1*%
%TO.N,+3V3*%
X140081000Y-85880000D03*
%TO.P,C4,2*%
%TO.N,GND*%
X140081000Y-86840000D03*
%TD*%
%TO.P,C6,1*%
%TO.N,+3V3*%
X135636000Y-97592000D03*
%TO.P,C6,2*%
%TO.N,GND*%
X135636000Y-98552000D03*
%TD*%
D10*
%TO.P,R14,1*%
%TO.N,/GPIO21*%
X159764000Y-107188000D03*
%TO.P,R14,2*%
%TO.N,+3V3*%
X160784000Y-107188000D03*
%TD*%
D12*
%TO.P,Q1,1,B*%
%TO.N,Net-(Q1-Pad1)*%
X137038000Y-101902500D03*
%TO.P,Q1,2,E*%
%TO.N,/DTR*%
X138938000Y-101902500D03*
%TO.P,Q1,3,C*%
%TO.N,/GPIO0*%
X137988000Y-100027500D03*
%TD*%
D10*
%TO.P,R8,1*%
%TO.N,/DESK_1*%
X132713000Y-106172000D03*
%TO.P,R8,2*%
%TO.N,+5V*%
X133733000Y-106172000D03*
%TD*%
%TO.P,R4,1*%
%TO.N,/DTR*%
X140968000Y-103505000D03*
%TO.P,R4,2*%
%TO.N,Net-(Q2-Pad1)*%
X141988000Y-103505000D03*
%TD*%
D32*
%TO.P,R3,1*%
%TO.N,/RTS*%
X138051000Y-103505000D03*
%TO.P,R3,2*%
%TO.N,Net-(Q1-Pad1)*%
X137031000Y-103505000D03*
%TD*%
D10*
%TO.P,R6,1*%
%TO.N,/GPIO18*%
X132713000Y-107188000D03*
%TO.P,R6,2*%
%TO.N,+3V3*%
X133733000Y-107188000D03*
%TD*%
D29*
%TO.P,C5,1*%
%TO.N,+3V3*%
X139065000Y-85880000D03*
%TO.P,C5,2*%
%TO.N,GND*%
X139065000Y-86840000D03*
%TD*%
D32*
%TO.P,R21,1*%
%TO.N,/GPIO23*%
X139956000Y-82550000D03*
%TO.P,R21,2*%
%TO.N,Net-(D2-Pad2)*%
X138936000Y-82550000D03*
%TD*%
D17*
%TO.P,Q5,1,G*%
%TO.N,+3V3*%
X137729000Y-108790500D03*
%TO.P,Q5,2,S*%
%TO.N,/GPIO17*%
X135829000Y-108790500D03*
%TO.P,Q5,3,D*%
%TO.N,/DESK_2*%
X136779000Y-110665500D03*
%TD*%
D16*
%TO.P,R2,1*%
%TO.N,GND*%
X133604000Y-92327000D03*
%TO.P,R2,2*%
%TO.N,/USB_CC1*%
X133604000Y-93347000D03*
%TD*%
%TO.P,R5,1*%
%TO.N,+3V3*%
X141097000Y-85850000D03*
%TO.P,R5,2*%
%TO.N,/EN*%
X141097000Y-86870000D03*
%TD*%
D33*
%TO.P,C1,1*%
%TO.N,+5V*%
X129286000Y-82776000D03*
%TO.P,C1,2*%
%TO.N,GND*%
X129286000Y-81816000D03*
%TD*%
D34*
%TO.P,U2,1,GND*%
%TO.N,GND*%
X136539000Y-80162000D03*
%TO.P,U2,2,VO*%
%TO.N,+3V3*%
X134239000Y-80162000D03*
D35*
X134239000Y-86462000D03*
D34*
%TO.P,U2,3,VI*%
%TO.N,+5V*%
X131939000Y-80162000D03*
%TD*%
D32*
%TO.P,R22,1*%
%TO.N,Net-(D2-Pad1)*%
X139956000Y-78435200D03*
%TO.P,R22,2*%
%TO.N,GND*%
X138936000Y-78435200D03*
%TD*%
D10*
%TO.P,R7,1*%
%TO.N,/GPIO16*%
X139825000Y-107188000D03*
%TO.P,R7,2*%
%TO.N,+3V3*%
X140845000Y-107188000D03*
%TD*%
%TO.P,R15,1*%
%TO.N,/DESK_7*%
X159764000Y-106172000D03*
%TO.P,R15,2*%
%TO.N,+5V*%
X160784000Y-106172000D03*
%TD*%
D17*
%TO.P,Q4,1,G*%
%TO.N,+3V3*%
X141285000Y-108790500D03*
%TO.P,Q4,2,S*%
%TO.N,/GPIO16*%
X139385000Y-108790500D03*
%TO.P,Q4,3,D*%
%TO.N,/DESK_4*%
X140335000Y-110665500D03*
%TD*%
D36*
%TO.N,GND*%
X165608000Y-85344000D03*
X136906000Y-87249000D03*
X144526000Y-85598000D03*
X139319000Y-95377000D03*
X162306000Y-105029000D03*
X139446000Y-83947000D03*
X132715000Y-82677000D03*
X142494000Y-92837000D03*
X139573000Y-98679000D03*
X149225000Y-105283000D03*
%TO.N,+3V3*%
X141835950Y-106440450D03*
X158496000Y-106172000D03*
X138557000Y-106172000D03*
X161798000Y-106172000D03*
X134620000Y-96393000D03*
X135636000Y-103505000D03*
X154940000Y-106172000D03*
X136582047Y-91382953D03*
X135001000Y-106172000D03*
X131445000Y-84455000D03*
%TO.N,/USB_D-*%
X135636000Y-95826500D03*
X130048000Y-94615000D03*
%TO.N,/DTR*%
X137684497Y-90042989D03*
X139864500Y-102997000D03*
%TO.N,/GPIO0*%
X139954000Y-99695000D03*
X163068000Y-104013000D03*
%TO.N,/RTS*%
X140589000Y-89027000D03*
X137996696Y-101730735D03*
%TO.N,/ESP_TX*%
X160909000Y-89662000D03*
X139731278Y-90042989D03*
%TO.N,/ESP_RX*%
X160909000Y-91567000D03*
X138684000Y-90042989D03*
%TO.N,+5V*%
X129540000Y-105029000D03*
X129159000Y-86106000D03*
%TO.N,/GPIO16*%
X146050000Y-105537000D03*
X140335000Y-108712000D03*
%TO.N,/GPIO17*%
X144907000Y-105537000D03*
X136779000Y-108712000D03*
%TO.N,/GPIO18*%
X144526000Y-102489000D03*
X133223000Y-108712000D03*
X161036000Y-96393000D03*
X143764000Y-105537000D03*
%TO.N,/GPIO19*%
X164465000Y-104521000D03*
X153162000Y-108712000D03*
%TO.N,/GPIO22*%
X156718000Y-108712000D03*
X166116000Y-104521000D03*
%TO.N,/GPIO21*%
X160274000Y-108712000D03*
X165354000Y-93091000D03*
%TD*%
D37*
%TO.N,GND*%
X133604000Y-92327000D02*
X132059000Y-92327000D01*
X132394000Y-99062000D02*
X131909000Y-98577000D01*
X136869000Y-94627000D02*
X138819000Y-94627000D01*
X132059000Y-92327000D02*
X131909000Y-92177000D01*
X136421672Y-94627000D02*
X136869000Y-94627000D01*
X133731000Y-92327000D02*
X134121672Y-92327000D01*
X133604000Y-99062000D02*
X132394000Y-99062000D01*
X134121672Y-92327000D02*
X136421672Y-94627000D01*
X131909000Y-99117000D02*
X131329000Y-99697000D01*
X131909000Y-98577000D02*
X131909000Y-99117000D01*
X138819000Y-94627000D02*
X139319000Y-95127000D01*
%TO.N,Net-(D2-Pad2)*%
X138936000Y-82550000D02*
X138936000Y-81815500D01*
X138936000Y-81815500D02*
X139446000Y-81305500D01*
%TO.N,VBUS*%
X130048000Y-92583000D02*
X129286000Y-91821000D01*
X130048000Y-92583000D02*
X128778000Y-93853000D01*
X130048000Y-92639918D02*
X130048000Y-92583000D01*
X131211990Y-97592479D02*
X131396511Y-97777000D01*
X131447000Y-102618000D02*
X129540000Y-100711000D01*
X129286000Y-89456500D02*
X128524000Y-88694500D01*
X130569603Y-93161521D02*
X130048000Y-92639918D01*
X128778000Y-93853000D02*
X128778000Y-97155000D01*
X128524000Y-88694500D02*
X128524000Y-87283000D01*
X128778000Y-97155000D02*
X129540000Y-97917000D01*
X129794000Y-98171000D02*
X130048000Y-98171000D01*
X130048000Y-98171000D02*
X130048000Y-98114082D01*
X130569603Y-97592479D02*
X131211990Y-97592479D01*
X131396511Y-97777000D02*
X131909000Y-97777000D01*
X131312918Y-92977000D02*
X131128397Y-93161521D01*
X129540000Y-100711000D02*
X129540000Y-97917000D01*
X131128397Y-93161521D02*
X130569603Y-93161521D01*
X131909000Y-92977000D02*
X131312918Y-92977000D01*
X129540000Y-97917000D02*
X129794000Y-98171000D01*
X131699000Y-102618000D02*
X131447000Y-102618000D01*
X130048000Y-98114082D02*
X130569603Y-97592479D01*
X129286000Y-91821000D02*
X129286000Y-89456500D01*
%TO.N,/DESK_2*%
X135128000Y-107313000D02*
X136269000Y-106172000D01*
X136730500Y-110538500D02*
X133858000Y-113411000D01*
X136065500Y-110665500D02*
X135128000Y-109728000D01*
X135128000Y-109728000D02*
X135128000Y-107313000D01*
X136779000Y-110665500D02*
X136065500Y-110665500D01*
%TO.N,/DESK_7*%
X159893000Y-115951000D02*
X160888606Y-115951000D01*
X160888606Y-115951000D02*
X162560000Y-114279606D01*
X162560000Y-114279606D02*
X162560000Y-112649000D01*
X160274000Y-110665500D02*
X159790428Y-110665500D01*
X160449500Y-110538500D02*
X160274000Y-110538500D01*
X158699480Y-109574552D02*
X158699480Y-107236520D01*
X159790428Y-110665500D02*
X158699480Y-109574552D01*
X158699480Y-107236520D02*
X159764000Y-106172000D01*
X162560000Y-112649000D02*
X160449500Y-110538500D01*
%TO.N,/DESK_8*%
X156718000Y-110665500D02*
X156234428Y-110665500D01*
X155143480Y-109574552D02*
X155143480Y-107236520D01*
X155143480Y-107236520D02*
X156208000Y-106172000D01*
X156234428Y-110665500D02*
X155143480Y-109574552D01*
X161163000Y-113411000D02*
X158290500Y-110538500D01*
X158290500Y-110538500D02*
X156718000Y-110538500D01*
%TO.N,+3V3*%
X153672000Y-107188000D02*
X153924000Y-107188000D01*
X161224000Y-108790500D02*
X161224000Y-107628000D01*
X154112000Y-108790500D02*
X154112000Y-107628000D01*
X134239000Y-89039906D02*
X136582047Y-91382953D01*
X133703000Y-88265000D02*
X133703000Y-86998000D01*
X137541000Y-107188000D02*
X138557000Y-106172000D01*
X133703000Y-86998000D02*
X134239000Y-86462000D01*
X143002000Y-85828500D02*
X138975500Y-85828500D01*
X157228000Y-107188000D02*
X157480000Y-107188000D01*
X134239000Y-88265000D02*
X133703000Y-88265000D01*
X157668000Y-107628000D02*
X157228000Y-107188000D01*
X134239000Y-86462000D02*
X134239000Y-80162000D01*
X134173000Y-108790500D02*
X134173000Y-107628000D01*
X141088400Y-107188000D02*
X140845000Y-107188000D01*
X141835950Y-106440450D02*
X141088400Y-107188000D01*
X153924000Y-107188000D02*
X154940000Y-106172000D01*
X135636000Y-97592000D02*
X135636000Y-97028000D01*
X134173000Y-107628000D02*
X133733000Y-107188000D01*
X160784000Y-107188000D02*
X160784000Y-107186000D01*
X134963511Y-96736511D02*
X135927489Y-96736511D01*
X160784000Y-107186000D02*
X161798000Y-106172000D01*
X133452000Y-86462000D02*
X131445000Y-84455000D01*
X135927489Y-96736511D02*
X136759489Y-96736511D01*
X154112000Y-107628000D02*
X153672000Y-107188000D01*
X136759489Y-96736511D02*
X136869000Y-96627000D01*
X137289000Y-107188000D02*
X137541000Y-107188000D01*
X135636000Y-97028000D02*
X135927489Y-96736511D01*
X134620000Y-96393000D02*
X134963511Y-96736511D01*
X138938000Y-85791000D02*
X138267000Y-86462000D01*
X135636000Y-103505000D02*
X135636000Y-102491000D01*
X136869000Y-96627000D02*
X136869000Y-96127000D01*
X133985000Y-107188000D02*
X135001000Y-106172000D01*
X137729000Y-108790500D02*
X137729000Y-107628000D01*
X138267000Y-86462000D02*
X134239000Y-86462000D01*
X143002000Y-85828500D02*
X144465500Y-87292000D01*
X141285000Y-108790500D02*
X141285000Y-107628000D01*
X133733000Y-107188000D02*
X133985000Y-107188000D01*
X134239000Y-86462000D02*
X133452000Y-86462000D01*
X141285000Y-107628000D02*
X140845000Y-107188000D01*
X134239000Y-88265000D02*
X134239000Y-89039906D01*
X137729000Y-107628000D02*
X137289000Y-107188000D01*
X157668000Y-108790500D02*
X157668000Y-107628000D01*
X144465500Y-87292000D02*
X145424000Y-87292000D01*
X157480000Y-107188000D02*
X158496000Y-106172000D01*
X161224000Y-107628000D02*
X160784000Y-107188000D01*
X138975500Y-85828500D02*
X138938000Y-85791000D01*
%TO.N,/DESK_6*%
X152224500Y-110538500D02*
X150495000Y-112268000D01*
X140081000Y-112268000D02*
X138938000Y-113411000D01*
X153162000Y-110665500D02*
X152678428Y-110665500D01*
X151587480Y-109574552D02*
X151587480Y-107236520D01*
X150495000Y-112268000D02*
X140081000Y-112268000D01*
X151587480Y-107236520D02*
X152652000Y-106172000D01*
X152678428Y-110665500D02*
X151587480Y-109574552D01*
X158623000Y-113411000D02*
X157734000Y-113411000D01*
X157734000Y-113411000D02*
X154861500Y-110538500D01*
X154861500Y-110538500D02*
X152224500Y-110538500D01*
%TO.N,/DESK_4*%
X138760480Y-107236520D02*
X139825000Y-106172000D01*
X137426511Y-114439511D02*
X136398000Y-113411000D01*
X139851428Y-110665500D02*
X138760480Y-109574552D01*
X155054489Y-114439511D02*
X137426511Y-114439511D01*
X156083000Y-113411000D02*
X155054489Y-114439511D01*
X138760480Y-109574552D02*
X138760480Y-107236520D01*
X140335000Y-110665500D02*
X139851428Y-110665500D01*
X139270500Y-110538500D02*
X136398000Y-113411000D01*
X140462000Y-110538500D02*
X139270500Y-110538500D01*
%TO.N,/DESK_1*%
X133223000Y-110665500D02*
X132739428Y-110665500D01*
X131572000Y-107313000D02*
X132713000Y-106172000D01*
X131572000Y-109498072D02*
X131572000Y-107313000D01*
X132739428Y-110665500D02*
X131572000Y-109498072D01*
X132588000Y-115951000D02*
X131572000Y-114935000D01*
X131572000Y-112213000D02*
X133246500Y-110538500D01*
X131572000Y-114935000D02*
X131572000Y-112213000D01*
X152273000Y-115951000D02*
X151244489Y-114922489D01*
X151244489Y-114922489D02*
X133616511Y-114922489D01*
X133616511Y-114922489D02*
X132588000Y-115951000D01*
%TO.N,/EN*%
X144594978Y-88562000D02*
X145424000Y-88562000D01*
X141732000Y-100027500D02*
X142288500Y-100027500D01*
X143510000Y-90170000D02*
X143510000Y-89646978D01*
X144399000Y-91059000D02*
X143510000Y-90170000D01*
X143339978Y-89817000D02*
X143510000Y-89646978D01*
X142288500Y-100027500D02*
X144399000Y-97917000D01*
X141986000Y-89817000D02*
X143339978Y-89817000D01*
X143510000Y-89646978D02*
X144594978Y-88562000D01*
X141986000Y-87759000D02*
X141097000Y-86870000D01*
X144399000Y-97917000D02*
X144399000Y-91059000D01*
X141986000Y-89817000D02*
X141986000Y-87759000D01*
%TO.N,/USB_CC1*%
X132824000Y-94127000D02*
X131909000Y-94127000D01*
X133604000Y-93347000D02*
X132824000Y-94127000D01*
D38*
%TO.N,/USB_D+*%
X131079978Y-95127000D02*
X131029489Y-95177489D01*
X133874000Y-96127000D02*
X131909000Y-96127000D01*
X131079978Y-96127000D02*
X131909000Y-96127000D01*
X134874000Y-95127000D02*
X136869000Y-95127000D01*
X131029489Y-96076511D02*
X131079978Y-96127000D01*
X131029489Y-95177489D02*
X131029489Y-96076511D01*
X133874000Y-96127000D02*
X134874000Y-95127000D01*
X131909000Y-95127000D02*
X131079978Y-95127000D01*
%TO.N,/USB_D-*%
X132738022Y-94627000D02*
X132788511Y-94677489D01*
X130048000Y-94615000D02*
X131067978Y-94615000D01*
X131079978Y-94627000D02*
X131909000Y-94627000D01*
X131909000Y-94627000D02*
X132738022Y-94627000D01*
X135835500Y-95627000D02*
X136869000Y-95627000D01*
X132788511Y-95430489D02*
X132592000Y-95627000D01*
X132788511Y-94677489D02*
X132788511Y-95430489D01*
X135636000Y-95826500D02*
X135835500Y-95627000D01*
X132592000Y-95627000D02*
X131909000Y-95627000D01*
X131067978Y-94615000D02*
X131079978Y-94627000D01*
D37*
%TO.N,/USB_CC2*%
X132689000Y-97127000D02*
X133604000Y-98042000D01*
X131909000Y-97127000D02*
X132689000Y-97127000D01*
%TO.N,Net-(Q1-Pad1)*%
X137038000Y-103498000D02*
X137031000Y-103505000D01*
X137038000Y-101902500D02*
X137038000Y-103498000D01*
%TO.N,/DTR*%
X140372500Y-103505000D02*
X139864500Y-102997000D01*
X138938000Y-101902500D02*
X138938000Y-102131500D01*
X140968000Y-103505000D02*
X140372500Y-103505000D01*
X138938000Y-101902500D02*
X138938000Y-102070500D01*
X137819000Y-90177492D02*
X137819000Y-92677000D01*
X137684497Y-90042989D02*
X137819000Y-90177492D01*
X138938000Y-102070500D02*
X139864500Y-102997000D01*
%TO.N,/GPIO0*%
X163068000Y-104013000D02*
X163440000Y-103641000D01*
X139621500Y-100027500D02*
X137988000Y-100027500D01*
X139954000Y-99695000D02*
X139621500Y-100027500D01*
X163440000Y-103641000D02*
X163440000Y-102532000D01*
%TO.N,Net-(Q2-Pad1)*%
X140782000Y-102299000D02*
X141988000Y-103505000D01*
X140782000Y-101902500D02*
X140782000Y-102299000D01*
%TO.N,/RTS*%
X142682000Y-101902500D02*
X142190572Y-101902500D01*
X141128552Y-100840480D02*
X138583592Y-100840480D01*
X139819000Y-91702000D02*
X139819000Y-92677000D01*
X138051000Y-103505000D02*
X138051000Y-101785039D01*
X138583592Y-100840480D02*
X137996696Y-101427376D01*
X138051000Y-101785039D02*
X137996696Y-101730735D01*
X140589000Y-90932000D02*
X139819000Y-91702000D01*
X142190572Y-101902500D02*
X141128552Y-100840480D01*
X140589000Y-89027000D02*
X140589000Y-90932000D01*
X137996696Y-101427376D02*
X137996696Y-101730735D01*
%TO.N,Net-(R18-Pad2)*%
X137363480Y-100126520D02*
X136019000Y-101471000D01*
X137363480Y-99243448D02*
X137363480Y-100126520D01*
X138319000Y-98287928D02*
X137363480Y-99243448D01*
X136019000Y-101471000D02*
X135636000Y-101471000D01*
X138319000Y-97577000D02*
X138319000Y-98287928D01*
%TO.N,/ESP_TX*%
X163440000Y-89832000D02*
X161079000Y-89832000D01*
X161079000Y-89832000D02*
X160909000Y-89662000D01*
X139319000Y-90455267D02*
X139731278Y-90042989D01*
X139319000Y-92677000D02*
X139319000Y-90455267D01*
%TO.N,/ESP_RX*%
X138594489Y-92005161D02*
X138819000Y-92229672D01*
X138819000Y-92229672D02*
X138819000Y-92677000D01*
X138594489Y-90132500D02*
X138594489Y-92005161D01*
X138684000Y-90042989D02*
X138594489Y-90132500D01*
X161374000Y-91102000D02*
X160909000Y-91567000D01*
X163440000Y-91102000D02*
X161374000Y-91102000D01*
%TO.N,+5V*%
X137668000Y-115951000D02*
X135636000Y-117983000D01*
X130048000Y-105537000D02*
X129540000Y-105029000D01*
X142681625Y-106261511D02*
X142084114Y-105664000D01*
X135636000Y-117983000D02*
X130556000Y-117983000D01*
X152282520Y-105527480D02*
X151548489Y-106261511D01*
X154305000Y-105537000D02*
X154432000Y-105410000D01*
X141353000Y-105664000D02*
X140845000Y-106172000D01*
X140845000Y-105920000D02*
X140845000Y-106172000D01*
X138811000Y-117094000D02*
X137668000Y-115951000D01*
X140335000Y-105410000D02*
X140845000Y-105920000D01*
X129159000Y-86106000D02*
X129159000Y-85818000D01*
X153672000Y-106172000D02*
X154305000Y-105539000D01*
X157990000Y-105410000D02*
X160022000Y-105410000D01*
X130048000Y-117475000D02*
X130048000Y-105537000D01*
X157228000Y-105920000D02*
X157228000Y-106172000D01*
X129540000Y-105029000D02*
X132590000Y-105029000D01*
X128524000Y-85183000D02*
X128524000Y-83577000D01*
X153027480Y-105527480D02*
X152282520Y-105527480D01*
X132590000Y-105029000D02*
X133733000Y-106172000D01*
X157353000Y-115951000D02*
X156210000Y-117094000D01*
X136564489Y-105447489D02*
X137289000Y-106172000D01*
X157228000Y-106172000D02*
X157990000Y-105410000D01*
X154432000Y-105410000D02*
X156718000Y-105410000D01*
X134457511Y-105447489D02*
X136564489Y-105447489D01*
X138051000Y-105410000D02*
X140335000Y-105410000D01*
X160022000Y-105410000D02*
X160784000Y-106172000D01*
X154305000Y-105539000D02*
X154305000Y-105537000D01*
X130556000Y-117983000D02*
X130048000Y-117475000D01*
X129159000Y-85818000D02*
X128524000Y-85183000D01*
X156718000Y-105410000D02*
X157228000Y-105920000D01*
X151548489Y-106261511D02*
X142681625Y-106261511D01*
X137289000Y-106172000D02*
X138051000Y-105410000D01*
X128524000Y-83577000D02*
X131939000Y-80162000D01*
X153672000Y-106172000D02*
X153027480Y-105527480D01*
X142084114Y-105664000D02*
X141353000Y-105664000D01*
X156210000Y-117094000D02*
X138811000Y-117094000D01*
X133733000Y-106172000D02*
X134457511Y-105447489D01*
%TO.N,/GPIO23*%
X162730000Y-87292000D02*
X163440000Y-87292000D01*
X139956000Y-82550000D02*
X140170511Y-82764511D01*
X140716000Y-84582000D02*
X160020000Y-84582000D01*
X140170511Y-84036511D02*
X140716000Y-84582000D01*
X140170511Y-82764511D02*
X140170511Y-84036511D01*
X160020000Y-84582000D02*
X162730000Y-87292000D01*
%TO.N,/GPIO16*%
X150833000Y-99992000D02*
X163440000Y-99992000D01*
X140256500Y-108790500D02*
X140335000Y-108712000D01*
X146169740Y-105537000D02*
X148450489Y-103256251D01*
X139385000Y-108790500D02*
X140256500Y-108790500D01*
X146050000Y-105537000D02*
X146169740Y-105537000D01*
X139385000Y-107628000D02*
X139825000Y-107188000D01*
X148450489Y-103256251D02*
X148450489Y-102374511D01*
X139385000Y-108790500D02*
X139385000Y-107628000D01*
X148450489Y-102374511D02*
X150833000Y-99992000D01*
%TO.N,/GPIO17*%
X135829000Y-107628000D02*
X136269000Y-107188000D01*
X148000969Y-103070053D02*
X147764511Y-103306511D01*
X148000969Y-102188313D02*
X148000969Y-103070053D01*
X163440000Y-98722000D02*
X151467282Y-98722000D01*
X136700500Y-108790500D02*
X136779000Y-108712000D01*
X151467282Y-98722000D02*
X148000969Y-102188313D01*
X147764511Y-103306511D02*
X146756489Y-103306511D01*
X135829000Y-108790500D02*
X136700500Y-108790500D01*
X146756489Y-103306511D02*
X144907000Y-105156000D01*
X135829000Y-108790500D02*
X135829000Y-107628000D01*
X144907000Y-105156000D02*
X144907000Y-105537000D01*
%TO.N,/GPIO18*%
X133144500Y-108790500D02*
X133223000Y-108712000D01*
X132273000Y-108790500D02*
X132273000Y-107628000D01*
X161247000Y-96182000D02*
X161036000Y-96393000D01*
X143764000Y-105537000D02*
X144526000Y-104775000D01*
X132273000Y-107628000D02*
X132713000Y-107188000D01*
X163440000Y-96182000D02*
X161247000Y-96182000D01*
X144526000Y-104775000D02*
X144526000Y-102489000D01*
X132273000Y-108790500D02*
X133144500Y-108790500D01*
%TO.N,/GPIO19*%
X153083500Y-108790500D02*
X153162000Y-108712000D01*
X152212000Y-108790500D02*
X152212000Y-107628000D01*
X152212000Y-108790500D02*
X153083500Y-108790500D01*
X164465000Y-104521000D02*
X164854614Y-104521000D01*
X165608000Y-96250978D02*
X164269022Y-94912000D01*
X152212000Y-107628000D02*
X152652000Y-107188000D01*
X165608000Y-103767614D02*
X165608000Y-96250978D01*
X164854614Y-104521000D02*
X165608000Y-103767614D01*
X164269022Y-94912000D02*
X163440000Y-94912000D01*
%TO.N,/GPIO22*%
X155768000Y-107628000D02*
X156208000Y-107188000D01*
X155768000Y-108790500D02*
X156639500Y-108790500D01*
X164690000Y-88562000D02*
X163440000Y-88562000D01*
X166116000Y-89988000D02*
X164690000Y-88562000D01*
X156639500Y-108790500D02*
X156718000Y-108712000D01*
X155768000Y-108790500D02*
X155768000Y-107628000D01*
X166116000Y-104521000D02*
X166116000Y-89988000D01*
%TO.N,/GPIO21*%
X164635000Y-92372000D02*
X163440000Y-92372000D01*
X159324000Y-108790500D02*
X159324000Y-107628000D01*
X159324000Y-108790500D02*
X160195500Y-108790500D01*
X160195500Y-108790500D02*
X160274000Y-108712000D01*
X165354000Y-93091000D02*
X164635000Y-92372000D01*
X159324000Y-107628000D02*
X159764000Y-107188000D01*
%TO.N,Net-(R19-Pad2)*%
X131699000Y-101598000D02*
X132715000Y-101598000D01*
X132715000Y-101598000D02*
X134368000Y-101598000D01*
X137819000Y-98147000D02*
X137819000Y-97577000D01*
X134368000Y-101598000D02*
X137819000Y-98147000D01*
%TO.N,Net-(D2-Pad1)*%
X139956000Y-79220500D02*
X139446000Y-79730500D01*
X139956000Y-78435200D02*
X139956000Y-79220500D01*
%TD*%
%TA.AperFunction,Conductor*%
%TO.N,GND*%
G36*
X127413000Y-92015000D02*
G01*
X127653355Y-92015000D01*
X127653358Y-92014999D01*
X127838438Y-91978183D01*
X127838441Y-91978182D01*
X128012783Y-91905967D01*
X128169684Y-91801129D01*
X128169691Y-91801124D01*
X128303124Y-91667691D01*
X128303129Y-91667684D01*
X128407968Y-91510782D01*
X128407969Y-91510780D01*
X128410091Y-91505658D01*
X128454638Y-91450377D01*
X128522001Y-91427955D01*
X128590793Y-91445512D01*
X128639172Y-91497474D01*
X128652500Y-91553875D01*
X128652500Y-91758606D01*
X128652500Y-91883394D01*
X128676845Y-92005785D01*
X128724600Y-92121075D01*
X128793929Y-92224833D01*
X128793931Y-92224835D01*
X128793934Y-92224839D01*
X129062999Y-92493904D01*
X129097025Y-92556216D01*
X129091960Y-92627031D01*
X129063000Y-92672094D01*
X128374167Y-93360929D01*
X128285927Y-93449169D01*
X128285926Y-93449171D01*
X128216601Y-93552923D01*
X128168846Y-93668212D01*
X128144500Y-93790603D01*
X128144500Y-93790606D01*
X128144500Y-97092606D01*
X128144500Y-97217394D01*
X128168845Y-97339785D01*
X128216600Y-97455075D01*
X128285929Y-97558833D01*
X128285931Y-97558835D01*
X128869595Y-98142499D01*
X128903621Y-98204811D01*
X128906500Y-98231594D01*
X128906500Y-100773396D01*
X128916185Y-100822086D01*
X128930845Y-100895785D01*
X128978600Y-101011075D01*
X129047929Y-101114833D01*
X129047931Y-101114835D01*
X130885632Y-102952536D01*
X130917532Y-103006470D01*
X130918731Y-103010598D01*
X130918732Y-103010599D01*
X131001492Y-103150539D01*
X131001498Y-103150546D01*
X131116453Y-103265501D01*
X131116460Y-103265507D01*
X131256399Y-103348267D01*
X131256402Y-103348267D01*
X131256404Y-103348269D01*
X131412534Y-103393629D01*
X131449011Y-103396500D01*
X131948988Y-103396499D01*
X131985466Y-103393629D01*
X132141596Y-103348269D01*
X132143343Y-103347235D01*
X132144894Y-103346841D01*
X132148874Y-103345120D01*
X132149151Y-103345761D01*
X132212156Y-103329770D01*
X132265045Y-103345298D01*
X132265323Y-103344657D01*
X132270518Y-103346905D01*
X132271632Y-103347232D01*
X132272602Y-103347806D01*
X132428614Y-103393132D01*
X132460999Y-103395679D01*
X132461000Y-103395679D01*
X132969000Y-103395679D01*
X133001385Y-103393132D01*
X133157399Y-103347805D01*
X133297228Y-103265110D01*
X133297235Y-103265105D01*
X133412105Y-103150235D01*
X133412110Y-103150228D01*
X133494805Y-103010399D01*
X133535015Y-102872000D01*
X132969000Y-102872000D01*
X132969000Y-103395679D01*
X132461000Y-103395679D01*
X132461000Y-103075957D01*
X132476808Y-103018175D01*
X132476119Y-103017877D01*
X132478215Y-103013032D01*
X132478548Y-103011816D01*
X132479267Y-103010599D01*
X132479266Y-103010599D01*
X132479269Y-103010596D01*
X132524629Y-102854466D01*
X132527499Y-102817998D01*
X132527500Y-102817998D01*
X132527500Y-102744000D01*
X132547502Y-102675879D01*
X132601158Y-102629386D01*
X132653500Y-102618000D01*
X132715000Y-102618000D01*
X132715000Y-102502499D01*
X132716531Y-102497281D01*
X132715442Y-102491955D01*
X132726427Y-102463580D01*
X132735002Y-102434378D01*
X132739112Y-102430816D01*
X132741075Y-102425747D01*
X132765655Y-102407816D01*
X132788658Y-102387885D01*
X132795214Y-102386254D01*
X132798433Y-102383907D01*
X132819169Y-102380298D01*
X132833568Y-102376718D01*
X132837274Y-102376499D01*
X132964988Y-102376499D01*
X133001466Y-102373629D01*
X133030982Y-102365053D01*
X133045109Y-102364219D01*
X133047358Y-102364737D01*
X133052541Y-102364000D01*
X133535016Y-102364000D01*
X133543452Y-102352762D01*
X133543541Y-102321658D01*
X133582094Y-102262041D01*
X133646759Y-102232732D01*
X133664336Y-102231500D01*
X134430393Y-102231500D01*
X134430394Y-102231500D01*
X134552785Y-102207155D01*
X134633282Y-102173811D01*
X134703870Y-102166222D01*
X134767357Y-102198000D01*
X134803586Y-102259057D01*
X134807500Y-102290220D01*
X134807500Y-102690987D01*
X134810370Y-102727464D01*
X134855731Y-102883597D01*
X134863664Y-102897011D01*
X134881121Y-102965827D01*
X134859975Y-103031146D01*
X134830898Y-103074664D01*
X134762414Y-103239996D01*
X134727500Y-103415518D01*
X134727500Y-103594481D01*
X134762414Y-103770003D01*
X134775709Y-103802100D01*
X134830898Y-103935336D01*
X134930322Y-104084135D01*
X135056865Y-104210678D01*
X135205664Y-104310102D01*
X135371000Y-104378587D01*
X135546521Y-104413500D01*
X135546522Y-104413500D01*
X135725478Y-104413500D01*
X135725479Y-104413500D01*
X135901000Y-104378587D01*
X136066336Y-104310102D01*
X136215135Y-104210678D01*
X136271790Y-104154022D01*
X136334098Y-104120000D01*
X136404914Y-104125064D01*
X136449977Y-104154025D01*
X136498453Y-104202501D01*
X136498460Y-104202507D01*
X136638399Y-104285267D01*
X136638402Y-104285267D01*
X136638404Y-104285269D01*
X136794534Y-104330629D01*
X136831011Y-104333500D01*
X137230988Y-104333499D01*
X137267466Y-104330629D01*
X137423596Y-104285269D01*
X137476862Y-104253767D01*
X137545675Y-104236308D01*
X137605137Y-104253766D01*
X137658404Y-104285269D01*
X137814534Y-104330629D01*
X137851011Y-104333500D01*
X138250988Y-104333499D01*
X138287466Y-104330629D01*
X138443596Y-104285269D01*
X138443598Y-104285267D01*
X138443600Y-104285267D01*
X138583539Y-104202507D01*
X138583538Y-104202507D01*
X138583541Y-104202506D01*
X138698506Y-104087541D01*
X138745785Y-104007596D01*
X138781267Y-103947600D01*
X138781267Y-103947598D01*
X138781269Y-103947596D01*
X138826629Y-103791466D01*
X138829500Y-103754989D01*
X138829499Y-103498632D01*
X138849501Y-103430514D01*
X138903156Y-103384021D01*
X138973430Y-103373916D01*
X139038011Y-103403409D01*
X139060263Y-103428631D01*
X139158822Y-103576135D01*
X139285365Y-103702678D01*
X139434164Y-103802102D01*
X139599500Y-103870587D01*
X139775021Y-103905500D01*
X139824906Y-103905500D01*
X139893027Y-103925502D01*
X139914001Y-103942405D01*
X139968667Y-103997071D01*
X140072425Y-104066400D01*
X140187715Y-104114155D01*
X140310106Y-104138500D01*
X140319262Y-104138500D01*
X140387383Y-104158502D01*
X140408357Y-104175405D01*
X140435453Y-104202501D01*
X140435460Y-104202507D01*
X140575399Y-104285267D01*
X140575402Y-104285267D01*
X140575404Y-104285269D01*
X140731534Y-104330629D01*
X140768011Y-104333500D01*
X141167988Y-104333499D01*
X141204466Y-104330629D01*
X141360596Y-104285269D01*
X141413862Y-104253767D01*
X141482675Y-104236308D01*
X141542137Y-104253766D01*
X141595404Y-104285269D01*
X141751534Y-104330629D01*
X141788011Y-104333500D01*
X142187988Y-104333499D01*
X142224466Y-104330629D01*
X142380596Y-104285269D01*
X142380598Y-104285267D01*
X142380600Y-104285267D01*
X142520539Y-104202507D01*
X142520538Y-104202507D01*
X142520541Y-104202506D01*
X142635506Y-104087541D01*
X142682785Y-104007596D01*
X142718267Y-103947600D01*
X142718267Y-103947598D01*
X142718269Y-103947596D01*
X142763629Y-103791466D01*
X142766500Y-103754989D01*
X142766499Y-103274499D01*
X142786501Y-103206379D01*
X142840156Y-103159886D01*
X142892499Y-103148500D01*
X142898511Y-103148500D01*
X142898511Y-103148499D01*
X142935831Y-103145562D01*
X143095601Y-103099145D01*
X143095603Y-103099143D01*
X143095605Y-103099143D01*
X143167204Y-103056799D01*
X143238807Y-103014453D01*
X143356453Y-102896807D01*
X143436932Y-102760723D01*
X143488823Y-102712273D01*
X143558673Y-102699568D01*
X143624305Y-102726643D01*
X143661792Y-102776646D01*
X143720895Y-102919331D01*
X143720897Y-102919335D01*
X143720898Y-102919336D01*
X143820322Y-103068135D01*
X143820324Y-103068137D01*
X143855595Y-103103408D01*
X143889621Y-103165720D01*
X143892500Y-103192503D01*
X143892500Y-104460405D01*
X143883716Y-104490320D01*
X143877088Y-104520790D01*
X143873273Y-104525885D01*
X143872498Y-104528526D01*
X143855595Y-104549500D01*
X143813500Y-104591595D01*
X143751188Y-104625621D01*
X143724405Y-104628500D01*
X143674518Y-104628500D01*
X143543771Y-104654507D01*
X143499000Y-104663413D01*
X143498999Y-104663413D01*
X143498996Y-104663414D01*
X143333662Y-104731899D01*
X143184869Y-104831319D01*
X143184862Y-104831324D01*
X143058324Y-104957862D01*
X143058319Y-104957869D01*
X142960762Y-105103875D01*
X142958898Y-105106664D01*
X142954004Y-105118479D01*
X142890414Y-105271996D01*
X142890413Y-105271999D01*
X142890413Y-105272000D01*
X142889599Y-105276096D01*
X142886231Y-105293027D01*
X142853323Y-105355936D01*
X142791627Y-105391067D01*
X142720733Y-105387266D01*
X142673557Y-105357539D01*
X142487949Y-105171931D01*
X142487947Y-105171929D01*
X142384189Y-105102600D01*
X142268899Y-105054845D01*
X142194263Y-105039999D01*
X142146510Y-105030500D01*
X142146508Y-105030500D01*
X141290606Y-105030500D01*
X141290603Y-105030500D01*
X141218066Y-105044929D01*
X141168215Y-105054845D01*
X141168213Y-105054845D01*
X141168207Y-105054847D01*
X141062147Y-105098779D01*
X141062145Y-105098781D01*
X141052925Y-105102600D01*
X141052923Y-105102600D01*
X141052909Y-105102607D01*
X141050974Y-105103641D01*
X141049848Y-105103875D01*
X141047210Y-105104968D01*
X141047002Y-105104467D01*
X140981465Y-105118099D01*
X140915174Y-105092681D01*
X140902506Y-105081602D01*
X140738835Y-104917931D01*
X140738833Y-104917929D01*
X140635075Y-104848600D01*
X140519785Y-104800845D01*
X140445154Y-104786000D01*
X140397396Y-104776500D01*
X140397394Y-104776500D01*
X137988606Y-104776500D01*
X137988603Y-104776500D01*
X137866215Y-104800845D01*
X137834480Y-104813990D01*
X137750923Y-104848600D01*
X137647168Y-104917927D01*
X137647166Y-104917928D01*
X137378093Y-105187000D01*
X137315781Y-105221025D01*
X137244965Y-105215960D01*
X137199903Y-105186999D01*
X136968324Y-104955420D01*
X136968322Y-104955418D01*
X136864564Y-104886089D01*
X136749274Y-104838334D01*
X136675575Y-104823674D01*
X136626885Y-104813989D01*
X136626883Y-104813989D01*
X134519904Y-104813989D01*
X134395117Y-104813989D01*
X134395114Y-104813989D01*
X134322079Y-104828517D01*
X134272726Y-104838334D01*
X134272724Y-104838334D01*
X134272723Y-104838335D01*
X134157434Y-104886090D01*
X134053682Y-104955415D01*
X134053675Y-104955420D01*
X133822095Y-105187001D01*
X133759783Y-105221027D01*
X133688968Y-105215962D01*
X133643905Y-105187001D01*
X132993835Y-104536931D01*
X132993833Y-104536929D01*
X132890075Y-104467600D01*
X132774785Y-104419845D01*
X132701086Y-104405185D01*
X132652396Y-104395500D01*
X132652394Y-104395500D01*
X130243503Y-104395500D01*
X130175382Y-104375498D01*
X130154408Y-104358595D01*
X130119137Y-104323324D01*
X130119135Y-104323322D01*
X129970336Y-104223898D01*
X129853265Y-104175405D01*
X129805003Y-104155414D01*
X129805001Y-104155413D01*
X129805000Y-104155413D01*
X129716645Y-104137838D01*
X129629481Y-104120500D01*
X129629479Y-104120500D01*
X129450521Y-104120500D01*
X129450518Y-104120500D01*
X129319771Y-104146507D01*
X129275000Y-104155413D01*
X129274999Y-104155413D01*
X129274996Y-104155414D01*
X129109662Y-104223899D01*
X128960869Y-104323319D01*
X128960862Y-104323324D01*
X128834324Y-104449862D01*
X128834319Y-104449869D01*
X128734899Y-104598662D01*
X128666414Y-104763996D01*
X128666413Y-104763999D01*
X128666413Y-104764000D01*
X128663635Y-104777965D01*
X128631500Y-104939518D01*
X128631500Y-105118481D01*
X128645130Y-105187001D01*
X128666219Y-105293027D01*
X128666414Y-105294003D01*
X128678953Y-105324273D01*
X128734898Y-105459336D01*
X128834322Y-105608135D01*
X128960865Y-105734678D01*
X129109664Y-105834102D01*
X129275000Y-105902587D01*
X129313081Y-105910161D01*
X129375990Y-105943068D01*
X129411123Y-106004762D01*
X129414500Y-106033740D01*
X129414500Y-117412606D01*
X129414500Y-117537394D01*
X129438845Y-117659785D01*
X129486600Y-117775075D01*
X129555929Y-117878833D01*
X130063929Y-118386833D01*
X130152167Y-118475071D01*
X130255925Y-118544400D01*
X130371215Y-118592155D01*
X130493606Y-118616500D01*
X130493607Y-118616500D01*
X135698393Y-118616500D01*
X135698394Y-118616500D01*
X135820785Y-118592155D01*
X135936075Y-118544400D01*
X136039833Y-118475071D01*
X137314499Y-117200403D01*
X137376810Y-117166380D01*
X137403593Y-117163500D01*
X137572923Y-117163500D01*
X137572926Y-117163500D01*
X137761428Y-117133644D01*
X137833900Y-117110095D01*
X137904865Y-117108068D01*
X137961930Y-117140834D01*
X138318929Y-117497833D01*
X138407167Y-117586071D01*
X138510925Y-117655400D01*
X138626215Y-117703155D01*
X138748606Y-117727500D01*
X138748607Y-117727500D01*
X156272393Y-117727500D01*
X156272394Y-117727500D01*
X156394785Y-117703155D01*
X156510075Y-117655400D01*
X156613833Y-117586071D01*
X156999498Y-117200404D01*
X157061811Y-117166380D01*
X157088594Y-117163500D01*
X157257923Y-117163500D01*
X157257926Y-117163500D01*
X157446428Y-117133644D01*
X157627938Y-117074668D01*
X157797988Y-116988023D01*
X157952391Y-116875843D01*
X158087343Y-116740891D01*
X158199523Y-116586488D01*
X158286168Y-116416438D01*
X158312667Y-116334881D01*
X158352741Y-116276276D01*
X158418137Y-116248639D01*
X158488094Y-116260746D01*
X158540400Y-116308752D01*
X158552333Y-116334882D01*
X158574342Y-116402621D01*
X158578832Y-116416438D01*
X158665477Y-116586488D01*
X158777657Y-116740891D01*
X158777659Y-116740893D01*
X158777661Y-116740896D01*
X158912603Y-116875838D01*
X158912606Y-116875840D01*
X158912609Y-116875843D01*
X159067012Y-116988023D01*
X159237062Y-117074668D01*
X159418572Y-117133644D01*
X159607074Y-117163500D01*
X159607077Y-117163500D01*
X159797923Y-117163500D01*
X159797926Y-117163500D01*
X159986428Y-117133644D01*
X160167938Y-117074668D01*
X160337988Y-116988023D01*
X160492391Y-116875843D01*
X160627343Y-116740891D01*
X160703232Y-116636439D01*
X160759454Y-116593085D01*
X160805168Y-116584500D01*
X160950999Y-116584500D01*
X160951000Y-116584500D01*
X161073391Y-116560155D01*
X161188681Y-116512400D01*
X161292439Y-116443071D01*
X163052071Y-114683439D01*
X163121400Y-114579681D01*
X163169155Y-114464391D01*
X163193500Y-114342000D01*
X163193500Y-114217212D01*
X163193500Y-112586606D01*
X163169155Y-112464215D01*
X163141639Y-112397785D01*
X163121401Y-112348925D01*
X163052072Y-112245167D01*
X161119405Y-110312500D01*
X161104460Y-110285131D01*
X161087604Y-110258903D01*
X161086698Y-110252604D01*
X161085379Y-110250188D01*
X161082500Y-110223405D01*
X161082500Y-110162500D01*
X161102502Y-110094379D01*
X161156158Y-110047886D01*
X161208500Y-110036500D01*
X161440511Y-110036500D01*
X161440511Y-110036499D01*
X161477831Y-110033562D01*
X161637601Y-109987145D01*
X161637603Y-109987143D01*
X161637605Y-109987143D01*
X161731972Y-109931334D01*
X161780807Y-109902453D01*
X161898453Y-109784807D01*
X161983145Y-109641601D01*
X162029562Y-109481831D01*
X162032499Y-109444511D01*
X162032500Y-109444511D01*
X162032500Y-108136489D01*
X162032499Y-108136488D01*
X162029562Y-108099171D01*
X162029562Y-108099170D01*
X161991583Y-107968444D01*
X161983145Y-107939399D01*
X161983143Y-107939397D01*
X161983143Y-107939394D01*
X161898455Y-107796196D01*
X161898450Y-107796189D01*
X161894405Y-107792144D01*
X161860379Y-107729832D01*
X161857500Y-107703049D01*
X161857500Y-107565607D01*
X161857499Y-107565603D01*
X161833155Y-107443215D01*
X161785400Y-107327925D01*
X161751039Y-107276501D01*
X161729825Y-107208749D01*
X161748608Y-107140282D01*
X161801425Y-107092839D01*
X161855805Y-107080500D01*
X161887478Y-107080500D01*
X161887479Y-107080500D01*
X162063000Y-107045587D01*
X162228336Y-106977102D01*
X162377135Y-106877678D01*
X162503678Y-106751135D01*
X162603102Y-106602336D01*
X162671587Y-106437000D01*
X162706500Y-106261479D01*
X162706500Y-106082521D01*
X162671587Y-105907000D01*
X162603102Y-105741664D01*
X162503678Y-105592865D01*
X162377135Y-105466322D01*
X162228336Y-105366898D01*
X162082753Y-105306595D01*
X162063003Y-105298414D01*
X162063001Y-105298413D01*
X162063000Y-105298413D01*
X161950799Y-105276095D01*
X161887481Y-105263500D01*
X161887479Y-105263500D01*
X161708521Y-105263500D01*
X161708518Y-105263500D01*
X161577771Y-105289507D01*
X161533000Y-105298413D01*
X161532999Y-105298413D01*
X161532996Y-105298414D01*
X161367664Y-105366898D01*
X161324146Y-105395975D01*
X161256392Y-105417188D01*
X161190011Y-105399664D01*
X161176597Y-105391731D01*
X161020464Y-105346370D01*
X160983998Y-105343500D01*
X160983989Y-105343500D01*
X160903594Y-105343500D01*
X160873678Y-105334716D01*
X160843209Y-105328088D01*
X160838113Y-105324273D01*
X160835473Y-105323498D01*
X160814499Y-105306595D01*
X160763499Y-105255595D01*
X160729473Y-105193283D01*
X160734538Y-105122468D01*
X160777085Y-105065632D01*
X160843605Y-105040821D01*
X160852594Y-105040500D01*
X161153632Y-105040500D01*
X161153638Y-105040500D01*
X161153645Y-105040499D01*
X161153649Y-105040499D01*
X161214196Y-105033990D01*
X161214199Y-105033989D01*
X161214201Y-105033989D01*
X161351204Y-104982889D01*
X161351799Y-104982444D01*
X161468261Y-104895261D01*
X161555887Y-104778207D01*
X161555887Y-104778206D01*
X161555889Y-104778204D01*
X161606989Y-104641201D01*
X161608355Y-104628500D01*
X161613499Y-104580649D01*
X161613500Y-104580632D01*
X161613500Y-102483367D01*
X161613499Y-102483350D01*
X161606990Y-102422803D01*
X161606988Y-102422795D01*
X161555889Y-102285797D01*
X161555887Y-102285792D01*
X161468261Y-102168738D01*
X161351207Y-102081112D01*
X161351202Y-102081110D01*
X161214204Y-102030011D01*
X161214196Y-102030009D01*
X161153649Y-102023500D01*
X161153638Y-102023500D01*
X160156362Y-102023500D01*
X160156350Y-102023500D01*
X160095804Y-102030009D01*
X160095801Y-102030010D01*
X160064030Y-102041860D01*
X159993214Y-102046923D01*
X159975970Y-102041860D01*
X159944201Y-102030011D01*
X159944200Y-102030010D01*
X159944198Y-102030010D01*
X159944195Y-102030009D01*
X159883649Y-102023500D01*
X159883638Y-102023500D01*
X158886362Y-102023500D01*
X158886350Y-102023500D01*
X158825804Y-102030009D01*
X158825801Y-102030010D01*
X158794030Y-102041860D01*
X158723214Y-102046923D01*
X158705970Y-102041860D01*
X158674201Y-102030011D01*
X158674200Y-102030010D01*
X158674198Y-102030010D01*
X158674195Y-102030009D01*
X158613649Y-102023500D01*
X158613638Y-102023500D01*
X157616362Y-102023500D01*
X157616350Y-102023500D01*
X157555804Y-102030009D01*
X157555801Y-102030010D01*
X157524030Y-102041860D01*
X157453214Y-102046923D01*
X157435970Y-102041860D01*
X157404201Y-102030011D01*
X157404200Y-102030010D01*
X157404198Y-102030010D01*
X157404195Y-102030009D01*
X157343649Y-102023500D01*
X157343638Y-102023500D01*
X156346362Y-102023500D01*
X156346350Y-102023500D01*
X156285804Y-102030009D01*
X156285801Y-102030010D01*
X156254030Y-102041860D01*
X156183214Y-102046923D01*
X156165970Y-102041860D01*
X156134201Y-102030011D01*
X156134200Y-102030010D01*
X156134198Y-102030010D01*
X156134195Y-102030009D01*
X156073649Y-102023500D01*
X156073638Y-102023500D01*
X155076362Y-102023500D01*
X155076350Y-102023500D01*
X155015804Y-102030009D01*
X155015801Y-102030010D01*
X154984030Y-102041860D01*
X154913214Y-102046923D01*
X154895970Y-102041860D01*
X154864201Y-102030011D01*
X154864200Y-102030010D01*
X154864198Y-102030010D01*
X154864195Y-102030009D01*
X154803649Y-102023500D01*
X154803638Y-102023500D01*
X153806362Y-102023500D01*
X153806350Y-102023500D01*
X153745804Y-102030009D01*
X153745801Y-102030010D01*
X153714030Y-102041860D01*
X153643214Y-102046923D01*
X153625970Y-102041860D01*
X153594201Y-102030011D01*
X153594200Y-102030010D01*
X153594198Y-102030010D01*
X153594195Y-102030009D01*
X153533649Y-102023500D01*
X153533638Y-102023500D01*
X152536362Y-102023500D01*
X152536350Y-102023500D01*
X152475804Y-102030009D01*
X152475801Y-102030010D01*
X152444030Y-102041860D01*
X152373214Y-102046923D01*
X152355970Y-102041860D01*
X152324201Y-102030011D01*
X152324200Y-102030010D01*
X152324198Y-102030010D01*
X152324195Y-102030009D01*
X152263649Y-102023500D01*
X152263638Y-102023500D01*
X151266362Y-102023500D01*
X151266350Y-102023500D01*
X151205804Y-102030009D01*
X151205801Y-102030010D01*
X151174030Y-102041860D01*
X151103214Y-102046923D01*
X151085970Y-102041860D01*
X151054201Y-102030011D01*
X151054200Y-102030010D01*
X151054198Y-102030010D01*
X151054195Y-102030009D01*
X150993649Y-102023500D01*
X150993638Y-102023500D01*
X150001594Y-102023500D01*
X149933473Y-102003498D01*
X149886980Y-101949842D01*
X149876876Y-101879568D01*
X149906370Y-101814988D01*
X149912499Y-101808405D01*
X151058499Y-100662405D01*
X151120811Y-100628379D01*
X151147594Y-100625500D01*
X161806049Y-100625500D01*
X161874170Y-100645502D01*
X161920663Y-100699158D01*
X161930510Y-100759926D01*
X161931681Y-100759989D01*
X161931500Y-100763367D01*
X161931500Y-101760649D01*
X161938009Y-101821195D01*
X161938010Y-101821198D01*
X161949860Y-101852970D01*
X161954923Y-101923786D01*
X161949860Y-101941030D01*
X161938010Y-101972801D01*
X161938009Y-101972804D01*
X161931500Y-102033350D01*
X161931500Y-103030649D01*
X161938009Y-103091196D01*
X161938011Y-103091204D01*
X161989110Y-103228202D01*
X161989112Y-103228207D01*
X162076738Y-103345261D01*
X162193794Y-103432888D01*
X162201404Y-103437043D01*
X162251610Y-103487242D01*
X162266706Y-103556615D01*
X162257435Y-103595852D01*
X162250539Y-103612500D01*
X162194414Y-103747996D01*
X162159500Y-103923518D01*
X162159500Y-104102481D01*
X162174006Y-104175405D01*
X162179395Y-104202501D01*
X162194414Y-104278003D01*
X162197424Y-104285269D01*
X162262898Y-104443336D01*
X162362322Y-104592135D01*
X162488865Y-104718678D01*
X162637664Y-104818102D01*
X162803000Y-104886587D01*
X162978521Y-104921500D01*
X162978522Y-104921500D01*
X163157478Y-104921500D01*
X163157479Y-104921500D01*
X163333000Y-104886587D01*
X163424708Y-104848600D01*
X163472722Y-104828712D01*
X163543312Y-104821122D01*
X163606799Y-104852901D01*
X163637349Y-104896901D01*
X163659895Y-104951330D01*
X163659897Y-104951335D01*
X163680981Y-104982889D01*
X163759322Y-105100135D01*
X163885865Y-105226678D01*
X164034664Y-105326102D01*
X164200000Y-105394587D01*
X164375521Y-105429500D01*
X164375522Y-105429500D01*
X164554478Y-105429500D01*
X164554479Y-105429500D01*
X164730000Y-105394587D01*
X164895336Y-105326102D01*
X165044135Y-105226678D01*
X165170678Y-105100135D01*
X165185736Y-105077598D01*
X165240208Y-105032073D01*
X165310651Y-105023224D01*
X165374696Y-105053864D01*
X165395263Y-105077599D01*
X165410316Y-105100128D01*
X165410321Y-105100133D01*
X165410322Y-105100135D01*
X165536865Y-105226678D01*
X165685664Y-105326102D01*
X165851000Y-105394587D01*
X166026521Y-105429500D01*
X166026522Y-105429500D01*
X166205478Y-105429500D01*
X166205479Y-105429500D01*
X166381000Y-105394587D01*
X166546336Y-105326102D01*
X166695135Y-105226678D01*
X166821678Y-105100135D01*
X166848160Y-105060502D01*
X166900735Y-104981818D01*
X166955211Y-104936290D01*
X167025654Y-104927441D01*
X167089699Y-104958082D01*
X167127010Y-105018484D01*
X167131500Y-105051819D01*
X167131500Y-128905500D01*
X167111498Y-128973621D01*
X167057842Y-129020114D01*
X167005500Y-129031500D01*
X126364500Y-129031500D01*
X126296379Y-129011498D01*
X126249886Y-128957842D01*
X126238500Y-128905500D01*
X126238500Y-125239049D01*
X127384500Y-125239049D01*
X127384500Y-125462950D01*
X127413722Y-125684922D01*
X127471673Y-125901196D01*
X127557352Y-126108046D01*
X127557357Y-126108055D01*
X127669300Y-126301946D01*
X127718379Y-126365907D01*
X127718381Y-126365908D01*
X128374995Y-125709293D01*
X128383549Y-125729942D01*
X128471099Y-125860970D01*
X128582530Y-125972401D01*
X128713558Y-126059951D01*
X128734205Y-126068503D01*
X128077590Y-126725118D01*
X128077590Y-126725119D01*
X128141552Y-126774199D01*
X128335444Y-126886142D01*
X128335453Y-126886147D01*
X128542303Y-126971826D01*
X128758577Y-127029777D01*
X128980549Y-127058999D01*
X128980559Y-127059000D01*
X129204441Y-127059000D01*
X129204450Y-127058999D01*
X129426422Y-127029777D01*
X129642696Y-126971826D01*
X129849546Y-126886147D01*
X129849555Y-126886142D01*
X130043453Y-126774195D01*
X130107408Y-126725118D01*
X129450794Y-126068503D01*
X129471442Y-126059951D01*
X129602470Y-125972401D01*
X129713901Y-125860970D01*
X129801451Y-125729942D01*
X129810003Y-125709293D01*
X130466618Y-126365908D01*
X130515695Y-126301953D01*
X130627642Y-126108055D01*
X130627647Y-126108046D01*
X130713326Y-125901196D01*
X130771277Y-125684922D01*
X130800499Y-125462950D01*
X130800500Y-125462941D01*
X130800500Y-125239059D01*
X130800499Y-125239049D01*
X130771277Y-125017077D01*
X130713326Y-124800803D01*
X130627647Y-124593953D01*
X130627642Y-124593944D01*
X130515699Y-124400052D01*
X130466618Y-124336090D01*
X129810003Y-124992705D01*
X129801451Y-124972058D01*
X129713901Y-124841030D01*
X129602470Y-124729599D01*
X129471442Y-124642049D01*
X129450793Y-124633496D01*
X130107408Y-123976881D01*
X130106236Y-123959000D01*
X130121740Y-123889717D01*
X130172239Y-123839814D01*
X130241702Y-123825136D01*
X130294966Y-123841640D01*
X130351599Y-123874337D01*
X130351603Y-123874338D01*
X130351612Y-123874344D01*
X130563613Y-123962158D01*
X130785262Y-124021548D01*
X130785266Y-124021548D01*
X130785268Y-124021549D01*
X130843898Y-124029267D01*
X131012766Y-124051500D01*
X131012773Y-124051500D01*
X131242227Y-124051500D01*
X131242234Y-124051500D01*
X131447845Y-124024430D01*
X131469731Y-124021549D01*
X131469731Y-124021548D01*
X131469738Y-124021548D01*
X131691387Y-123962158D01*
X131903388Y-123874344D01*
X132102112Y-123759611D01*
X132284161Y-123619919D01*
X132446419Y-123457661D01*
X132586111Y-123275612D01*
X132700844Y-123076888D01*
X132788658Y-122864887D01*
X132848048Y-122643238D01*
X132878000Y-122415734D01*
X132878000Y-122186266D01*
X132878000Y-122186263D01*
X140807000Y-122186263D01*
X140807000Y-122415736D01*
X140836950Y-122643231D01*
X140836952Y-122643238D01*
X140896342Y-122864887D01*
X140984156Y-123076888D01*
X140984157Y-123076889D01*
X140984162Y-123076900D01*
X141098886Y-123275608D01*
X141098891Y-123275615D01*
X141238573Y-123457652D01*
X141238592Y-123457673D01*
X141400826Y-123619907D01*
X141400847Y-123619926D01*
X141582884Y-123759608D01*
X141582891Y-123759613D01*
X141781599Y-123874337D01*
X141781603Y-123874338D01*
X141781612Y-123874344D01*
X141993613Y-123962158D01*
X142215262Y-124021548D01*
X142215266Y-124021548D01*
X142215268Y-124021549D01*
X142273898Y-124029267D01*
X142442766Y-124051500D01*
X142442773Y-124051500D01*
X142672227Y-124051500D01*
X142672234Y-124051500D01*
X142877845Y-124024430D01*
X142899731Y-124021549D01*
X142899731Y-124021548D01*
X142899738Y-124021548D01*
X143121387Y-123962158D01*
X143333388Y-123874344D01*
X143390032Y-123841640D01*
X143459025Y-123824902D01*
X143526118Y-123848121D01*
X143570006Y-123903928D01*
X143578762Y-123958998D01*
X143577590Y-123976880D01*
X144234206Y-124633496D01*
X144213558Y-124642049D01*
X144082530Y-124729599D01*
X143971099Y-124841030D01*
X143883549Y-124972058D01*
X143874996Y-124992706D01*
X143218380Y-124336090D01*
X143169300Y-124400053D01*
X143057357Y-124593944D01*
X143057352Y-124593953D01*
X142971673Y-124800803D01*
X142913722Y-125017077D01*
X142884500Y-125239049D01*
X142884500Y-125462950D01*
X142913722Y-125684922D01*
X142971673Y-125901196D01*
X143057352Y-126108046D01*
X143057357Y-126108055D01*
X143169300Y-126301946D01*
X143218379Y-126365907D01*
X143218381Y-126365908D01*
X143874995Y-125709293D01*
X143883549Y-125729942D01*
X143971099Y-125860970D01*
X144082530Y-125972401D01*
X144213558Y-126059951D01*
X144234205Y-126068503D01*
X143577590Y-126725118D01*
X143577590Y-126725119D01*
X143641552Y-126774199D01*
X143835444Y-126886142D01*
X143835453Y-126886147D01*
X144042303Y-126971826D01*
X144258577Y-127029777D01*
X144480549Y-127058999D01*
X144480559Y-127059000D01*
X144704441Y-127059000D01*
X144704450Y-127058999D01*
X144926422Y-127029777D01*
X145142696Y-126971826D01*
X145349546Y-126886147D01*
X145349555Y-126886142D01*
X145543453Y-126774195D01*
X145607408Y-126725118D01*
X144950794Y-126068503D01*
X144971442Y-126059951D01*
X145102470Y-125972401D01*
X145213901Y-125860970D01*
X145301451Y-125729942D01*
X145310003Y-125709293D01*
X145966618Y-126365908D01*
X146015695Y-126301953D01*
X146127642Y-126108055D01*
X146127647Y-126108046D01*
X146213326Y-125901196D01*
X146271277Y-125684922D01*
X146300499Y-125462950D01*
X146300500Y-125462941D01*
X146300500Y-125239059D01*
X146300499Y-125239049D01*
X147069500Y-125239049D01*
X147069500Y-125462950D01*
X147098722Y-125684922D01*
X147156673Y-125901196D01*
X147242352Y-126108046D01*
X147242357Y-126108055D01*
X147354300Y-126301946D01*
X147403379Y-126365907D01*
X147403381Y-126365908D01*
X148059995Y-125709293D01*
X148068549Y-125729942D01*
X148156099Y-125860970D01*
X148267530Y-125972401D01*
X148398558Y-126059951D01*
X148419205Y-126068503D01*
X147762590Y-126725118D01*
X147762590Y-126725119D01*
X147826552Y-126774199D01*
X148020444Y-126886142D01*
X148020453Y-126886147D01*
X148227303Y-126971826D01*
X148443577Y-127029777D01*
X148665549Y-127058999D01*
X148665559Y-127059000D01*
X148889441Y-127059000D01*
X148889450Y-127058999D01*
X149111422Y-127029777D01*
X149327696Y-126971826D01*
X149534546Y-126886147D01*
X149534555Y-126886142D01*
X149728453Y-126774195D01*
X149792408Y-126725118D01*
X149135794Y-126068503D01*
X149156442Y-126059951D01*
X149287470Y-125972401D01*
X149398901Y-125860970D01*
X149486451Y-125729942D01*
X149495003Y-125709293D01*
X150151618Y-126365908D01*
X150200695Y-126301953D01*
X150312642Y-126108055D01*
X150312647Y-126108046D01*
X150398326Y-125901196D01*
X150456277Y-125684922D01*
X150485499Y-125462950D01*
X150485500Y-125462941D01*
X150485500Y-125239059D01*
X150485499Y-125239049D01*
X150456277Y-125017077D01*
X150398326Y-124800803D01*
X150312647Y-124593953D01*
X150312642Y-124593944D01*
X150200699Y-124400052D01*
X150151618Y-124336090D01*
X149495003Y-124992705D01*
X149486451Y-124972058D01*
X149398901Y-124841030D01*
X149287470Y-124729599D01*
X149156442Y-124642049D01*
X149135793Y-124633496D01*
X149792408Y-123976881D01*
X149791236Y-123959000D01*
X149806740Y-123889717D01*
X149857239Y-123839814D01*
X149926702Y-123825136D01*
X149979966Y-123841640D01*
X150036599Y-123874337D01*
X150036603Y-123874338D01*
X150036612Y-123874344D01*
X150248613Y-123962158D01*
X150470262Y-124021548D01*
X150470266Y-124021548D01*
X150470268Y-124021549D01*
X150528898Y-124029267D01*
X150697766Y-124051500D01*
X150697773Y-124051500D01*
X150927227Y-124051500D01*
X150927234Y-124051500D01*
X151132845Y-124024430D01*
X151154731Y-124021549D01*
X151154731Y-124021548D01*
X151154738Y-124021548D01*
X151376387Y-123962158D01*
X151588388Y-123874344D01*
X151787112Y-123759611D01*
X151969161Y-123619919D01*
X152131419Y-123457661D01*
X152271111Y-123275612D01*
X152385844Y-123076888D01*
X152473658Y-122864887D01*
X152533048Y-122643238D01*
X152563000Y-122415734D01*
X152563000Y-122186266D01*
X152563000Y-122186263D01*
X160492000Y-122186263D01*
X160492000Y-122415736D01*
X160521950Y-122643231D01*
X160521952Y-122643238D01*
X160581342Y-122864887D01*
X160669156Y-123076888D01*
X160669157Y-123076889D01*
X160669162Y-123076900D01*
X160783886Y-123275608D01*
X160783891Y-123275615D01*
X160923573Y-123457652D01*
X160923592Y-123457673D01*
X161085826Y-123619907D01*
X161085847Y-123619926D01*
X161267884Y-123759608D01*
X161267891Y-123759613D01*
X161466599Y-123874337D01*
X161466603Y-123874338D01*
X161466612Y-123874344D01*
X161678613Y-123962158D01*
X161900262Y-124021548D01*
X161900266Y-124021548D01*
X161900268Y-124021549D01*
X161958898Y-124029267D01*
X162127766Y-124051500D01*
X162127773Y-124051500D01*
X162357227Y-124051500D01*
X162357234Y-124051500D01*
X162562845Y-124024430D01*
X162584731Y-124021549D01*
X162584731Y-124021548D01*
X162584738Y-124021548D01*
X162806387Y-123962158D01*
X163018388Y-123874344D01*
X163075032Y-123841640D01*
X163144025Y-123824902D01*
X163211118Y-123848121D01*
X163255006Y-123903928D01*
X163263762Y-123958998D01*
X163262590Y-123976880D01*
X163919206Y-124633496D01*
X163898558Y-124642049D01*
X163767530Y-124729599D01*
X163656099Y-124841030D01*
X163568549Y-124972058D01*
X163559996Y-124992706D01*
X162903380Y-124336090D01*
X162854300Y-124400053D01*
X162742357Y-124593944D01*
X162742352Y-124593953D01*
X162656673Y-124800803D01*
X162598722Y-125017077D01*
X162569500Y-125239049D01*
X162569500Y-125462950D01*
X162598722Y-125684922D01*
X162656673Y-125901196D01*
X162742352Y-126108046D01*
X162742357Y-126108055D01*
X162854300Y-126301946D01*
X162903379Y-126365907D01*
X162903381Y-126365908D01*
X163559995Y-125709293D01*
X163568549Y-125729942D01*
X163656099Y-125860970D01*
X163767530Y-125972401D01*
X163898558Y-126059951D01*
X163919205Y-126068503D01*
X163262590Y-126725118D01*
X163262590Y-126725119D01*
X163326552Y-126774199D01*
X163520444Y-126886142D01*
X163520453Y-126886147D01*
X163727303Y-126971826D01*
X163943577Y-127029777D01*
X164165549Y-127058999D01*
X164165559Y-127059000D01*
X164389441Y-127059000D01*
X164389450Y-127058999D01*
X164611422Y-127029777D01*
X164827696Y-126971826D01*
X165034546Y-126886147D01*
X165034555Y-126886142D01*
X165228453Y-126774195D01*
X165292408Y-126725118D01*
X164635794Y-126068503D01*
X164656442Y-126059951D01*
X164787470Y-125972401D01*
X164898901Y-125860970D01*
X164986451Y-125729942D01*
X164995003Y-125709293D01*
X165651618Y-126365908D01*
X165700695Y-126301953D01*
X165812642Y-126108055D01*
X165812647Y-126108046D01*
X165898326Y-125901196D01*
X165956277Y-125684922D01*
X165985499Y-125462950D01*
X165985500Y-125462941D01*
X165985500Y-125239059D01*
X165985499Y-125239049D01*
X165956277Y-125017077D01*
X165898326Y-124800803D01*
X165812647Y-124593953D01*
X165812642Y-124593944D01*
X165700699Y-124400052D01*
X165651618Y-124336090D01*
X164995003Y-124992705D01*
X164986451Y-124972058D01*
X164898901Y-124841030D01*
X164787470Y-124729599D01*
X164656442Y-124642049D01*
X164635793Y-124633496D01*
X165292408Y-123976881D01*
X165292407Y-123976879D01*
X165228446Y-123927800D01*
X165034555Y-123815857D01*
X165034546Y-123815852D01*
X164827696Y-123730173D01*
X164611422Y-123672222D01*
X164389450Y-123643000D01*
X164165549Y-123643000D01*
X163943577Y-123672222D01*
X163727303Y-123730173D01*
X163564140Y-123797757D01*
X163493550Y-123805346D01*
X163430063Y-123773566D01*
X163393836Y-123712508D01*
X163396370Y-123641557D01*
X163426825Y-123592254D01*
X163561419Y-123457661D01*
X163701111Y-123275612D01*
X163815844Y-123076888D01*
X163903658Y-122864887D01*
X163963048Y-122643238D01*
X163993000Y-122415734D01*
X163993000Y-122186266D01*
X163963048Y-121958762D01*
X163903658Y-121737113D01*
X163815844Y-121525112D01*
X163815838Y-121525103D01*
X163815837Y-121525099D01*
X163701113Y-121326391D01*
X163701108Y-121326384D01*
X163561426Y-121144347D01*
X163561407Y-121144326D01*
X163399173Y-120982092D01*
X163399152Y-120982073D01*
X163217115Y-120842391D01*
X163217108Y-120842386D01*
X163018400Y-120727662D01*
X163018392Y-120727658D01*
X163018388Y-120727656D01*
X162806387Y-120639842D01*
X162584738Y-120580452D01*
X162584731Y-120580450D01*
X162357236Y-120550500D01*
X162357234Y-120550500D01*
X162127766Y-120550500D01*
X162127763Y-120550500D01*
X161900268Y-120580450D01*
X161678613Y-120639842D01*
X161466610Y-120727657D01*
X161466599Y-120727662D01*
X161267891Y-120842386D01*
X161267884Y-120842391D01*
X161085847Y-120982073D01*
X161085826Y-120982092D01*
X160923592Y-121144326D01*
X160923573Y-121144347D01*
X160783891Y-121326384D01*
X160783886Y-121326391D01*
X160669162Y-121525099D01*
X160669157Y-121525110D01*
X160581342Y-121737113D01*
X160521950Y-121958768D01*
X160492000Y-122186263D01*
X152563000Y-122186263D01*
X152533048Y-121958762D01*
X152473658Y-121737113D01*
X152385844Y-121525112D01*
X152385838Y-121525103D01*
X152385837Y-121525099D01*
X152271113Y-121326391D01*
X152271108Y-121326384D01*
X152131426Y-121144347D01*
X152131407Y-121144326D01*
X151969173Y-120982092D01*
X151969152Y-120982073D01*
X151787115Y-120842391D01*
X151787108Y-120842386D01*
X151588400Y-120727662D01*
X151588392Y-120727658D01*
X151588388Y-120727656D01*
X151376387Y-120639842D01*
X151154738Y-120580452D01*
X151154731Y-120580450D01*
X150927236Y-120550500D01*
X150927234Y-120550500D01*
X150697766Y-120550500D01*
X150697763Y-120550500D01*
X150470268Y-120580450D01*
X150248613Y-120639842D01*
X150036610Y-120727657D01*
X150036599Y-120727662D01*
X149837891Y-120842386D01*
X149837884Y-120842391D01*
X149655847Y-120982073D01*
X149655826Y-120982092D01*
X149493592Y-121144326D01*
X149493573Y-121144347D01*
X149353891Y-121326384D01*
X149353886Y-121326391D01*
X149239162Y-121525099D01*
X149239157Y-121525110D01*
X149151342Y-121737113D01*
X149091950Y-121958768D01*
X149062000Y-122186263D01*
X149062000Y-122415736D01*
X149091950Y-122643231D01*
X149091952Y-122643238D01*
X149151342Y-122864887D01*
X149239156Y-123076888D01*
X149239157Y-123076889D01*
X149239162Y-123076900D01*
X149353886Y-123275608D01*
X149353891Y-123275615D01*
X149493573Y-123457652D01*
X149493592Y-123457673D01*
X149628172Y-123592253D01*
X149662198Y-123654565D01*
X149657133Y-123725380D01*
X149614586Y-123782216D01*
X149548066Y-123807027D01*
X149490859Y-123797757D01*
X149327696Y-123730173D01*
X149111422Y-123672222D01*
X148889450Y-123643000D01*
X148665549Y-123643000D01*
X148443577Y-123672222D01*
X148227303Y-123730173D01*
X148020453Y-123815852D01*
X148020444Y-123815857D01*
X147826553Y-123927800D01*
X147762590Y-123976880D01*
X148419206Y-124633496D01*
X148398558Y-124642049D01*
X148267530Y-124729599D01*
X148156099Y-124841030D01*
X148068549Y-124972058D01*
X148059996Y-124992706D01*
X147403380Y-124336090D01*
X147354300Y-124400053D01*
X147242357Y-124593944D01*
X147242352Y-124593953D01*
X147156673Y-124800803D01*
X147098722Y-125017077D01*
X147069500Y-125239049D01*
X146300499Y-125239049D01*
X146271277Y-125017077D01*
X146213326Y-124800803D01*
X146127647Y-124593953D01*
X146127642Y-124593944D01*
X146015699Y-124400052D01*
X145966618Y-124336090D01*
X145310003Y-124992705D01*
X145301451Y-124972058D01*
X145213901Y-124841030D01*
X145102470Y-124729599D01*
X144971442Y-124642049D01*
X144950793Y-124633496D01*
X145607408Y-123976881D01*
X145607407Y-123976879D01*
X145543446Y-123927800D01*
X145349555Y-123815857D01*
X145349546Y-123815852D01*
X145142696Y-123730173D01*
X144926422Y-123672222D01*
X144704450Y-123643000D01*
X144480549Y-123643000D01*
X144258577Y-123672222D01*
X144042303Y-123730173D01*
X143879140Y-123797757D01*
X143808550Y-123805346D01*
X143745063Y-123773566D01*
X143708836Y-123712508D01*
X143711370Y-123641557D01*
X143741825Y-123592254D01*
X143876419Y-123457661D01*
X144016111Y-123275612D01*
X144130844Y-123076888D01*
X144218658Y-122864887D01*
X144278048Y-122643238D01*
X144308000Y-122415734D01*
X144308000Y-122186266D01*
X144278048Y-121958762D01*
X144218658Y-121737113D01*
X144130844Y-121525112D01*
X144130838Y-121525103D01*
X144130837Y-121525099D01*
X144016113Y-121326391D01*
X144016108Y-121326384D01*
X143876426Y-121144347D01*
X143876407Y-121144326D01*
X143714173Y-120982092D01*
X143714152Y-120982073D01*
X143532115Y-120842391D01*
X143532108Y-120842386D01*
X143333400Y-120727662D01*
X143333392Y-120727658D01*
X143333388Y-120727656D01*
X143121387Y-120639842D01*
X142899738Y-120580452D01*
X142899731Y-120580450D01*
X142672236Y-120550500D01*
X142672234Y-120550500D01*
X142442766Y-120550500D01*
X142442763Y-120550500D01*
X142215268Y-120580450D01*
X141993613Y-120639842D01*
X141781610Y-120727657D01*
X141781599Y-120727662D01*
X141582891Y-120842386D01*
X141582884Y-120842391D01*
X141400847Y-120982073D01*
X141400826Y-120982092D01*
X141238592Y-121144326D01*
X141238573Y-121144347D01*
X141098891Y-121326384D01*
X141098886Y-121326391D01*
X140984162Y-121525099D01*
X140984157Y-121525110D01*
X140896342Y-121737113D01*
X140836950Y-121958768D01*
X140807000Y-122186263D01*
X132878000Y-122186263D01*
X132848048Y-121958762D01*
X132788658Y-121737113D01*
X132700844Y-121525112D01*
X132700838Y-121525103D01*
X132700837Y-121525099D01*
X132586113Y-121326391D01*
X132586108Y-121326384D01*
X132446426Y-121144347D01*
X132446407Y-121144326D01*
X132284173Y-120982092D01*
X132284152Y-120982073D01*
X132102115Y-120842391D01*
X132102108Y-120842386D01*
X131903400Y-120727662D01*
X131903392Y-120727658D01*
X131903388Y-120727656D01*
X131691387Y-120639842D01*
X131469738Y-120580452D01*
X131469731Y-120580450D01*
X131242236Y-120550500D01*
X131242234Y-120550500D01*
X131012766Y-120550500D01*
X131012763Y-120550500D01*
X130785268Y-120580450D01*
X130563613Y-120639842D01*
X130351610Y-120727657D01*
X130351599Y-120727662D01*
X130152891Y-120842386D01*
X130152884Y-120842391D01*
X129970847Y-120982073D01*
X129970826Y-120982092D01*
X129808592Y-121144326D01*
X129808573Y-121144347D01*
X129668891Y-121326384D01*
X129668886Y-121326391D01*
X129554162Y-121525099D01*
X129554157Y-121525110D01*
X129466342Y-121737113D01*
X129406950Y-121958768D01*
X129377000Y-122186263D01*
X129377000Y-122415736D01*
X129406950Y-122643231D01*
X129406952Y-122643238D01*
X129466342Y-122864887D01*
X129554156Y-123076888D01*
X129554157Y-123076889D01*
X129554162Y-123076900D01*
X129668886Y-123275608D01*
X129668891Y-123275615D01*
X129808573Y-123457652D01*
X129808592Y-123457673D01*
X129943172Y-123592253D01*
X129977198Y-123654565D01*
X129972133Y-123725380D01*
X129929586Y-123782216D01*
X129863066Y-123807027D01*
X129805859Y-123797757D01*
X129642696Y-123730173D01*
X129426422Y-123672222D01*
X129204450Y-123643000D01*
X128980549Y-123643000D01*
X128758577Y-123672222D01*
X128542303Y-123730173D01*
X128335453Y-123815852D01*
X128335444Y-123815857D01*
X128141553Y-123927800D01*
X128077590Y-123976880D01*
X128734206Y-124633496D01*
X128713558Y-124642049D01*
X128582530Y-124729599D01*
X128471099Y-124841030D01*
X128383549Y-124972058D01*
X128374996Y-124992706D01*
X127718380Y-124336090D01*
X127669300Y-124400053D01*
X127557357Y-124593944D01*
X127557352Y-124593953D01*
X127471673Y-124800803D01*
X127413722Y-125017077D01*
X127384500Y-125239049D01*
X126238500Y-125239049D01*
X126238500Y-100706905D01*
X126258502Y-100638784D01*
X126312158Y-100592291D01*
X126382432Y-100582187D01*
X126412719Y-100590496D01*
X126479562Y-100618183D01*
X126479561Y-100618183D01*
X126664641Y-100654999D01*
X126664645Y-100655000D01*
X126905000Y-100655000D01*
X126905000Y-99997000D01*
X127413000Y-99997000D01*
X127413000Y-100655000D01*
X127653355Y-100655000D01*
X127653358Y-100654999D01*
X127838438Y-100618183D01*
X127838441Y-100618182D01*
X128012783Y-100545967D01*
X128169684Y-100441129D01*
X128169691Y-100441124D01*
X128303124Y-100307691D01*
X128303129Y-100307684D01*
X128407967Y-100150783D01*
X128480182Y-99976441D01*
X128480183Y-99976438D01*
X128485244Y-99951000D01*
X127719060Y-99951000D01*
X127743205Y-99937060D01*
X127799060Y-99881205D01*
X127838556Y-99812796D01*
X127859000Y-99736496D01*
X127859000Y-99657504D01*
X127838556Y-99581204D01*
X127799060Y-99512795D01*
X127743205Y-99456940D01*
X127719060Y-99443000D01*
X128485243Y-99443000D01*
X128480183Y-99417561D01*
X128480182Y-99417558D01*
X128407967Y-99243216D01*
X128303129Y-99086315D01*
X128303124Y-99086308D01*
X128169691Y-98952875D01*
X128169684Y-98952870D01*
X128012783Y-98848032D01*
X127838441Y-98775817D01*
X127838438Y-98775816D01*
X127653358Y-98739000D01*
X127413000Y-98739000D01*
X127413000Y-99397000D01*
X126905000Y-99397000D01*
X126905000Y-98739000D01*
X126664641Y-98739000D01*
X126479561Y-98775816D01*
X126479554Y-98775818D01*
X126412717Y-98803503D01*
X126342127Y-98811092D01*
X126278641Y-98779312D01*
X126242414Y-98718254D01*
X126238500Y-98687094D01*
X126238500Y-92066905D01*
X126258502Y-91998784D01*
X126312158Y-91952291D01*
X126382432Y-91942187D01*
X126412719Y-91950496D01*
X126479562Y-91978183D01*
X126479561Y-91978183D01*
X126664641Y-92014999D01*
X126664645Y-92015000D01*
X126905000Y-92015000D01*
X126905000Y-91357000D01*
X127413000Y-91357000D01*
X127413000Y-92015000D01*
G37*
%TD.AperFunction*%
%TA.AperFunction,Conductor*%
G36*
X134518167Y-116124694D02*
G01*
X134577410Y-116227306D01*
X134661194Y-116311090D01*
X134763806Y-116370333D01*
X134853375Y-116394333D01*
X134277855Y-116969854D01*
X134277855Y-116969855D01*
X134302268Y-116987593D01*
X134472251Y-117074203D01*
X134472257Y-117074206D01*
X134562928Y-117103667D01*
X134621534Y-117143741D01*
X134649171Y-117209137D01*
X134637064Y-117279094D01*
X134589058Y-117331400D01*
X134523992Y-117349500D01*
X133392928Y-117349500D01*
X133324807Y-117329498D01*
X133278314Y-117275842D01*
X133268210Y-117205568D01*
X133297704Y-117140988D01*
X133340414Y-117111332D01*
X133339799Y-117110205D01*
X133347701Y-117105889D01*
X133347704Y-117105889D01*
X133350673Y-117103667D01*
X133464761Y-117018261D01*
X133552387Y-116901207D01*
X133552387Y-116901206D01*
X133552389Y-116901204D01*
X133603489Y-116764201D01*
X133605995Y-116740896D01*
X133609999Y-116703649D01*
X133610000Y-116703632D01*
X133610000Y-116540122D01*
X133630002Y-116472001D01*
X133683658Y-116425508D01*
X133753932Y-116415404D01*
X133818512Y-116444898D01*
X133848267Y-116482920D01*
X133900904Y-116586227D01*
X133918643Y-116610643D01*
X133918644Y-116610643D01*
X134494166Y-116035122D01*
X134518167Y-116124694D01*
G37*
%TD.AperFunction*%
%TA.AperFunction,Conductor*%
G36*
X159719706Y-113714102D02*
G01*
X159751548Y-113717756D01*
X159754428Y-113720111D01*
X159758094Y-113720746D01*
X159781701Y-113742412D01*
X159806509Y-113762698D01*
X159808733Y-113767222D01*
X159810400Y-113768752D01*
X159822333Y-113794882D01*
X159847755Y-113873125D01*
X159848832Y-113876438D01*
X159935477Y-114046488D01*
X160047657Y-114200891D01*
X160047659Y-114200893D01*
X160047661Y-114200896D01*
X160182603Y-114335838D01*
X160182606Y-114335840D01*
X160182609Y-114335843D01*
X160337012Y-114448023D01*
X160507062Y-114534668D01*
X160688572Y-114593644D01*
X160877074Y-114623500D01*
X160877077Y-114623500D01*
X161016011Y-114623500D01*
X161084132Y-114643502D01*
X161130625Y-114697158D01*
X161140729Y-114767432D01*
X161111235Y-114832012D01*
X161105106Y-114838595D01*
X160794063Y-115149638D01*
X160731751Y-115183664D01*
X160660936Y-115178599D01*
X160615873Y-115149638D01*
X160492396Y-115026161D01*
X160492393Y-115026159D01*
X160492391Y-115026157D01*
X160337988Y-114913977D01*
X160167938Y-114827332D01*
X160167935Y-114827331D01*
X160167933Y-114827330D01*
X159986433Y-114768357D01*
X159986429Y-114768356D01*
X159986428Y-114768356D01*
X159797926Y-114738500D01*
X159607074Y-114738500D01*
X159424406Y-114767432D01*
X159418566Y-114768357D01*
X159237066Y-114827330D01*
X159237060Y-114827333D01*
X159067008Y-114913979D01*
X158912606Y-115026159D01*
X158912603Y-115026161D01*
X158777661Y-115161103D01*
X158777659Y-115161106D01*
X158665479Y-115315508D01*
X158578833Y-115485560D01*
X158578832Y-115485563D01*
X158552333Y-115567118D01*
X158512259Y-115625723D01*
X158446862Y-115653360D01*
X158376906Y-115641253D01*
X158324600Y-115593247D01*
X158312667Y-115567118D01*
X158301148Y-115531667D01*
X158286168Y-115485562D01*
X158199523Y-115315512D01*
X158087343Y-115161109D01*
X158087340Y-115161106D01*
X158087338Y-115161103D01*
X157952396Y-115026161D01*
X157952393Y-115026159D01*
X157952391Y-115026157D01*
X157797988Y-114913977D01*
X157627938Y-114827332D01*
X157627935Y-114827331D01*
X157627933Y-114827330D01*
X157446433Y-114768357D01*
X157446429Y-114768356D01*
X157446428Y-114768356D01*
X157257926Y-114738500D01*
X157067074Y-114738500D01*
X156884406Y-114767432D01*
X156878566Y-114768357D01*
X156697066Y-114827330D01*
X156697060Y-114827333D01*
X156527008Y-114913979D01*
X156372606Y-115026159D01*
X156372603Y-115026161D01*
X156237661Y-115161103D01*
X156237659Y-115161106D01*
X156125479Y-115315508D01*
X156038833Y-115485560D01*
X156038832Y-115485563D01*
X156012070Y-115567926D01*
X155971996Y-115626532D01*
X155906599Y-115654168D01*
X155836642Y-115642061D01*
X155784336Y-115594054D01*
X155772404Y-115567925D01*
X155745706Y-115485757D01*
X155745703Y-115485751D01*
X155659093Y-115315768D01*
X155641355Y-115291355D01*
X155641354Y-115291355D01*
X155065833Y-115866875D01*
X155041833Y-115777306D01*
X154982590Y-115674694D01*
X154898806Y-115590910D01*
X154796194Y-115531667D01*
X154706622Y-115507666D01*
X155120307Y-115093980D01*
X155182620Y-115059955D01*
X155184666Y-115059528D01*
X155239274Y-115048666D01*
X155354564Y-115000911D01*
X155458322Y-114931582D01*
X155729498Y-114660404D01*
X155791811Y-114626380D01*
X155818594Y-114623500D01*
X155987923Y-114623500D01*
X155987926Y-114623500D01*
X156176428Y-114593644D01*
X156357938Y-114534668D01*
X156527988Y-114448023D01*
X156682391Y-114335843D01*
X156817343Y-114200891D01*
X156929523Y-114046488D01*
X157016168Y-113876438D01*
X157023103Y-113855093D01*
X157024679Y-113852788D01*
X157024879Y-113849997D01*
X157044599Y-113823653D01*
X157063172Y-113796490D01*
X157065749Y-113795400D01*
X157067426Y-113793161D01*
X157098255Y-113781661D01*
X157128567Y-113768851D01*
X157131323Y-113769328D01*
X157133946Y-113768350D01*
X157166110Y-113775346D01*
X157198524Y-113780955D01*
X157201420Y-113783027D01*
X157203320Y-113783441D01*
X157232030Y-113804934D01*
X157300221Y-113873125D01*
X157323392Y-113905016D01*
X157395477Y-114046488D01*
X157507657Y-114200891D01*
X157507659Y-114200893D01*
X157507661Y-114200896D01*
X157642603Y-114335838D01*
X157642606Y-114335840D01*
X157642609Y-114335843D01*
X157797012Y-114448023D01*
X157967062Y-114534668D01*
X158148572Y-114593644D01*
X158337074Y-114623500D01*
X158337077Y-114623500D01*
X158527923Y-114623500D01*
X158527926Y-114623500D01*
X158716428Y-114593644D01*
X158897938Y-114534668D01*
X159067988Y-114448023D01*
X159222391Y-114335843D01*
X159357343Y-114200891D01*
X159469523Y-114046488D01*
X159556168Y-113876438D01*
X159582667Y-113794881D01*
X159600752Y-113768433D01*
X159617302Y-113740989D01*
X159620640Y-113739347D01*
X159622741Y-113736276D01*
X159652257Y-113723802D01*
X159681014Y-113709663D01*
X159684710Y-113710087D01*
X159688137Y-113708639D01*
X159719706Y-113714102D01*
G37*
%TD.AperFunction*%
%TA.AperFunction,Conductor*%
G36*
X149421121Y-103552002D02*
G01*
X149467614Y-103605658D01*
X149479000Y-103658000D01*
X149479000Y-105040000D01*
X149723585Y-105040000D01*
X149723597Y-105039999D01*
X149784093Y-105033494D01*
X149784096Y-105033493D01*
X149815247Y-105021874D01*
X149886063Y-105016807D01*
X149903309Y-105021870D01*
X149935799Y-105033989D01*
X149935801Y-105033989D01*
X149935803Y-105033990D01*
X149996350Y-105040499D01*
X149996355Y-105040499D01*
X149996362Y-105040500D01*
X149996368Y-105040500D01*
X150993632Y-105040500D01*
X150993638Y-105040500D01*
X150993645Y-105040499D01*
X150993649Y-105040499D01*
X151054196Y-105033990D01*
X151054197Y-105033989D01*
X151054201Y-105033989D01*
X151085966Y-105022140D01*
X151156779Y-105017074D01*
X151174025Y-105022137D01*
X151205799Y-105033989D01*
X151205801Y-105033989D01*
X151205803Y-105033990D01*
X151266350Y-105040499D01*
X151266355Y-105040499D01*
X151266362Y-105040500D01*
X151569404Y-105040500D01*
X151637525Y-105060502D01*
X151684018Y-105114158D01*
X151694122Y-105184432D01*
X151664628Y-105249012D01*
X151658500Y-105255595D01*
X151322990Y-105591106D01*
X151260677Y-105625131D01*
X151233894Y-105628011D01*
X147278823Y-105628011D01*
X147210702Y-105608009D01*
X147164209Y-105554353D01*
X147154105Y-105484079D01*
X147183599Y-105419499D01*
X147189713Y-105412930D01*
X148057003Y-104545640D01*
X148119312Y-104511618D01*
X148190127Y-104516682D01*
X148246963Y-104559229D01*
X148271373Y-104621265D01*
X148273505Y-104641094D01*
X148324555Y-104777964D01*
X148324555Y-104777965D01*
X148412095Y-104894904D01*
X148529034Y-104982444D01*
X148665906Y-105033494D01*
X148726402Y-105039999D01*
X148726415Y-105040000D01*
X148971000Y-105040000D01*
X148971000Y-103658000D01*
X148991002Y-103589879D01*
X149044658Y-103543386D01*
X149097000Y-103532000D01*
X149353000Y-103532000D01*
X149421121Y-103552002D01*
G37*
%TD.AperFunction*%
%TA.AperFunction,Conductor*%
G36*
X167073621Y-84327002D02*
G01*
X167120114Y-84380658D01*
X167131500Y-84433000D01*
X167131500Y-103990180D01*
X167122762Y-104019938D01*
X167116251Y-104050266D01*
X167112854Y-104053680D01*
X167111498Y-104058301D01*
X167088060Y-104078609D01*
X167066185Y-104100604D01*
X167061481Y-104101640D01*
X167057842Y-104104794D01*
X167027140Y-104109208D01*
X166996852Y-104115883D01*
X166992335Y-104114212D01*
X166987568Y-104114898D01*
X166959352Y-104102012D01*
X166930264Y-104091252D01*
X166925569Y-104086583D01*
X166922988Y-104085404D01*
X166912982Y-104074063D01*
X166904837Y-104065962D01*
X166902699Y-104063123D01*
X166821678Y-103941865D01*
X166780151Y-103900338D01*
X166774837Y-103893279D01*
X166765327Y-103867993D01*
X166752379Y-103844280D01*
X166753023Y-103835274D01*
X166749846Y-103826826D01*
X166749500Y-103817497D01*
X166749500Y-89925607D01*
X166749499Y-89925603D01*
X166743586Y-89895876D01*
X166725155Y-89803215D01*
X166705836Y-89756575D01*
X166677401Y-89687925D01*
X166608072Y-89584167D01*
X165093833Y-88069929D01*
X165033351Y-88029516D01*
X164989869Y-88000462D01*
X164944341Y-87945985D01*
X164935493Y-87875542D01*
X164941820Y-87851653D01*
X164941989Y-87851201D01*
X164948500Y-87790638D01*
X164948500Y-86793362D01*
X164947314Y-86782328D01*
X164941990Y-86732803D01*
X164941989Y-86732801D01*
X164941989Y-86732799D01*
X164929873Y-86700317D01*
X164924807Y-86629505D01*
X164929874Y-86612247D01*
X164941493Y-86581096D01*
X164941494Y-86581093D01*
X164947999Y-86520597D01*
X164948000Y-86520585D01*
X164948000Y-86276000D01*
X163566000Y-86276000D01*
X163497879Y-86255998D01*
X163451386Y-86202342D01*
X163440000Y-86150000D01*
X163440000Y-86022000D01*
X163312000Y-86022000D01*
X163243879Y-86001998D01*
X163197386Y-85948342D01*
X163186000Y-85896000D01*
X163186000Y-85768000D01*
X163694000Y-85768000D01*
X164948000Y-85768000D01*
X164948000Y-85523414D01*
X164947999Y-85523402D01*
X164941494Y-85462906D01*
X164890444Y-85326035D01*
X164890444Y-85326034D01*
X164802904Y-85209095D01*
X164685965Y-85121555D01*
X164549093Y-85070505D01*
X164488597Y-85064000D01*
X163694000Y-85064000D01*
X163694000Y-85768000D01*
X163186000Y-85768000D01*
X163186000Y-85064000D01*
X162391402Y-85064000D01*
X162330906Y-85070505D01*
X162194035Y-85121555D01*
X162194034Y-85121555D01*
X162077095Y-85209095D01*
X161989555Y-85326034D01*
X161989554Y-85326037D01*
X161968527Y-85382412D01*
X161925980Y-85439247D01*
X161859459Y-85464057D01*
X161790085Y-85448965D01*
X161761379Y-85427474D01*
X160855998Y-84522094D01*
X160821973Y-84459783D01*
X160827038Y-84388968D01*
X160869585Y-84332132D01*
X160936105Y-84307321D01*
X160945094Y-84307000D01*
X167005500Y-84307000D01*
X167073621Y-84327002D01*
G37*
%TD.AperFunction*%
%TA.AperFunction,Conductor*%
G36*
X144917429Y-85235502D02*
G01*
X144963922Y-85289158D01*
X144974026Y-85359432D01*
X144967364Y-85385532D01*
X144938505Y-85462905D01*
X144932000Y-85523402D01*
X144932000Y-85768000D01*
X147948000Y-85768000D01*
X147948000Y-85523414D01*
X147947999Y-85523402D01*
X147941494Y-85462905D01*
X147912636Y-85385532D01*
X147907572Y-85314716D01*
X147941597Y-85252404D01*
X148003909Y-85218379D01*
X148030692Y-85215500D01*
X159705406Y-85215500D01*
X159773527Y-85235502D01*
X159794501Y-85252405D01*
X161894595Y-87352499D01*
X161928621Y-87414811D01*
X161931500Y-87441594D01*
X161931500Y-87790649D01*
X161938009Y-87851195D01*
X161938010Y-87851198D01*
X161949860Y-87882970D01*
X161954923Y-87953786D01*
X161949860Y-87971030D01*
X161938010Y-88002801D01*
X161938009Y-88002804D01*
X161931500Y-88063350D01*
X161931500Y-89060632D01*
X161931681Y-89064011D01*
X161930416Y-89064078D01*
X161928502Y-89074685D01*
X161930767Y-89090432D01*
X161922326Y-89108912D01*
X161918720Y-89128902D01*
X161907880Y-89140543D01*
X161901273Y-89155012D01*
X161884185Y-89165993D01*
X161870341Y-89180863D01*
X161854127Y-89185310D01*
X161841547Y-89193396D01*
X161806049Y-89198500D01*
X161759291Y-89198500D01*
X161691170Y-89178498D01*
X161654526Y-89142502D01*
X161614680Y-89082868D01*
X161614675Y-89082862D01*
X161488137Y-88956324D01*
X161488135Y-88956322D01*
X161339336Y-88856898D01*
X161222429Y-88808473D01*
X161174003Y-88788414D01*
X161174001Y-88788413D01*
X161174000Y-88788413D01*
X161085645Y-88770838D01*
X160998481Y-88753500D01*
X160998479Y-88753500D01*
X160819521Y-88753500D01*
X160819518Y-88753500D01*
X160698854Y-88777502D01*
X160644000Y-88788413D01*
X160643999Y-88788413D01*
X160643996Y-88788414D01*
X160478662Y-88856899D01*
X160329869Y-88956319D01*
X160329862Y-88956324D01*
X160203324Y-89082862D01*
X160203319Y-89082869D01*
X160119813Y-89207846D01*
X160103898Y-89231664D01*
X160089716Y-89265902D01*
X160035414Y-89396996D01*
X160000500Y-89572518D01*
X160000500Y-89751481D01*
X160010791Y-89803215D01*
X160035135Y-89925603D01*
X160035414Y-89927003D01*
X160038839Y-89935272D01*
X160103898Y-90092336D01*
X160203322Y-90241135D01*
X160329865Y-90367678D01*
X160474120Y-90464066D01*
X160478664Y-90467102D01*
X160478669Y-90467104D01*
X160553477Y-90498092D01*
X160608758Y-90542640D01*
X160631178Y-90610004D01*
X160613619Y-90678795D01*
X160561657Y-90727173D01*
X160553477Y-90730908D01*
X160478669Y-90761895D01*
X160478664Y-90761897D01*
X160329869Y-90861319D01*
X160329862Y-90861324D01*
X160203324Y-90987862D01*
X160203319Y-90987869D01*
X160103899Y-91136662D01*
X160035414Y-91301996D01*
X160000500Y-91477518D01*
X160000500Y-91656481D01*
X160002730Y-91667691D01*
X160035413Y-91832000D01*
X160103898Y-91997336D01*
X160203322Y-92146135D01*
X160329865Y-92272678D01*
X160478664Y-92372102D01*
X160644000Y-92440587D01*
X160819521Y-92475500D01*
X160819522Y-92475500D01*
X160998478Y-92475500D01*
X160998479Y-92475500D01*
X161174000Y-92440587D01*
X161339336Y-92372102D01*
X161488135Y-92272678D01*
X161614678Y-92146135D01*
X161700735Y-92017340D01*
X161755211Y-91971814D01*
X161825655Y-91962965D01*
X161889699Y-91993606D01*
X161927010Y-92054008D01*
X161931500Y-92087343D01*
X161931500Y-92870649D01*
X161938009Y-92931195D01*
X161938010Y-92931198D01*
X161949860Y-92962970D01*
X161954923Y-93033786D01*
X161949860Y-93051030D01*
X161938010Y-93082801D01*
X161938009Y-93082804D01*
X161931500Y-93143350D01*
X161931500Y-94140649D01*
X161938009Y-94201195D01*
X161938010Y-94201198D01*
X161949860Y-94232970D01*
X161954923Y-94303786D01*
X161949860Y-94321030D01*
X161938010Y-94352801D01*
X161938009Y-94352804D01*
X161931500Y-94413350D01*
X161931500Y-95410632D01*
X161931681Y-95414011D01*
X161930416Y-95414078D01*
X161918720Y-95478902D01*
X161870341Y-95530863D01*
X161806049Y-95548500D01*
X161396285Y-95548500D01*
X161348068Y-95538909D01*
X161301000Y-95519413D01*
X161275305Y-95514302D01*
X161125481Y-95484500D01*
X161125479Y-95484500D01*
X160946521Y-95484500D01*
X160946518Y-95484500D01*
X160815771Y-95510507D01*
X160771000Y-95519413D01*
X160770999Y-95519413D01*
X160770996Y-95519414D01*
X160605662Y-95587899D01*
X160456869Y-95687319D01*
X160456862Y-95687324D01*
X160330324Y-95813862D01*
X160330319Y-95813869D01*
X160230899Y-95962662D01*
X160162414Y-96127996D01*
X160127500Y-96303518D01*
X160127500Y-96482481D01*
X160162414Y-96658003D01*
X160172850Y-96683197D01*
X160230898Y-96823336D01*
X160330322Y-96972135D01*
X160456865Y-97098678D01*
X160605664Y-97198102D01*
X160771000Y-97266587D01*
X160946521Y-97301500D01*
X160946522Y-97301500D01*
X161125478Y-97301500D01*
X161125479Y-97301500D01*
X161301000Y-97266587D01*
X161466336Y-97198102D01*
X161615135Y-97098678D01*
X161716405Y-96997408D01*
X161778717Y-96963382D01*
X161849532Y-96968447D01*
X161906368Y-97010994D01*
X161931179Y-97077514D01*
X161931500Y-97086503D01*
X161931500Y-97950632D01*
X161931681Y-97954011D01*
X161930416Y-97954078D01*
X161918720Y-98018902D01*
X161870341Y-98070863D01*
X161806049Y-98088500D01*
X151404885Y-98088500D01*
X151331850Y-98103028D01*
X151282497Y-98112845D01*
X151282495Y-98112845D01*
X151282494Y-98112846D01*
X151167205Y-98160601D01*
X151063453Y-98229926D01*
X151063446Y-98229931D01*
X148163595Y-101129783D01*
X148101283Y-101163809D01*
X148030468Y-101158744D01*
X147973632Y-101116197D01*
X147948821Y-101049677D01*
X147948500Y-101040688D01*
X147948500Y-100763367D01*
X147948499Y-100763350D01*
X147941990Y-100702803D01*
X147941989Y-100702801D01*
X147941989Y-100702799D01*
X147930140Y-100671033D01*
X147925074Y-100600221D01*
X147930137Y-100582974D01*
X147941989Y-100551201D01*
X147945390Y-100519571D01*
X147948499Y-100490649D01*
X147948500Y-100490632D01*
X147948500Y-99493367D01*
X147948499Y-99493350D01*
X147941990Y-99432803D01*
X147941989Y-99432801D01*
X147941989Y-99432799D01*
X147930140Y-99401033D01*
X147925074Y-99330221D01*
X147930137Y-99312974D01*
X147941989Y-99281201D01*
X147944168Y-99260939D01*
X147948499Y-99220649D01*
X147948500Y-99220632D01*
X147948500Y-98223367D01*
X147948499Y-98223350D01*
X147941990Y-98162803D01*
X147941989Y-98162801D01*
X147941989Y-98162799D01*
X147930140Y-98131033D01*
X147925074Y-98060221D01*
X147930137Y-98042974D01*
X147941989Y-98011201D01*
X147942296Y-98008354D01*
X147948499Y-97950649D01*
X147948500Y-97950632D01*
X147948500Y-96953367D01*
X147948499Y-96953350D01*
X147941990Y-96892803D01*
X147941989Y-96892801D01*
X147941989Y-96892799D01*
X147930140Y-96861033D01*
X147925074Y-96790221D01*
X147930137Y-96772974D01*
X147941989Y-96741201D01*
X147942568Y-96735821D01*
X147948499Y-96680649D01*
X147948500Y-96680632D01*
X147948500Y-96070597D01*
X150932000Y-96070597D01*
X150938505Y-96131093D01*
X150989555Y-96267964D01*
X150989555Y-96267965D01*
X151077095Y-96384904D01*
X151194034Y-96472444D01*
X151330906Y-96523494D01*
X151391402Y-96529999D01*
X151391415Y-96530000D01*
X153686000Y-96530000D01*
X154194000Y-96530000D01*
X156488585Y-96530000D01*
X156488597Y-96529999D01*
X156549093Y-96523494D01*
X156685964Y-96472444D01*
X156685965Y-96472444D01*
X156802904Y-96384904D01*
X156890444Y-96267965D01*
X156890444Y-96267964D01*
X156941494Y-96131093D01*
X156947999Y-96070597D01*
X156948000Y-96070585D01*
X156948000Y-93776000D01*
X154194000Y-93776000D01*
X154194000Y-96530000D01*
X153686000Y-96530000D01*
X153686000Y-93776000D01*
X150932000Y-93776000D01*
X150932000Y-96070597D01*
X147948500Y-96070597D01*
X147948500Y-95683367D01*
X147948499Y-95683350D01*
X147941990Y-95622803D01*
X147941989Y-95622801D01*
X147941989Y-95622799D01*
X147930140Y-95591033D01*
X147925074Y-95520221D01*
X147930137Y-95502974D01*
X147941989Y-95471201D01*
X147948138Y-95414011D01*
X147948499Y-95410649D01*
X147948500Y-95410632D01*
X147948500Y-94413367D01*
X147948499Y-94413350D01*
X147941990Y-94352803D01*
X147941989Y-94352801D01*
X147941989Y-94352799D01*
X147930140Y-94321033D01*
X147925074Y-94250221D01*
X147930137Y-94232974D01*
X147941989Y-94201201D01*
X147948500Y-94140638D01*
X147948500Y-93143362D01*
X147941990Y-93082804D01*
X147941990Y-93082803D01*
X147941989Y-93082801D01*
X147941989Y-93082799D01*
X147930140Y-93051033D01*
X147925074Y-92980221D01*
X147930137Y-92962974D01*
X147941989Y-92931201D01*
X147943211Y-92919842D01*
X147948499Y-92870649D01*
X147948500Y-92870632D01*
X147948500Y-91873367D01*
X147948499Y-91873350D01*
X147941990Y-91812803D01*
X147941989Y-91812801D01*
X147941989Y-91812799D01*
X147930140Y-91781033D01*
X147925074Y-91710221D01*
X147930137Y-91692974D01*
X147941989Y-91661201D01*
X147942263Y-91658658D01*
X147948499Y-91600649D01*
X147948500Y-91600632D01*
X147948500Y-90973402D01*
X150932000Y-90973402D01*
X150932000Y-93268000D01*
X153686000Y-93268000D01*
X154194000Y-93268000D01*
X156948000Y-93268000D01*
X156948000Y-90973414D01*
X156947999Y-90973402D01*
X156941494Y-90912906D01*
X156890444Y-90776035D01*
X156890444Y-90776034D01*
X156802904Y-90659095D01*
X156685965Y-90571555D01*
X156549093Y-90520505D01*
X156488597Y-90514000D01*
X154194000Y-90514000D01*
X154194000Y-93268000D01*
X153686000Y-93268000D01*
X153686000Y-90514000D01*
X151391402Y-90514000D01*
X151330906Y-90520505D01*
X151194035Y-90571555D01*
X151194034Y-90571555D01*
X151077095Y-90659095D01*
X150989555Y-90776034D01*
X150989555Y-90776035D01*
X150938505Y-90912906D01*
X150932000Y-90973402D01*
X147948500Y-90973402D01*
X147948500Y-90603367D01*
X147948499Y-90603350D01*
X147941990Y-90542803D01*
X147941989Y-90542801D01*
X147941989Y-90542799D01*
X147930140Y-90511033D01*
X147925074Y-90440221D01*
X147930137Y-90422974D01*
X147941989Y-90391201D01*
X147942711Y-90384490D01*
X147948499Y-90330649D01*
X147948500Y-90330632D01*
X147948500Y-89333367D01*
X147948499Y-89333350D01*
X147941990Y-89272803D01*
X147941989Y-89272801D01*
X147941989Y-89272799D01*
X147930140Y-89241033D01*
X147925074Y-89170221D01*
X147930137Y-89152974D01*
X147941989Y-89121201D01*
X147943211Y-89109842D01*
X147948499Y-89060649D01*
X147948500Y-89060632D01*
X147948500Y-88063367D01*
X147948499Y-88063350D01*
X147941990Y-88002803D01*
X147941989Y-88002801D01*
X147941989Y-88002799D01*
X147930140Y-87971033D01*
X147925074Y-87900221D01*
X147930137Y-87882974D01*
X147941989Y-87851201D01*
X147941989Y-87851197D01*
X147941990Y-87851196D01*
X147948499Y-87790649D01*
X147948500Y-87790632D01*
X147948500Y-86793367D01*
X147948499Y-86793350D01*
X147941990Y-86732803D01*
X147941989Y-86732801D01*
X147941989Y-86732799D01*
X147929873Y-86700317D01*
X147924807Y-86629505D01*
X147929874Y-86612247D01*
X147941493Y-86581096D01*
X147941494Y-86581093D01*
X147947999Y-86520597D01*
X147948000Y-86520585D01*
X147948000Y-86276000D01*
X144932000Y-86276000D01*
X144932000Y-86520585D01*
X144932181Y-86523964D01*
X144930931Y-86524030D01*
X144929008Y-86534688D01*
X144931272Y-86550432D01*
X144922832Y-86568911D01*
X144919224Y-86588905D01*
X144908384Y-86600546D01*
X144901778Y-86615012D01*
X144884689Y-86625994D01*
X144870843Y-86640865D01*
X144854630Y-86645312D01*
X144842052Y-86653396D01*
X144806554Y-86658500D01*
X144780095Y-86658500D01*
X144711974Y-86638498D01*
X144691000Y-86621595D01*
X144155528Y-86086123D01*
X143499998Y-85430594D01*
X143465974Y-85368283D01*
X143471038Y-85297468D01*
X143513585Y-85240632D01*
X143580105Y-85215821D01*
X143589094Y-85215500D01*
X144849308Y-85215500D01*
X144917429Y-85235502D01*
G37*
%TD.AperFunction*%
%TA.AperFunction,Conductor*%
G36*
X134392427Y-97274031D02*
G01*
X134530521Y-97301500D01*
X134647037Y-97301500D01*
X134655346Y-97303152D01*
X134660505Y-97302222D01*
X134695255Y-97311091D01*
X134739718Y-97329508D01*
X134794999Y-97374056D01*
X134817420Y-97441419D01*
X134817500Y-97445917D01*
X134817500Y-97797493D01*
X134820393Y-97834251D01*
X134820393Y-97834252D01*
X134866106Y-97991597D01*
X134876016Y-98008354D01*
X134893474Y-98077170D01*
X134876017Y-98136626D01*
X134866569Y-98152601D01*
X134824327Y-98298000D01*
X135114621Y-98298000D01*
X135178760Y-98315546D01*
X135192980Y-98323956D01*
X135206403Y-98331894D01*
X135363746Y-98377606D01*
X135400506Y-98380499D01*
X135400507Y-98380500D01*
X135510000Y-98380500D01*
X135518825Y-98383091D01*
X135527932Y-98381782D01*
X135552357Y-98392937D01*
X135578121Y-98400502D01*
X135584145Y-98407455D01*
X135592512Y-98411276D01*
X135607026Y-98433861D01*
X135624614Y-98454158D01*
X135626938Y-98464844D01*
X135630896Y-98471002D01*
X135636000Y-98506500D01*
X135636000Y-98680000D01*
X135615998Y-98748121D01*
X135562342Y-98794614D01*
X135510000Y-98806000D01*
X134824327Y-98806000D01*
X134866570Y-98951401D01*
X134949908Y-99092318D01*
X134949914Y-99092325D01*
X135065674Y-99208085D01*
X135065681Y-99208091D01*
X135206598Y-99291429D01*
X135363822Y-99337107D01*
X135363831Y-99337109D01*
X135400550Y-99339999D01*
X135400553Y-99340000D01*
X135425906Y-99340000D01*
X135494027Y-99360002D01*
X135540520Y-99413658D01*
X135550624Y-99483932D01*
X135521130Y-99548512D01*
X135515001Y-99555095D01*
X134142501Y-100927595D01*
X134080189Y-100961621D01*
X134053406Y-100964500D01*
X133355693Y-100964500D01*
X133291554Y-100946953D01*
X133157600Y-100867732D01*
X133001464Y-100822370D01*
X132964998Y-100819500D01*
X132465012Y-100819500D01*
X132428535Y-100822370D01*
X132272401Y-100867732D01*
X132272398Y-100867733D01*
X132271131Y-100868483D01*
X132270008Y-100868767D01*
X132265127Y-100870880D01*
X132264786Y-100870092D01*
X132202313Y-100885938D01*
X132159257Y-100876629D01*
X132150757Y-100873148D01*
X132141596Y-100867731D01*
X132127579Y-100863658D01*
X132121396Y-100861127D01*
X132098670Y-100842966D01*
X132074148Y-100827304D01*
X132071284Y-100821081D01*
X132065934Y-100816805D01*
X132056632Y-100789235D01*
X132044473Y-100762806D01*
X132045428Y-100756024D01*
X132043239Y-100749534D01*
X132050318Y-100721315D01*
X132054378Y-100692504D01*
X132058849Y-100687314D01*
X132060516Y-100680671D01*
X132081732Y-100660755D01*
X132100720Y-100638718D01*
X132108622Y-100635513D01*
X132112280Y-100632081D01*
X132121112Y-100630450D01*
X132144562Y-100620943D01*
X132158441Y-100618182D01*
X132332783Y-100545967D01*
X132489684Y-100441129D01*
X132489691Y-100441124D01*
X132623124Y-100307691D01*
X132623129Y-100307684D01*
X132727967Y-100150783D01*
X132800182Y-99976441D01*
X132800183Y-99976438D01*
X132805244Y-99951000D01*
X132039060Y-99951000D01*
X132063205Y-99937060D01*
X132119060Y-99881205D01*
X132158556Y-99812796D01*
X132179000Y-99736496D01*
X132179000Y-99657504D01*
X132158556Y-99581204D01*
X132119060Y-99512795D01*
X132063205Y-99456940D01*
X131994796Y-99417444D01*
X131918496Y-99397000D01*
X131655000Y-99397000D01*
X131655000Y-98830999D01*
X131624596Y-98800595D01*
X131590570Y-98738283D01*
X131595635Y-98667468D01*
X131638182Y-98610632D01*
X131704702Y-98585821D01*
X131713691Y-98585500D01*
X132037000Y-98585500D01*
X132105121Y-98605502D01*
X132151614Y-98659158D01*
X132163000Y-98711500D01*
X132163000Y-99443000D01*
X132843000Y-99443000D01*
X132911121Y-99463002D01*
X132957614Y-99516658D01*
X132969000Y-99569000D01*
X132969000Y-99656341D01*
X133021764Y-99709105D01*
X133021771Y-99709110D01*
X133161600Y-99791805D01*
X133317614Y-99837132D01*
X133349999Y-99839679D01*
X133350000Y-99839679D01*
X133858000Y-99839679D01*
X133890385Y-99837132D01*
X134046399Y-99791805D01*
X134186228Y-99709110D01*
X134186235Y-99709105D01*
X134301105Y-99594235D01*
X134301110Y-99594228D01*
X134383805Y-99454399D01*
X134424015Y-99316000D01*
X133858000Y-99316000D01*
X133858000Y-99839679D01*
X133350000Y-99839679D01*
X133350000Y-99188000D01*
X133370002Y-99119879D01*
X133423658Y-99073386D01*
X133476000Y-99062000D01*
X133604000Y-99062000D01*
X133604000Y-98946499D01*
X133605531Y-98941281D01*
X133604442Y-98935955D01*
X133615427Y-98907580D01*
X133624002Y-98878378D01*
X133628112Y-98874816D01*
X133630075Y-98869747D01*
X133654655Y-98851816D01*
X133677658Y-98831885D01*
X133684214Y-98830254D01*
X133687433Y-98827907D01*
X133708169Y-98824298D01*
X133722568Y-98820718D01*
X133726270Y-98820499D01*
X133853988Y-98820499D01*
X133890466Y-98817629D01*
X133919982Y-98809053D01*
X133934109Y-98808219D01*
X133936358Y-98808737D01*
X133941541Y-98808000D01*
X134424015Y-98808000D01*
X134383806Y-98669602D01*
X134352478Y-98616630D01*
X134335018Y-98547814D01*
X134352478Y-98488351D01*
X134384269Y-98434596D01*
X134429629Y-98278466D01*
X134432500Y-98241989D01*
X134432499Y-97842012D01*
X134429629Y-97805534D01*
X134384269Y-97649404D01*
X134384267Y-97649402D01*
X134384267Y-97649399D01*
X134301507Y-97509460D01*
X134301501Y-97509453D01*
X134278754Y-97486706D01*
X134244728Y-97424394D01*
X134249793Y-97353579D01*
X134292340Y-97296743D01*
X134358860Y-97271932D01*
X134392427Y-97274031D01*
G37*
%TD.AperFunction*%
%TA.AperFunction,Conductor*%
G36*
X142911345Y-90486875D02*
G01*
X142917210Y-90486464D01*
X142943532Y-90500885D01*
X142971052Y-90512864D01*
X142976533Y-90518965D01*
X142979474Y-90520577D01*
X142995016Y-90539542D01*
X143017929Y-90573833D01*
X143017931Y-90573835D01*
X143728595Y-91284499D01*
X143762621Y-91346811D01*
X143765500Y-91373594D01*
X143765500Y-97602404D01*
X143745498Y-97670525D01*
X143728595Y-97691499D01*
X142485772Y-98934321D01*
X142423460Y-98968347D01*
X142352644Y-98963282D01*
X142307582Y-98934321D01*
X142288810Y-98915549D01*
X142288803Y-98915544D01*
X142145605Y-98830856D01*
X141985829Y-98784437D01*
X141948511Y-98781500D01*
X141948502Y-98781500D01*
X141515498Y-98781500D01*
X141515489Y-98781500D01*
X141478171Y-98784437D01*
X141478170Y-98784437D01*
X141318394Y-98830856D01*
X141175196Y-98915544D01*
X141175189Y-98915549D01*
X141057549Y-99033189D01*
X141057544Y-99033196D01*
X140972855Y-99176395D01*
X140972855Y-99176396D01*
X140965677Y-99201104D01*
X140927463Y-99260939D01*
X140862967Y-99290615D01*
X140792664Y-99280711D01*
X140739917Y-99235951D01*
X140659678Y-99115865D01*
X140533135Y-98989322D01*
X140384336Y-98889898D01*
X140267429Y-98841473D01*
X140219003Y-98821414D01*
X140219001Y-98821413D01*
X140219000Y-98821413D01*
X140114340Y-98800595D01*
X140043481Y-98786500D01*
X140043479Y-98786500D01*
X139864521Y-98786500D01*
X139864518Y-98786500D01*
X139733771Y-98812507D01*
X139689000Y-98821413D01*
X139688999Y-98821413D01*
X139688996Y-98821414D01*
X139523662Y-98889899D01*
X139374869Y-98989319D01*
X139374862Y-98989324D01*
X139248324Y-99115862D01*
X139248319Y-99115869D01*
X139148898Y-99264663D01*
X139142050Y-99281196D01*
X139128892Y-99312964D01*
X139127544Y-99316218D01*
X139114797Y-99332036D01*
X139106359Y-99350512D01*
X139092978Y-99359111D01*
X139082996Y-99371499D01*
X139063719Y-99377914D01*
X139046633Y-99388896D01*
X139018630Y-99392922D01*
X139015633Y-99393920D01*
X139011135Y-99394000D01*
X138904967Y-99394000D01*
X138836846Y-99373998D01*
X138790353Y-99320342D01*
X138783970Y-99303153D01*
X138777592Y-99281201D01*
X138747145Y-99176399D01*
X138747143Y-99176397D01*
X138747143Y-99176394D01*
X138662455Y-99033196D01*
X138662450Y-99033189D01*
X138655141Y-99025880D01*
X138621115Y-98963568D01*
X138626180Y-98892753D01*
X138655137Y-98847694D01*
X138811071Y-98691761D01*
X138880400Y-98588003D01*
X138895246Y-98552160D01*
X138901633Y-98544233D01*
X138904304Y-98534411D01*
X138923536Y-98517053D01*
X138939793Y-98496880D01*
X138950856Y-98492397D01*
X138957010Y-98486844D01*
X138985592Y-98478323D01*
X138991209Y-98476048D01*
X138993182Y-98475723D01*
X139030561Y-98470803D01*
X139035470Y-98468769D01*
X139048553Y-98466618D01*
X139069843Y-98469241D01*
X139101610Y-98469241D01*
X139107437Y-98470802D01*
X139107439Y-98470803D01*
X139219075Y-98485500D01*
X139418924Y-98485499D01*
X139530561Y-98470803D01*
X139530569Y-98470799D01*
X139536386Y-98469242D01*
X139601610Y-98469241D01*
X139607437Y-98470802D01*
X139607439Y-98470803D01*
X139719075Y-98485500D01*
X139918924Y-98485499D01*
X140030561Y-98470803D01*
X140030569Y-98470799D01*
X140036386Y-98469242D01*
X140101610Y-98469241D01*
X140107437Y-98470802D01*
X140107439Y-98470803D01*
X140219075Y-98485500D01*
X140418924Y-98485499D01*
X140530561Y-98470803D01*
X140530569Y-98470799D01*
X140536386Y-98469242D01*
X140601610Y-98469241D01*
X140607437Y-98470802D01*
X140607439Y-98470803D01*
X140719075Y-98485500D01*
X140918924Y-98485499D01*
X141030561Y-98470803D01*
X141169464Y-98413267D01*
X141288742Y-98321742D01*
X141380267Y-98202464D01*
X141437803Y-98063561D01*
X141452500Y-97951925D01*
X141452499Y-97386498D01*
X141472501Y-97318378D01*
X141526157Y-97271885D01*
X141578499Y-97260499D01*
X142143924Y-97260499D01*
X142143932Y-97260498D01*
X142148437Y-97259904D01*
X142255561Y-97245803D01*
X142394464Y-97188267D01*
X142513742Y-97096742D01*
X142605267Y-96977464D01*
X142662803Y-96838561D01*
X142677500Y-96726925D01*
X142677499Y-96527076D01*
X142677027Y-96523494D01*
X142670307Y-96472444D01*
X142662803Y-96415439D01*
X142662801Y-96415435D01*
X142661241Y-96409611D01*
X142661242Y-96344387D01*
X142662800Y-96338567D01*
X142662803Y-96338561D01*
X142677500Y-96226925D01*
X142677499Y-96027076D01*
X142662803Y-95915439D01*
X142662801Y-95915435D01*
X142661241Y-95909611D01*
X142661242Y-95844387D01*
X142662800Y-95838567D01*
X142662803Y-95838561D01*
X142677500Y-95726925D01*
X142677499Y-95527076D01*
X142676490Y-95519414D01*
X142667347Y-95449955D01*
X142662803Y-95415439D01*
X142662801Y-95415435D01*
X142661241Y-95409611D01*
X142661242Y-95344387D01*
X142662800Y-95338567D01*
X142662803Y-95338561D01*
X142677500Y-95226925D01*
X142677499Y-95027076D01*
X142662803Y-94915439D01*
X142662801Y-94915435D01*
X142661241Y-94909611D01*
X142661242Y-94844387D01*
X142662800Y-94838567D01*
X142662803Y-94838561D01*
X142677500Y-94726925D01*
X142677499Y-94527076D01*
X142671901Y-94484555D01*
X142667075Y-94447891D01*
X142662803Y-94415439D01*
X142662801Y-94415435D01*
X142661241Y-94409611D01*
X142661242Y-94344387D01*
X142662800Y-94338567D01*
X142662803Y-94338561D01*
X142677500Y-94226925D01*
X142677499Y-94027076D01*
X142674979Y-94007936D01*
X142662803Y-93915441D01*
X142662803Y-93915439D01*
X142662801Y-93915435D01*
X142661241Y-93909611D01*
X142661242Y-93844387D01*
X142662800Y-93838567D01*
X142662803Y-93838561D01*
X142677500Y-93726925D01*
X142677499Y-93527076D01*
X142662803Y-93415439D01*
X142605267Y-93276536D01*
X142513742Y-93157258D01*
X142394464Y-93065733D01*
X142255561Y-93008197D01*
X142255559Y-93008196D01*
X142143927Y-92993500D01*
X142143925Y-92993500D01*
X141578499Y-92993500D01*
X141510378Y-92973498D01*
X141463885Y-92919842D01*
X141452499Y-92867500D01*
X141452499Y-92302075D01*
X141452498Y-92302067D01*
X141448629Y-92272678D01*
X141437803Y-92190439D01*
X141380267Y-92051536D01*
X141288742Y-91932258D01*
X141169464Y-91840733D01*
X141030561Y-91783197D01*
X141030560Y-91783196D01*
X140933191Y-91770378D01*
X140868264Y-91741656D01*
X140829172Y-91682390D01*
X140828327Y-91611399D01*
X140860539Y-91556363D01*
X141081071Y-91335833D01*
X141091839Y-91319716D01*
X141146314Y-91274189D01*
X141216757Y-91265339D01*
X141280801Y-91295978D01*
X141296167Y-91312494D01*
X141299914Y-91317325D01*
X141415674Y-91433085D01*
X141415681Y-91433091D01*
X141556599Y-91516429D01*
X141713829Y-91562109D01*
X141713824Y-91562109D01*
X141731999Y-91563539D01*
X141732000Y-91563539D01*
X142240000Y-91563539D01*
X142258173Y-91562109D01*
X142415400Y-91516429D01*
X142556318Y-91433091D01*
X142556325Y-91433085D01*
X142672085Y-91317325D01*
X142672091Y-91317318D01*
X142755429Y-91176401D01*
X142797673Y-91031000D01*
X142240000Y-91031000D01*
X142240000Y-91563539D01*
X141732000Y-91563539D01*
X141732000Y-90903000D01*
X141752002Y-90834879D01*
X141805658Y-90788386D01*
X141858000Y-90777000D01*
X141986000Y-90777000D01*
X141986000Y-90731500D01*
X142006002Y-90663379D01*
X142059658Y-90616886D01*
X142112000Y-90605500D01*
X142221493Y-90605500D01*
X142221493Y-90605499D01*
X142258254Y-90602606D01*
X142415597Y-90556894D01*
X142443240Y-90540546D01*
X142507379Y-90523000D01*
X142804089Y-90523000D01*
X142813547Y-90515940D01*
X142835873Y-90495886D01*
X142841675Y-90494945D01*
X142846387Y-90491429D01*
X142876329Y-90489329D01*
X142905955Y-90484529D01*
X142911345Y-90486875D01*
G37*
%TD.AperFunction*%
%TA.AperFunction,Conductor*%
G36*
X133149385Y-81544564D02*
G01*
X133164503Y-81554279D01*
X133242202Y-81612444D01*
X133242796Y-81612889D01*
X133379795Y-81663988D01*
X133379803Y-81663990D01*
X133440350Y-81670499D01*
X133440355Y-81670499D01*
X133440362Y-81670500D01*
X133479500Y-81670500D01*
X133547621Y-81690502D01*
X133594114Y-81744158D01*
X133605500Y-81796500D01*
X133605500Y-84827500D01*
X133585498Y-84895621D01*
X133531842Y-84942114D01*
X133479500Y-84953500D01*
X132891595Y-84953500D01*
X132823474Y-84933498D01*
X132802499Y-84916595D01*
X132390404Y-84504499D01*
X132356379Y-84442187D01*
X132353500Y-84415404D01*
X132353500Y-84365522D01*
X132353499Y-84365518D01*
X132318587Y-84190000D01*
X132250102Y-84024664D01*
X132150678Y-83875865D01*
X132024135Y-83749322D01*
X131875336Y-83649898D01*
X131758265Y-83601405D01*
X131710003Y-83581414D01*
X131710001Y-83581413D01*
X131710000Y-83581413D01*
X131610423Y-83561606D01*
X131534481Y-83546500D01*
X131534479Y-83546500D01*
X131355521Y-83546500D01*
X131355518Y-83546500D01*
X131250554Y-83567379D01*
X131180000Y-83581413D01*
X131179999Y-83581413D01*
X131179996Y-83581414D01*
X131014662Y-83649899D01*
X130865869Y-83749319D01*
X130865862Y-83749324D01*
X130739324Y-83875862D01*
X130739319Y-83875869D01*
X130639899Y-84024662D01*
X130571414Y-84189996D01*
X130571413Y-84189999D01*
X130571413Y-84190000D01*
X130562507Y-84234771D01*
X130536500Y-84365518D01*
X130536500Y-84544481D01*
X130550277Y-84613741D01*
X130571413Y-84720000D01*
X130639898Y-84885336D01*
X130739322Y-85034135D01*
X130865865Y-85160678D01*
X131014664Y-85260102D01*
X131180000Y-85328587D01*
X131355521Y-85363500D01*
X131405406Y-85363500D01*
X131473527Y-85383502D01*
X131494501Y-85400405D01*
X131793595Y-85699499D01*
X131827621Y-85761811D01*
X131830500Y-85788594D01*
X131830500Y-87510649D01*
X131837009Y-87571196D01*
X131837011Y-87571204D01*
X131888110Y-87708202D01*
X131888112Y-87708207D01*
X131960289Y-87804623D01*
X131985100Y-87871143D01*
X131980418Y-87915284D01*
X131957890Y-87992825D01*
X131956460Y-88010999D01*
X131956461Y-88011000D01*
X132617000Y-88011000D01*
X132685121Y-88031002D01*
X132731614Y-88084658D01*
X132743000Y-88137000D01*
X132743000Y-88265000D01*
X132788500Y-88265000D01*
X132856621Y-88285002D01*
X132903114Y-88338658D01*
X132914500Y-88391000D01*
X132914500Y-88500493D01*
X132917393Y-88537251D01*
X132917393Y-88537252D01*
X132963107Y-88694599D01*
X132979453Y-88722238D01*
X132997000Y-88786378D01*
X132997000Y-89076672D01*
X133142398Y-89034430D01*
X133158365Y-89024987D01*
X133227181Y-89007525D01*
X133286646Y-89024984D01*
X133303403Y-89034894D01*
X133460746Y-89080606D01*
X133497506Y-89083499D01*
X133497507Y-89083500D01*
X133497516Y-89083500D01*
X133498355Y-89083500D01*
X133498485Y-89083538D01*
X133499980Y-89083597D01*
X133499976Y-89083694D01*
X133499984Y-89083695D01*
X133499968Y-89083893D01*
X133499965Y-89083972D01*
X133566476Y-89103502D01*
X133612969Y-89157158D01*
X133621933Y-89184915D01*
X133629845Y-89224691D01*
X133677600Y-89339981D01*
X133746929Y-89443739D01*
X133746931Y-89443741D01*
X135636642Y-91333452D01*
X135670668Y-91395764D01*
X135673547Y-91422547D01*
X135673547Y-91472434D01*
X135678528Y-91497474D01*
X135701805Y-91614498D01*
X135708461Y-91647956D01*
X135722724Y-91682390D01*
X135776945Y-91813289D01*
X135876369Y-91962088D01*
X136002912Y-92088631D01*
X136151711Y-92188055D01*
X136317047Y-92256540D01*
X136492568Y-92291453D01*
X136492569Y-92291453D01*
X136671525Y-92291453D01*
X136671526Y-92291453D01*
X136847047Y-92256540D01*
X137011282Y-92188510D01*
X137081870Y-92180921D01*
X137145358Y-92212699D01*
X137181586Y-92273757D01*
X137185500Y-92304919D01*
X137185500Y-92867500D01*
X137165498Y-92935621D01*
X137111842Y-92982114D01*
X137059500Y-92993500D01*
X136494076Y-92993500D01*
X136494067Y-92993501D01*
X136393602Y-93006727D01*
X136382439Y-93008197D01*
X136243537Y-93065732D01*
X136243534Y-93065734D01*
X136124258Y-93157258D01*
X136032734Y-93276534D01*
X136032733Y-93276536D01*
X136032733Y-93276537D01*
X135975196Y-93415440D01*
X135960500Y-93527073D01*
X135960500Y-93726923D01*
X135960501Y-93726932D01*
X135975196Y-93838557D01*
X135976759Y-93844388D01*
X135976759Y-93909608D01*
X135975197Y-93915436D01*
X135960500Y-94027073D01*
X135960500Y-94226923D01*
X135960501Y-94226932D01*
X135975198Y-94338567D01*
X135977021Y-94345373D01*
X135977128Y-94361011D01*
X135981223Y-94373236D01*
X135977442Y-94406827D01*
X135977457Y-94408901D01*
X135973779Y-94423427D01*
X135959327Y-94447891D01*
X135947829Y-94473879D01*
X135941516Y-94478042D01*
X135937669Y-94484555D01*
X135912277Y-94497325D01*
X135888561Y-94512967D01*
X135878045Y-94514542D01*
X135874243Y-94516455D01*
X135868986Y-94515900D01*
X135851634Y-94518500D01*
X134793889Y-94518500D01*
X134780963Y-94521963D01*
X134732721Y-94534889D01*
X134732721Y-94534890D01*
X134639128Y-94559968D01*
X134639126Y-94559968D01*
X134639122Y-94559970D01*
X134500376Y-94640075D01*
X134500370Y-94640080D01*
X134263451Y-94877000D01*
X133658854Y-95481596D01*
X133631488Y-95496539D01*
X133605259Y-95513396D01*
X133598957Y-95514302D01*
X133596544Y-95515620D01*
X133569761Y-95518500D01*
X133523011Y-95518500D01*
X133454890Y-95498498D01*
X133408397Y-95444842D01*
X133397011Y-95392500D01*
X133397011Y-94597379D01*
X133397011Y-94597378D01*
X133384671Y-94551324D01*
X133386361Y-94480350D01*
X133417281Y-94429621D01*
X133684501Y-94162403D01*
X133746813Y-94128378D01*
X133773596Y-94125499D01*
X133853988Y-94125499D01*
X133890466Y-94122629D01*
X134046596Y-94077269D01*
X134046598Y-94077267D01*
X134046600Y-94077267D01*
X134166260Y-94006500D01*
X134186541Y-93994506D01*
X134301506Y-93879541D01*
X134362740Y-93776000D01*
X134384267Y-93739600D01*
X134384267Y-93739598D01*
X134384269Y-93739596D01*
X134429629Y-93583466D01*
X134432500Y-93546989D01*
X134432499Y-93147012D01*
X134429629Y-93110534D01*
X134384269Y-92954404D01*
X134352477Y-92900647D01*
X134335018Y-92831833D01*
X134352478Y-92772368D01*
X134383807Y-92719395D01*
X134424015Y-92581000D01*
X133941542Y-92581000D01*
X133906390Y-92575997D01*
X133890468Y-92571371D01*
X133890464Y-92571370D01*
X133853998Y-92568500D01*
X133354012Y-92568500D01*
X133317534Y-92571370D01*
X133301611Y-92575997D01*
X133266459Y-92581000D01*
X133083395Y-92581000D01*
X133015274Y-92560998D01*
X132968781Y-92507342D01*
X132965348Y-92499055D01*
X132939889Y-92430796D01*
X132939887Y-92430794D01*
X132939887Y-92430792D01*
X132852261Y-92313738D01*
X132735207Y-92226112D01*
X132735202Y-92226110D01*
X132598204Y-92175011D01*
X132598196Y-92175009D01*
X132591388Y-92174278D01*
X132525796Y-92147110D01*
X132485304Y-92088792D01*
X132482770Y-92017841D01*
X132518996Y-91956782D01*
X132582483Y-91925002D01*
X132604856Y-91923000D01*
X133003000Y-91923000D01*
X133071121Y-91943002D01*
X133117614Y-91996658D01*
X133129000Y-92049000D01*
X133129000Y-92073000D01*
X133350000Y-92073000D01*
X133858000Y-92073000D01*
X134424015Y-92073000D01*
X134383805Y-91934600D01*
X134301110Y-91794771D01*
X134301105Y-91794764D01*
X134186235Y-91679894D01*
X134186228Y-91679889D01*
X134046399Y-91597194D01*
X133890391Y-91551869D01*
X133858000Y-91549319D01*
X133858000Y-92073000D01*
X133350000Y-92073000D01*
X133350000Y-91549319D01*
X133317610Y-91551869D01*
X133317607Y-91551869D01*
X133161603Y-91597193D01*
X133087335Y-91641115D01*
X133054682Y-91649398D01*
X133022304Y-91658658D01*
X133020422Y-91658090D01*
X133018518Y-91658574D01*
X132986574Y-91647891D01*
X132954327Y-91638174D01*
X132952558Y-91636515D01*
X132951187Y-91636057D01*
X132927390Y-91614498D01*
X132814313Y-91482119D01*
X132805288Y-91461980D01*
X132792064Y-91444316D01*
X132791055Y-91430223D01*
X132785278Y-91417331D01*
X132788572Y-91395512D01*
X132786998Y-91373500D01*
X132793712Y-91352059D01*
X132800184Y-91336435D01*
X132805244Y-91311000D01*
X132039060Y-91311000D01*
X132063205Y-91297060D01*
X132119060Y-91241205D01*
X132158556Y-91172796D01*
X132179000Y-91096496D01*
X132179000Y-91017504D01*
X132158556Y-90941204D01*
X132119060Y-90872795D01*
X132063205Y-90816940D01*
X132039060Y-90803000D01*
X132805243Y-90803000D01*
X132800183Y-90777561D01*
X132800182Y-90777558D01*
X132727967Y-90603216D01*
X132623129Y-90446315D01*
X132623124Y-90446308D01*
X132489691Y-90312875D01*
X132489684Y-90312870D01*
X132332783Y-90208032D01*
X132158441Y-90135817D01*
X132158438Y-90135816D01*
X131973358Y-90099000D01*
X131583000Y-90099000D01*
X131583000Y-90757000D01*
X131075000Y-90757000D01*
X131075000Y-90099000D01*
X130684641Y-90099000D01*
X130499561Y-90135816D01*
X130499558Y-90135817D01*
X130325216Y-90208032D01*
X130168315Y-90312870D01*
X130168308Y-90312875D01*
X130134595Y-90346589D01*
X130072283Y-90380615D01*
X130001468Y-90375550D01*
X129944632Y-90333003D01*
X129919821Y-90266483D01*
X129919500Y-90257494D01*
X129919500Y-89394107D01*
X129919499Y-89394103D01*
X129895155Y-89271715D01*
X129889768Y-89258709D01*
X129868700Y-89207846D01*
X129868698Y-89207843D01*
X129859365Y-89185310D01*
X129847401Y-89156425D01*
X129778072Y-89052667D01*
X129244405Y-88519000D01*
X131956461Y-88519000D01*
X131957890Y-88537173D01*
X132003570Y-88694400D01*
X132086908Y-88835318D01*
X132086914Y-88835325D01*
X132202674Y-88951085D01*
X132202681Y-88951091D01*
X132343598Y-89034429D01*
X132489000Y-89076672D01*
X132489000Y-88519000D01*
X131956461Y-88519000D01*
X129244405Y-88519000D01*
X129194405Y-88469000D01*
X129160379Y-88406688D01*
X129157500Y-88379905D01*
X129157500Y-87927765D01*
X129177502Y-87859644D01*
X129182624Y-87852266D01*
X129199889Y-87829204D01*
X129250989Y-87692201D01*
X129255688Y-87648499D01*
X129257499Y-87631649D01*
X129257500Y-87631632D01*
X129257500Y-87116110D01*
X129277502Y-87047989D01*
X129331158Y-87001496D01*
X129358913Y-86992533D01*
X129424000Y-86979587D01*
X129589336Y-86911102D01*
X129738135Y-86811678D01*
X129864678Y-86685135D01*
X129964102Y-86536336D01*
X130032587Y-86371000D01*
X130067500Y-86195479D01*
X130067500Y-86016521D01*
X130032587Y-85841000D01*
X129964102Y-85675664D01*
X129864678Y-85526865D01*
X129738135Y-85400322D01*
X129589336Y-85300898D01*
X129524513Y-85274046D01*
X129483639Y-85246734D01*
X129294405Y-85057500D01*
X129260379Y-84995188D01*
X129257500Y-84968405D01*
X129257500Y-84834367D01*
X129257499Y-84834350D01*
X129250990Y-84773803D01*
X129250988Y-84773795D01*
X129199889Y-84636797D01*
X129199887Y-84636793D01*
X129182631Y-84613741D01*
X129157821Y-84547221D01*
X129157500Y-84538233D01*
X129157500Y-83891594D01*
X129177502Y-83823473D01*
X129194405Y-83802499D01*
X129395499Y-83601405D01*
X129457811Y-83567379D01*
X129484594Y-83564500D01*
X129521493Y-83564500D01*
X129521493Y-83564499D01*
X129558254Y-83561606D01*
X129715597Y-83515894D01*
X129856629Y-83432488D01*
X129972488Y-83316629D01*
X130055894Y-83175597D01*
X130101606Y-83018254D01*
X130104499Y-82981493D01*
X130104500Y-82981493D01*
X130104500Y-82944594D01*
X130124502Y-82876473D01*
X130141405Y-82855499D01*
X131289499Y-81707405D01*
X131351811Y-81673379D01*
X131378594Y-81670500D01*
X132737632Y-81670500D01*
X132737638Y-81670500D01*
X132737645Y-81670499D01*
X132737649Y-81670499D01*
X132798196Y-81663990D01*
X132798199Y-81663989D01*
X132798201Y-81663989D01*
X132935204Y-81612889D01*
X133013491Y-81554283D01*
X133080011Y-81529473D01*
X133149385Y-81544564D01*
G37*
%TD.AperFunction*%
%TA.AperFunction,Conductor*%
G36*
X167073621Y-71013502D02*
G01*
X167120114Y-71067158D01*
X167131500Y-71119500D01*
X167131500Y-73401000D01*
X167111498Y-73469121D01*
X167057842Y-73515614D01*
X167005500Y-73527000D01*
X164152725Y-73527000D01*
X164089725Y-73510119D01*
X163888224Y-73393782D01*
X163888216Y-73393778D01*
X163888212Y-73393776D01*
X163664100Y-73300946D01*
X163664097Y-73300945D01*
X163664095Y-73300944D01*
X163429782Y-73238160D01*
X163189290Y-73206500D01*
X163189288Y-73206500D01*
X162946712Y-73206500D01*
X162946709Y-73206500D01*
X162706217Y-73238160D01*
X162471904Y-73300944D01*
X162471900Y-73300946D01*
X162247786Y-73393777D01*
X162247775Y-73393782D01*
X162046275Y-73510119D01*
X161983275Y-73527000D01*
X140940000Y-73527000D01*
X140940000Y-77980631D01*
X140919998Y-78048752D01*
X140866342Y-78095245D01*
X140796068Y-78105349D01*
X140731488Y-78075855D01*
X140693104Y-78016129D01*
X140693003Y-78015784D01*
X140686269Y-77992604D01*
X140686267Y-77992602D01*
X140686267Y-77992599D01*
X140603507Y-77852660D01*
X140603501Y-77852653D01*
X140488546Y-77737698D01*
X140488539Y-77737692D01*
X140348600Y-77654932D01*
X140192464Y-77609570D01*
X140155998Y-77606700D01*
X139756012Y-77606700D01*
X139719535Y-77609570D01*
X139563403Y-77654931D01*
X139509646Y-77686722D01*
X139440829Y-77704180D01*
X139381371Y-77686721D01*
X139328399Y-77655394D01*
X139190000Y-77615185D01*
X139190000Y-78097658D01*
X139189781Y-78105090D01*
X139188946Y-78119217D01*
X139180371Y-78148734D01*
X139177500Y-78185211D01*
X139177500Y-78312938D01*
X139177282Y-78316632D01*
X139166493Y-78346687D01*
X139157499Y-78377320D01*
X139154594Y-78379836D01*
X139153296Y-78383454D01*
X139127975Y-78402902D01*
X139103844Y-78423813D01*
X139099530Y-78424751D01*
X139096992Y-78426701D01*
X139086529Y-78427579D01*
X139051501Y-78435200D01*
X138936000Y-78435200D01*
X138936000Y-78563200D01*
X138915998Y-78631321D01*
X138862342Y-78677814D01*
X138810000Y-78689200D01*
X138158320Y-78689200D01*
X138160869Y-78721589D01*
X138160869Y-78721592D01*
X138206194Y-78877599D01*
X138288889Y-79017428D01*
X138288894Y-79017435D01*
X138403763Y-79132304D01*
X138438085Y-79152602D01*
X138486538Y-79204495D01*
X138499243Y-79274346D01*
X138493551Y-79300687D01*
X138472675Y-79363687D01*
X138462500Y-79463280D01*
X138462500Y-79997710D01*
X138472675Y-80097309D01*
X138472676Y-80097314D01*
X138526151Y-80258692D01*
X138615400Y-80403387D01*
X138615405Y-80403393D01*
X138640917Y-80428905D01*
X138674943Y-80491217D01*
X138669878Y-80562032D01*
X138640917Y-80607095D01*
X138615405Y-80632606D01*
X138615400Y-80632612D01*
X138526151Y-80777307D01*
X138472675Y-80938690D01*
X138462500Y-81038280D01*
X138462500Y-81345651D01*
X138442498Y-81413772D01*
X138441265Y-81415652D01*
X138374602Y-81515420D01*
X138374601Y-81515421D01*
X138326846Y-81630712D01*
X138326845Y-81630715D01*
X138318376Y-81673291D01*
X138302500Y-81753103D01*
X138302500Y-81909307D01*
X138284953Y-81973446D01*
X138205732Y-82107399D01*
X138160370Y-82263534D01*
X138160370Y-82263535D01*
X138157500Y-82300001D01*
X138157500Y-82799987D01*
X138160370Y-82836464D01*
X138205732Y-82992600D01*
X138288492Y-83132539D01*
X138288498Y-83132546D01*
X138403453Y-83247501D01*
X138403460Y-83247507D01*
X138543399Y-83330267D01*
X138543402Y-83330267D01*
X138543404Y-83330269D01*
X138699534Y-83375629D01*
X138736011Y-83378500D01*
X139135988Y-83378499D01*
X139172466Y-83375629D01*
X139328596Y-83330269D01*
X139346872Y-83319460D01*
X139415686Y-83302001D01*
X139483018Y-83324517D01*
X139527488Y-83379860D01*
X139537011Y-83427914D01*
X139537011Y-83974117D01*
X139537011Y-84098905D01*
X139561356Y-84221296D01*
X139609111Y-84336586D01*
X139678440Y-84440344D01*
X139958096Y-84720000D01*
X140114501Y-84876405D01*
X140148526Y-84938717D01*
X140143461Y-85009533D01*
X140100914Y-85066368D01*
X140034394Y-85091179D01*
X140025405Y-85091500D01*
X139845507Y-85091500D01*
X139808748Y-85094393D01*
X139808747Y-85094393D01*
X139651398Y-85140107D01*
X139637136Y-85148542D01*
X139568319Y-85166000D01*
X139508864Y-85148542D01*
X139494601Y-85140107D01*
X139337252Y-85094393D01*
X139300493Y-85091500D01*
X139300484Y-85091500D01*
X138829516Y-85091500D01*
X138829507Y-85091500D01*
X138792748Y-85094393D01*
X138792747Y-85094393D01*
X138635400Y-85140107D01*
X138494369Y-85223513D01*
X138494365Y-85223516D01*
X138378516Y-85339365D01*
X138378513Y-85339369D01*
X138295106Y-85480402D01*
X138280548Y-85530507D01*
X138248648Y-85584446D01*
X138041501Y-85791595D01*
X137979189Y-85825620D01*
X137952405Y-85828500D01*
X136773500Y-85828500D01*
X136705379Y-85808498D01*
X136658886Y-85754842D01*
X136647500Y-85702500D01*
X136647500Y-85413367D01*
X136647499Y-85413350D01*
X136640990Y-85352803D01*
X136640988Y-85352795D01*
X136606414Y-85260100D01*
X136589889Y-85215796D01*
X136589888Y-85215794D01*
X136589887Y-85215792D01*
X136502261Y-85098738D01*
X136385207Y-85011112D01*
X136385202Y-85011110D01*
X136248204Y-84960011D01*
X136248196Y-84960009D01*
X136187649Y-84953500D01*
X136187638Y-84953500D01*
X134998500Y-84953500D01*
X134930379Y-84933498D01*
X134883886Y-84879842D01*
X134872500Y-84827500D01*
X134872500Y-81796500D01*
X134892502Y-81728379D01*
X134946158Y-81681886D01*
X134998500Y-81670500D01*
X135037632Y-81670500D01*
X135037638Y-81670500D01*
X135037645Y-81670499D01*
X135037649Y-81670499D01*
X135098196Y-81663990D01*
X135098199Y-81663989D01*
X135098201Y-81663989D01*
X135235204Y-81612889D01*
X135313910Y-81553969D01*
X135380425Y-81529160D01*
X135449799Y-81544250D01*
X135464926Y-81553971D01*
X135543036Y-81612445D01*
X135679906Y-81663494D01*
X135740402Y-81669999D01*
X135740415Y-81670000D01*
X136285000Y-81670000D01*
X136793000Y-81670000D01*
X137337585Y-81670000D01*
X137337597Y-81669999D01*
X137398093Y-81663494D01*
X137534964Y-81612444D01*
X137534965Y-81612444D01*
X137651904Y-81524904D01*
X137739444Y-81407965D01*
X137739444Y-81407964D01*
X137790494Y-81271093D01*
X137796999Y-81210597D01*
X137797000Y-81210585D01*
X137797000Y-80416000D01*
X136793000Y-80416000D01*
X136793000Y-81670000D01*
X136285000Y-81670000D01*
X136285000Y-79908000D01*
X136793000Y-79908000D01*
X137797000Y-79908000D01*
X137797000Y-79113414D01*
X137796999Y-79113402D01*
X137790494Y-79052906D01*
X137739444Y-78916035D01*
X137739444Y-78916034D01*
X137651904Y-78799095D01*
X137534965Y-78711555D01*
X137398093Y-78660505D01*
X137337597Y-78654000D01*
X136793000Y-78654000D01*
X136793000Y-79908000D01*
X136285000Y-79908000D01*
X136285000Y-78654000D01*
X135740402Y-78654000D01*
X135679906Y-78660505D01*
X135543035Y-78711555D01*
X135464924Y-78770028D01*
X135398404Y-78794838D01*
X135329030Y-78779746D01*
X135313907Y-78770027D01*
X135235207Y-78711112D01*
X135235202Y-78711110D01*
X135098204Y-78660011D01*
X135098196Y-78660009D01*
X135037649Y-78653500D01*
X135037638Y-78653500D01*
X133440362Y-78653500D01*
X133440350Y-78653500D01*
X133379803Y-78660009D01*
X133379795Y-78660011D01*
X133242797Y-78711110D01*
X133242792Y-78711113D01*
X133164509Y-78769715D01*
X133097989Y-78794526D01*
X133028614Y-78779434D01*
X133013491Y-78769715D01*
X132935207Y-78711113D01*
X132935202Y-78711110D01*
X132798204Y-78660011D01*
X132798196Y-78660009D01*
X132737649Y-78653500D01*
X132737638Y-78653500D01*
X131140362Y-78653500D01*
X131140350Y-78653500D01*
X131079803Y-78660009D01*
X131079795Y-78660011D01*
X130942797Y-78711110D01*
X130942792Y-78711112D01*
X130825738Y-78798738D01*
X130738112Y-78915792D01*
X130738110Y-78915797D01*
X130687011Y-79052795D01*
X130687009Y-79052803D01*
X130680500Y-79113350D01*
X130680500Y-80472406D01*
X130660498Y-80540527D01*
X130643599Y-80561496D01*
X130266410Y-80938686D01*
X130039848Y-81165248D01*
X129977536Y-81199273D01*
X129906720Y-81194208D01*
X129861658Y-81165247D01*
X129856325Y-81159914D01*
X129856318Y-81159908D01*
X129715400Y-81076570D01*
X129715402Y-81076570D01*
X129558173Y-81030890D01*
X129540000Y-81029459D01*
X129540000Y-81612906D01*
X129531216Y-81642821D01*
X129524588Y-81673291D01*
X129520773Y-81678386D01*
X129519998Y-81681027D01*
X129503095Y-81702001D01*
X129426001Y-81779095D01*
X129363689Y-81813121D01*
X129336906Y-81816000D01*
X129286000Y-81816000D01*
X129286000Y-81861500D01*
X129265998Y-81929621D01*
X129212342Y-81976114D01*
X129160000Y-81987500D01*
X129050507Y-81987500D01*
X129013748Y-81990393D01*
X129013747Y-81990393D01*
X128856401Y-82036106D01*
X128828760Y-82052454D01*
X128764621Y-82070000D01*
X128474327Y-82070000D01*
X128516570Y-82215401D01*
X128526014Y-82231369D01*
X128543474Y-82300185D01*
X128526017Y-82359643D01*
X128516104Y-82376405D01*
X128470394Y-82533744D01*
X128470393Y-82533748D01*
X128467500Y-82570506D01*
X128467500Y-82685406D01*
X128447498Y-82753527D01*
X128430595Y-82774501D01*
X128031931Y-83173164D01*
X128031926Y-83173171D01*
X127962601Y-83276923D01*
X127914846Y-83392212D01*
X127890500Y-83514603D01*
X127890500Y-84538233D01*
X127870498Y-84606354D01*
X127865369Y-84613741D01*
X127848112Y-84636793D01*
X127848110Y-84636797D01*
X127797011Y-84773795D01*
X127797009Y-84773803D01*
X127790500Y-84834350D01*
X127790500Y-85531649D01*
X127797009Y-85592196D01*
X127797011Y-85592204D01*
X127848110Y-85729202D01*
X127848112Y-85729207D01*
X127935738Y-85846261D01*
X128052791Y-85933886D01*
X128052792Y-85933886D01*
X128052796Y-85933889D01*
X128168535Y-85977058D01*
X128225368Y-86019603D01*
X128250179Y-86086123D01*
X128250500Y-86095112D01*
X128250500Y-86195484D01*
X128278301Y-86335248D01*
X128271973Y-86405962D01*
X128228418Y-86462029D01*
X128196561Y-86476586D01*
X128197184Y-86478256D01*
X128052797Y-86532110D01*
X128052792Y-86532112D01*
X127935738Y-86619738D01*
X127848112Y-86736792D01*
X127848110Y-86736797D01*
X127797011Y-86873795D01*
X127797009Y-86873803D01*
X127790500Y-86934350D01*
X127790500Y-87631649D01*
X127797009Y-87692196D01*
X127797011Y-87692201D01*
X127848111Y-87829204D01*
X127865367Y-87852255D01*
X127890179Y-87918774D01*
X127890500Y-87927765D01*
X127890500Y-88756896D01*
X127894599Y-88777502D01*
X127914845Y-88879285D01*
X127962600Y-88994575D01*
X128031929Y-89098333D01*
X128031931Y-89098335D01*
X128615595Y-89681999D01*
X128649621Y-89744311D01*
X128652500Y-89771094D01*
X128652500Y-90560124D01*
X128632498Y-90628245D01*
X128578842Y-90674738D01*
X128508568Y-90684842D01*
X128443988Y-90655348D01*
X128410092Y-90608345D01*
X128407967Y-90603216D01*
X128303129Y-90446315D01*
X128303124Y-90446308D01*
X128169691Y-90312875D01*
X128169684Y-90312870D01*
X128012783Y-90208032D01*
X127838441Y-90135817D01*
X127838438Y-90135816D01*
X127653358Y-90099000D01*
X127413000Y-90099000D01*
X127413000Y-90757000D01*
X126905000Y-90757000D01*
X126905000Y-90099000D01*
X126664641Y-90099000D01*
X126479561Y-90135816D01*
X126479554Y-90135818D01*
X126412717Y-90163503D01*
X126342127Y-90171092D01*
X126278641Y-90139312D01*
X126242414Y-90078254D01*
X126238500Y-90047094D01*
X126238500Y-81562000D01*
X128474327Y-81562000D01*
X129032000Y-81562000D01*
X129032000Y-81029459D01*
X129013828Y-81030890D01*
X129013825Y-81030890D01*
X128856598Y-81076570D01*
X128715681Y-81159908D01*
X128715674Y-81159914D01*
X128599914Y-81275674D01*
X128599908Y-81275681D01*
X128516570Y-81416598D01*
X128474327Y-81562000D01*
X126238500Y-81562000D01*
X126238500Y-78181200D01*
X138158320Y-78181200D01*
X138682000Y-78181200D01*
X138682000Y-77615185D01*
X138543600Y-77655394D01*
X138403771Y-77738089D01*
X138403764Y-77738094D01*
X138288894Y-77852964D01*
X138288889Y-77852971D01*
X138206194Y-77992800D01*
X138160869Y-78148807D01*
X138160869Y-78148810D01*
X138158320Y-78181200D01*
X126238500Y-78181200D01*
X126238500Y-74935709D01*
X128451500Y-74935709D01*
X128451500Y-75178290D01*
X128483160Y-75418782D01*
X128545944Y-75653095D01*
X128545945Y-75653097D01*
X128545946Y-75653100D01*
X128638776Y-75877212D01*
X128638777Y-75877213D01*
X128638782Y-75877224D01*
X128760061Y-76087285D01*
X128760063Y-76087288D01*
X128760064Y-76087289D01*
X128907735Y-76279738D01*
X128907739Y-76279742D01*
X128907744Y-76279748D01*
X129079251Y-76451255D01*
X129079256Y-76451259D01*
X129079262Y-76451265D01*
X129271711Y-76598936D01*
X129271714Y-76598938D01*
X129481775Y-76720217D01*
X129481779Y-76720218D01*
X129481788Y-76720224D01*
X129705900Y-76813054D01*
X129940211Y-76875838D01*
X129940215Y-76875838D01*
X129940217Y-76875839D01*
X130002202Y-76883999D01*
X130180712Y-76907500D01*
X130180719Y-76907500D01*
X130423281Y-76907500D01*
X130423288Y-76907500D01*
X130640637Y-76878885D01*
X130663782Y-76875839D01*
X130663782Y-76875838D01*
X130663789Y-76875838D01*
X130898100Y-76813054D01*
X131122212Y-76720224D01*
X131332289Y-76598936D01*
X131524738Y-76451265D01*
X131696265Y-76279738D01*
X131843936Y-76087289D01*
X131965224Y-75877212D01*
X132058054Y-75653100D01*
X132120838Y-75418789D01*
X132152500Y-75178288D01*
X132152500Y-74935712D01*
X132120838Y-74695211D01*
X132058054Y-74460900D01*
X131965224Y-74236788D01*
X131965218Y-74236779D01*
X131965217Y-74236775D01*
X131843938Y-74026714D01*
X131843936Y-74026711D01*
X131696265Y-73834262D01*
X131696259Y-73834256D01*
X131696255Y-73834251D01*
X131524748Y-73662744D01*
X131524742Y-73662739D01*
X131524738Y-73662735D01*
X131332289Y-73515064D01*
X131332288Y-73515063D01*
X131332285Y-73515061D01*
X131122224Y-73393782D01*
X131122216Y-73393778D01*
X131122212Y-73393776D01*
X130898100Y-73300946D01*
X130898097Y-73300945D01*
X130898095Y-73300944D01*
X130663782Y-73238160D01*
X130423290Y-73206500D01*
X130423288Y-73206500D01*
X130180712Y-73206500D01*
X130180709Y-73206500D01*
X129940217Y-73238160D01*
X129705904Y-73300944D01*
X129705900Y-73300946D01*
X129481786Y-73393777D01*
X129481775Y-73393782D01*
X129271714Y-73515061D01*
X129079262Y-73662735D01*
X129079251Y-73662744D01*
X128907744Y-73834251D01*
X128907735Y-73834262D01*
X128760061Y-74026714D01*
X128638782Y-74236775D01*
X128638777Y-74236786D01*
X128545946Y-74460900D01*
X128545944Y-74460904D01*
X128483160Y-74695217D01*
X128451500Y-74935709D01*
X126238500Y-74935709D01*
X126238500Y-71119500D01*
X126258502Y-71051379D01*
X126312158Y-71004886D01*
X126364500Y-70993500D01*
X167005500Y-70993500D01*
X167073621Y-71013502D01*
G37*
%TD.AperFunction*%
%TA.AperFunction,Conductor*%
G36*
X139592066Y-86598224D02*
G01*
X139603991Y-86597782D01*
X139637137Y-86611457D01*
X139651403Y-86619894D01*
X139808746Y-86665606D01*
X139845506Y-86668499D01*
X139845507Y-86668500D01*
X139845516Y-86668500D01*
X139955000Y-86668500D01*
X140023121Y-86688502D01*
X140069614Y-86742158D01*
X140081000Y-86794500D01*
X140081000Y-86840000D01*
X140142501Y-86840000D01*
X140210622Y-86860002D01*
X140257115Y-86913658D01*
X140268501Y-86966000D01*
X140268501Y-87069987D01*
X140271370Y-87106464D01*
X140316732Y-87262599D01*
X140317452Y-87263816D01*
X140317784Y-87265032D01*
X140319881Y-87269877D01*
X140319191Y-87270175D01*
X140335000Y-87327957D01*
X140335000Y-87626539D01*
X140353173Y-87625109D01*
X140510396Y-87579430D01*
X140514288Y-87577747D01*
X140517599Y-87577338D01*
X140518010Y-87577219D01*
X140518029Y-87577285D01*
X140584750Y-87569050D01*
X140628468Y-87584930D01*
X140654404Y-87600269D01*
X140810534Y-87645629D01*
X140847011Y-87648500D01*
X140927404Y-87648499D01*
X140995524Y-87668500D01*
X141016500Y-87685404D01*
X141315595Y-87984499D01*
X141330539Y-88011867D01*
X141347396Y-88038096D01*
X141348301Y-88044394D01*
X141349621Y-88046811D01*
X141352500Y-88073594D01*
X141352500Y-88208781D01*
X141332498Y-88276902D01*
X141278842Y-88323395D01*
X141208568Y-88333499D01*
X141156499Y-88313546D01*
X141019340Y-88221900D01*
X141019339Y-88221899D01*
X140854003Y-88153414D01*
X140854001Y-88153413D01*
X140854000Y-88153413D01*
X140765645Y-88135838D01*
X140678481Y-88118500D01*
X140678479Y-88118500D01*
X140499521Y-88118500D01*
X140499518Y-88118500D01*
X140406514Y-88137000D01*
X140324000Y-88153413D01*
X140323999Y-88153413D01*
X140323996Y-88153414D01*
X140158662Y-88221899D01*
X140009869Y-88321319D01*
X140009862Y-88321324D01*
X139883324Y-88447862D01*
X139883319Y-88447869D01*
X139783899Y-88596662D01*
X139715414Y-88761996D01*
X139715413Y-88761999D01*
X139715413Y-88762000D01*
X139710564Y-88786378D01*
X139680500Y-88937518D01*
X139680500Y-89023385D01*
X139660498Y-89091506D01*
X139606842Y-89137999D01*
X139579081Y-89146964D01*
X139466278Y-89169402D01*
X139466277Y-89169402D01*
X139466274Y-89169403D01*
X139300942Y-89237887D01*
X139277638Y-89253458D01*
X139209885Y-89274671D01*
X139141418Y-89255886D01*
X139137640Y-89253458D01*
X139114336Y-89237887D01*
X138986459Y-89184918D01*
X138949003Y-89169403D01*
X138949001Y-89169402D01*
X138949000Y-89169402D01*
X138836196Y-89146964D01*
X138773481Y-89134489D01*
X138773479Y-89134489D01*
X138594521Y-89134489D01*
X138594518Y-89134489D01*
X138484240Y-89156425D01*
X138419000Y-89169402D01*
X138418999Y-89169402D01*
X138418996Y-89169403D01*
X138253657Y-89237890D01*
X138248204Y-89240805D01*
X138247557Y-89239594D01*
X138186473Y-89258709D01*
X138120413Y-89240573D01*
X138120290Y-89240804D01*
X138119274Y-89240261D01*
X138118010Y-89239914D01*
X138114970Y-89237960D01*
X138114836Y-89237888D01*
X137949500Y-89169403D01*
X137949498Y-89169402D01*
X137949497Y-89169402D01*
X137836693Y-89146964D01*
X137773978Y-89134489D01*
X137773976Y-89134489D01*
X137595018Y-89134489D01*
X137595015Y-89134489D01*
X137484737Y-89156425D01*
X137419497Y-89169402D01*
X137419496Y-89169402D01*
X137419493Y-89169403D01*
X137288399Y-89223705D01*
X137269190Y-89231662D01*
X137254159Y-89237888D01*
X137105366Y-89337308D01*
X137105359Y-89337313D01*
X136978821Y-89463851D01*
X136978816Y-89463858D01*
X136879396Y-89612651D01*
X136810911Y-89777985D01*
X136810910Y-89777988D01*
X136810910Y-89777989D01*
X136805892Y-89803215D01*
X136775997Y-89953507D01*
X136775997Y-90132470D01*
X136810913Y-90308004D01*
X136812579Y-90313497D01*
X136813203Y-90384490D01*
X136775346Y-90444552D01*
X136711027Y-90474611D01*
X136689130Y-90476023D01*
X136678162Y-90475773D01*
X136671526Y-90474453D01*
X136620219Y-90474453D01*
X136618771Y-90474420D01*
X136586267Y-90464066D01*
X136553520Y-90454451D01*
X136551846Y-90453102D01*
X136551124Y-90452872D01*
X136550250Y-90451815D01*
X136532546Y-90437548D01*
X134909405Y-88814407D01*
X134875379Y-88752095D01*
X134872500Y-88725312D01*
X134872500Y-88202607D01*
X134872499Y-88202600D01*
X134856284Y-88121081D01*
X134862612Y-88050367D01*
X134906166Y-87994300D01*
X134973119Y-87970681D01*
X134979863Y-87970500D01*
X136187632Y-87970500D01*
X136187638Y-87970500D01*
X136187645Y-87970499D01*
X136187649Y-87970499D01*
X136248196Y-87963990D01*
X136248199Y-87963989D01*
X136248201Y-87963989D01*
X136385204Y-87912889D01*
X136402127Y-87900221D01*
X136502261Y-87825261D01*
X136589887Y-87708207D01*
X136589887Y-87708206D01*
X136589889Y-87708204D01*
X136637920Y-87579429D01*
X136640988Y-87571204D01*
X136640990Y-87571196D01*
X136647499Y-87510649D01*
X136647500Y-87510632D01*
X136647500Y-87221500D01*
X136667502Y-87153379D01*
X136721158Y-87106886D01*
X136773500Y-87095500D01*
X138159159Y-87095500D01*
X138227280Y-87115502D01*
X138273773Y-87169158D01*
X138280156Y-87186346D01*
X138295570Y-87239401D01*
X138378908Y-87380318D01*
X138378914Y-87380325D01*
X138494674Y-87496085D01*
X138494681Y-87496091D01*
X138635599Y-87579429D01*
X138792829Y-87625109D01*
X138792824Y-87625109D01*
X138810999Y-87626539D01*
X138811000Y-87626539D01*
X139319000Y-87626539D01*
X139337173Y-87625109D01*
X139494398Y-87579430D01*
X139508857Y-87570879D01*
X139577673Y-87553417D01*
X139637143Y-87570879D01*
X139651601Y-87579430D01*
X139808829Y-87625109D01*
X139808824Y-87625109D01*
X139826999Y-87626539D01*
X139827000Y-87626539D01*
X139827000Y-87094000D01*
X139319000Y-87094000D01*
X139319000Y-87626539D01*
X138811000Y-87626539D01*
X138811000Y-86966000D01*
X138831002Y-86897879D01*
X138884658Y-86851386D01*
X138937000Y-86840000D01*
X139065000Y-86840000D01*
X139065000Y-86794500D01*
X139085002Y-86726379D01*
X139138658Y-86679886D01*
X139191000Y-86668500D01*
X139300493Y-86668500D01*
X139300493Y-86668499D01*
X139337254Y-86665606D01*
X139494597Y-86619894D01*
X139508859Y-86611459D01*
X139521954Y-86608136D01*
X139533044Y-86600414D01*
X139555699Y-86599573D01*
X139577672Y-86593998D01*
X139592066Y-86598224D01*
G37*
%TD.AperFunction*%
%TD*%
M02*
